<?xml version="1.0" encoding="utf-8"?>
<svg width="262" height="68" viewBox="0 0 262 68" fill="none" xmlns="http://www.w3.org/2000/svg">
  <g>
    <g transform="translate(0 10)">
      <path d="M2.64205 46.5L2.64205 11.5909L26.983 11.5909L26.983 18.4432L11.0795 18.4432L11.0795 25.6023L25.7386 25.6023L25.7386 32.4716L11.0795 32.4716L11.0795 39.6477L26.983 39.6477L26.983 46.5L2.64205 46.5ZM39.358 20.3182L43.6705 28.9432L48.1364 20.3182L56.5398 20.3182L49.2273 33.4091L56.8125 46.5L48.4773 46.5L43.6705 37.8068L38.983 46.5L30.5284 46.5L38.1307 33.4091L30.9034 20.3182L39.358 20.3182ZM68.6932 11.5909L68.6932 46.5L60.358 46.5L60.358 11.5909L68.6932 11.5909ZM81.358 46.9432Q77.608 46.9432 75.179 45.0341Q72.75 43.125 72.75 39.2386Q72.75 36.3409 74.0795 34.6278Q75.4091 32.9148 77.625 32.0881Q79.8409 31.2614 82.483 31.0398Q85.8409 30.75 87.2642 30.3239Q88.6875 29.8977 88.6875 28.7045L88.6875 28.6193Q88.6875 27.3068 87.7841 26.5909Q86.8807 25.875 85.3466 25.875Q83.6932 25.875 82.6875 26.5909Q81.6818 27.3068 81.4091 28.5682L73.7216 28.2955Q74.2159 24.7159 77.1733 22.3466Q80.1307 19.9773 85.4148 19.9773Q88.7557 19.9773 91.3722 21.0085Q93.9886 22.0398 95.4972 23.983Q97.0057 25.9261 97.0057 28.7045L97.0057 46.5L89.1648 46.5L89.1648 42.8523L88.9602 42.8523Q86.7784 46.9432 81.358 46.9432ZM83.9318 41.4886Q85.9261 41.4886 87.3324 40.2955Q88.7386 39.1023 88.7386 37.1932L88.7386 34.7045Q88.0398 35.0795 86.7699 35.3352Q85.5 35.5909 84.3409 35.7614Q80.642 36.3239 80.642 38.8295Q80.642 40.125 81.5625 40.8068Q82.483 41.4886 83.9318 41.4886Z" fill="#FFFFFF" />
      <path d="M5.65909 14.4545L6.13636 11.5909L31.4489 11.5909L30.9716 14.4545L19.9091 14.4545L14.5909 46.5L11.4034 46.5L16.7216 14.4545L5.65909 14.4545ZM38.8807 47.0455Q35.2159 47.0455 32.821 45.3324Q30.4261 43.6193 29.4801 40.5767Q28.5341 37.5341 29.1989 33.5625Q29.8636 29.5909 31.8239 26.5227Q33.7841 23.4545 36.6563 21.7074Q39.5284 19.9602 42.9205 19.9602Q45.767 19.9602 48.0682 21.3494Q50.3693 22.7386 51.4773 25.5852Q52.5852 28.4318 51.8523 32.8125L51.6136 34.3125L32.0966 34.3125Q31.3295 39.2386 33.2386 41.7528Q35.1477 44.267 39.3068 44.267Q42.1193 44.267 44.1136 42.9972Q46.108 41.7273 47.1477 39.9716L49.858 40.9091Q48.5625 43.3807 45.6989 45.2131Q42.8352 47.0455 38.8807 47.0455ZM32.5568 31.6364L48.9545 31.6364Q49.3807 29.1136 48.7159 27.0938Q48.0511 25.0739 46.4574 23.8977Q44.8636 22.7216 42.5114 22.7216Q40.1932 22.7216 38.1222 23.983Q36.0511 25.2443 34.5767 27.2727Q33.1023 29.3011 32.5568 31.6364ZM66.4261 47.0455Q62.8807 47.0455 60.5795 45.2898Q58.2784 43.5341 57.3665 40.4744Q56.4545 37.4148 57.1023 33.5284Q57.75 29.5739 59.7102 26.5142Q61.6705 23.4545 64.5597 21.7074Q67.4489 19.9602 70.875 19.9602Q74.8125 19.9602 77.2074 22.2017Q79.6023 24.4432 79.5341 28.0909L76.4659 28.0909Q76.3466 25.8239 74.8295 24.2727Q73.3125 22.7216 70.517 22.7216Q67.9773 22.7216 65.8125 24.0767Q63.6477 25.4318 62.1563 27.8438Q60.6648 30.2557 60.1534 33.4261Q59.608 36.6136 60.2557 39.0597Q60.9034 41.5057 62.5824 42.8864Q64.2614 44.267 66.8352 44.267Q69.4602 44.267 71.608 42.8097Q73.7557 41.3523 74.7102 38.8636L77.7784 38.8636Q77.0114 41.233 75.3665 43.0824Q73.7216 44.9318 71.4375 45.9886Q69.1534 47.0455 66.4261 47.0455ZM88.7216 30.1364L86.0114 46.5L82.9773 46.5L88.7727 11.5909L91.8068 11.5909L89.6932 24.4261L89.9659 24.4261Q91.1932 22.3807 93.3409 21.179Q95.4886 19.9773 98.4716 19.9773Q102.443 19.9773 104.514 22.4148Q106.585 24.8523 105.818 29.5398L102.972 46.5L99.9205 46.5L102.716 29.7273Q103.261 26.4886 101.787 24.6222Q100.313 22.7557 97.2614 22.7557Q94.125 22.7557 91.7216 24.733Q89.3182 26.7102 88.7216 30.1364Z" transform="translate(99.443 0)" fill="#FFFFFF" />
    </g>
    <path d="M12 24C5.37259 24 0 18.6274 0 12C0 5.37258 5.37259 0 12 0C18.6274 0 24 5.37258 24 12C24 18.6274 18.6274 24 12 24ZM44 39C37.3726 39 32 33.6274 32 27C32 20.3726 37.3726 15 44 15C50.6274 15 56 20.3726 56 27C56 33.6274 50.6274 39 44 39ZM18 62C11.3726 62 6 56.6274 6 50C6 43.3726 11.3726 38 18 38C24.6274 38 30 43.3726 30 50C30 56.6274 24.6274 62 18 62Z" fill="#FFFFFF" fill-rule="evenodd" transform="translate(206 0)" />
  </g>
</svg>