<?xml version="1.0" encoding="utf-8"?>
<svg width="32" height="32" viewBox="0 0 32 32" fill="none" xmlns="http://www.w3.org/2000/svg">
  <g>
    <path d="M2.66675 21.3334L2.66675 14.6667L2.66675 21.3334L2.66675 21.3334ZM0 14.6666C0 14.6666 2.8 6.66665 2.8 6.66665C2.93333 6.26665 3.17222 5.94442 3.51667 5.69998C3.86111 5.45554 4.24444 5.33331 4.66667 5.33331C4.66667 5.33331 10.7667 5.33331 10.7667 5.33331C10.7 5.77776 10.6667 6.2222 10.6667 6.66665C10.6667 7.11109 10.7 7.55554 10.7667 7.99998C10.7667 7.99998 5.13333 7.99998 5.13333 7.99998L3.73333 12C3.73333 12 12.3667 12 12.3667 12C12.7444 12.5333 13.1667 13.0278 13.6333 13.4833C14.1 13.9389 14.6222 14.3333 15.2 14.6666C15.2 14.6666 2.66667 14.6666 2.66667 14.6666L2.66667 21.3333L21.3333 21.3333C21.3333 21.3333 21.3333 15.9 21.3333 15.9C21.8 15.8333 22.2556 15.7333 22.7 15.6C23.1444 15.4666 23.5778 15.3 24 15.1C24 15.1 24 25.3333 24 25.3333C24 25.7111 23.8722 26.0278 23.6167 26.2833C23.3611 26.5389 23.0444 26.6666 22.6667 26.6666C22.6667 26.6666 21.3333 26.6666 21.3333 26.6666C20.9556 26.6666 20.6389 26.5389 20.3833 26.2833C20.1278 26.0278 20 25.7111 20 25.3333C20 25.3333 20 24 20 24L4 24C4 24 4 25.3333 4 25.3333C4 25.7111 3.87222 26.0278 3.61667 26.2833C3.36111 26.5389 3.04444 26.6666 2.66667 26.6666C2.66667 26.6666 1.33333 26.6666 1.33333 26.6666C0.955555 26.6666 0.638889 26.5389 0.383333 26.2833C0.127778 26.0278 0 25.7111 0 25.3333C0 25.3333 0 14.6666 0 14.6666L0 14.6666ZM18 20C18.5556 20 19.0278 19.8056 19.4167 19.4167C19.8056 19.0278 20 18.5556 20 18C20 17.4444 19.8056 16.9722 19.4167 16.5833C19.0278 16.1944 18.5556 16 18 16C17.4444 16 16.9722 16.1944 16.5833 16.5833C16.1944 16.9722 16 17.4444 16 18C16 18.5556 16.1944 19.0278 16.5833 19.4167C16.9722 19.8056 17.4444 20 18 20C18 20 18 20 18 20ZM6 20C6.55556 20 7.02778 19.8056 7.41667 19.4167C7.80556 19.0278 8 18.5556 8 18C8 17.4444 7.80556 16.9722 7.41667 16.5833C7.02778 16.1944 6.55556 16 6 16C5.44444 16 4.97222 16.1944 4.58333 16.5833C4.19444 16.9722 4 17.4444 4 18C4 18.5556 4.19444 19.0278 4.58333 19.4167C4.97222 19.8056 5.44444 20 6 20C6 20 6 20 6 20ZM19.9999 13.3333C18.1555 13.3333 16.5833 12.6833 15.2833 11.3833C13.9833 10.0833 13.3333 8.51111 13.3333 6.66667C13.3333 4.84444 13.9777 3.27778 15.2666 1.96667C16.5555 0.655556 18.1333 0 19.9999 0C21.8444 0 23.4166 0.65 24.7166 1.95C26.0166 3.25 26.6666 4.82222 26.6666 6.66667C26.6666 8.51111 26.0166 10.0833 24.7166 11.3833C23.4166 12.6833 21.8444 13.3333 19.9999 13.3333C19.9999 13.3333 19.9999 13.3333 19.9999 13.3333ZM19.3333 8.00002L20.6666 8.00002L20.6666 2.66669L19.3333 2.66669L19.3333 8.00002L19.3333 8.00002ZM19.9999 10.6666C20.1777 10.6666 20.3333 10.6 20.4666 10.4666C20.5999 10.3333 20.6666 10.1778 20.6666 9.99998C20.6666 9.8222 20.5999 9.66665 20.4666 9.53331C20.3333 9.39998 20.1777 9.33331 19.9999 9.33331C19.8221 9.33331 19.6666 9.39998 19.5333 9.53331C19.3999 9.66665 19.3333 9.8222 19.3333 9.99998C19.3333 10.1778 19.3999 10.3333 19.5333 10.4666C19.6666 10.6 19.8221 10.6666 19.9999 10.6666C19.9999 10.6666 19.9999 10.6666 19.9999 10.6666Z" fill="#191682" transform="translate(2.667 2.667)" />
  </g>
</svg>