<?xml version="1.0" encoding="utf-8"?>
<svg width="192.296" height="142.316" viewBox="0 0 192.296 142.316" fill="none" xmlns="http://www.w3.org/2000/svg">
  <g>
    <path d="M80.4368 61.2029C80.4368 61.2029 96.885 61.2029 96.885 61.2029C97.5944 61.2029 98.1702 61.7799 98.1702 62.4907C98.1702 62.4907 98.1702 98.2646 98.1702 98.2646C98.1702 98.967 97.5944 99.5441 96.885 99.5441C96.885 99.5441 84.9849 99.5441 84.9849 99.5441C84.2755 99.5441 83.708 98.9671 83.708 98.2646C83.708 97.5538 84.2755 96.9768 84.9849 96.9768C84.9849 96.9768 95.6667 96.9768 95.6667 96.9768L95.6667 92.0934C95.6667 92.0934 89.9835 92.0934 89.9835 92.0934C89.2742 92.0934 88.7067 91.5164 88.7067 90.8139C88.7067 90.1031 89.2742 89.5262 89.9835 89.5262C89.9835 89.5262 95.5998 89.5262 95.5998 89.5262L95.5998 63.8373L80.4282 63.8373C80.4282 63.8373 80.4365 63.8373 80.4365 63.8373C79.7272 63.8373 79.1514 63.2603 79.1514 62.5495C79.1514 61.8471 79.7272 61.2701 80.4365 61.2701C80.4365 61.2701 80.4368 61.2029 80.4368 61.2029ZM83.3409 55.0399C82.6316 55.0399 82.0558 54.4629 82.0558 53.7521C82.0558 53.7521 82.0558 17.9868 82.0558 17.9868C82.0558 17.276 82.6316 16.699 83.3409 16.699C83.3409 16.699 96.9103 16.699 96.9103 16.699C97.6113 16.699 98.1871 17.276 98.1871 17.9868C98.1871 17.9868 98.1871 53.7521 98.1871 53.7521C98.1871 54.4629 97.6113 55.0399 96.9103 55.0399C96.9103 55.0399 83.3409 55.0399 83.3409 55.0399ZM95.625 52.4727L95.625 47.5893L84.6009 47.5893L84.6009 52.4727L95.625 52.4727ZM84.6009 45.0219L95.5998 45.0219L95.5998 19.333L84.6009 19.333L84.6009 45.0219ZM104.254 53.7521C104.254 53.7521 104.254 17.9867 104.254 17.9867C104.254 17.2759 104.83 16.6989 105.539 16.6989C105.539 16.6989 119.108 16.6989 119.108 16.6989C119.108 16.6989 119.1 16.6989 119.1 16.6989C119.809 16.6989 120.385 17.2759 120.385 17.9867C120.385 17.9867 120.385 53.7521 120.385 53.7521C120.385 54.4629 119.809 55.0398 119.1 55.0398C119.1 55.0398 105.539 55.0398 105.539 55.0398C105.197 55.0398 104.871 54.9061 104.629 54.6635C104.387 54.421 104.254 54.0949 104.254 53.7521C104.254 53.7521 104.254 53.7521 104.254 53.7521ZM117.823 52.4643L117.823 47.5891L106.841 47.5891L106.841 52.4726L117.823 52.4643ZM106.841 45.0218L117.84 45.0218L117.84 19.3329L106.841 19.3329L106.841 45.0218ZM138.76 79.8088C138.76 79.8088 138.76 55.1646 138.76 55.1646C138.76 54.4538 139.328 53.8852 140.037 53.8852C140.037 53.8852 153.607 53.8852 153.607 53.8852C154.316 53.8852 154.883 54.4538 154.883 55.1646C154.883 55.1646 154.883 79.8088 154.883 79.8088C154.883 80.5196 154.316 81.0882 153.607 81.0882C153.607 81.0882 140.037 81.0882 140.037 81.0882C139.703 81.0882 139.37 80.9544 139.136 80.7119C138.894 80.4778 138.76 80.1516 138.76 79.8088C138.76 79.8088 138.76 79.8088 138.76 79.8088ZM152.33 78.5211L152.321 73.646L141.322 73.646L141.322 78.5294L152.33 78.5211ZM141.322 71.1372L152.321 71.1372L152.321 56.453L141.322 56.453L141.322 71.1372ZM162.236 81.1552C161.526 81.1552 160.95 80.5782 160.95 79.8674C160.95 79.8674 160.95 55.1654 160.95 55.1654C160.967 54.7222 161.192 54.3125 161.568 54.0867C161.944 53.8525 162.411 53.8191 162.811 54.0114C162.811 54.0114 176.381 60.6929 176.381 60.6929C176.815 60.9103 177.09 61.3619 177.082 61.8469C177.082 61.8469 177.082 79.809 177.082 79.809C177.082 80.5198 176.514 81.0884 175.805 81.0884C175.805 81.0884 162.236 81.1552 162.236 81.1552ZM174.52 78.588L174.52 73.6459L163.521 73.6459L163.521 78.5294L174.52 78.588ZM163.521 71.1372L174.52 71.1372L174.52 62.5743L163.521 57.2224L163.521 71.1372ZM153.607 115.339C153.607 115.339 140.037 115.339 140.037 115.339C139.328 115.339 138.761 114.771 138.761 114.06C138.761 114.06 138.761 89.4156 138.761 89.4156C138.761 88.7048 139.328 88.1361 140.037 88.1361C140.037 88.1361 153.607 88.1361 153.607 88.1361C154.316 88.1361 154.884 88.7048 154.884 89.4156C154.884 89.4156 154.884 114.06 154.884 114.06C154.884 114.403 154.75 114.729 154.508 114.963C154.274 115.205 153.949 115.339 153.607 115.339C153.607 115.339 153.607 115.339 153.607 115.339ZM141.323 105.388L152.322 105.388L152.322 90.704L141.323 90.704L141.323 105.388ZM152.322 112.839L152.322 107.897L141.323 107.897L141.323 112.78L152.322 112.839ZM160.867 89.4836C160.875 89.1407 161.009 88.8062 161.251 88.5637C161.501 88.3128 161.843 88.179 162.194 88.1958C162.194 88.1958 175.738 88.455 175.738 88.455C176.08 88.455 176.397 88.5888 176.639 88.8313C176.873 89.0738 177.006 89.3999 176.998 89.7428C176.998 89.7428 176.998 114.059 176.998 114.059C176.998 114.77 176.422 115.339 175.713 115.339C175.713 115.339 162.236 115.339 162.236 115.339C161.526 115.339 160.95 114.77 160.95 114.059C160.95 114.059 160.95 89.4152 160.95 89.4152C160.95 89.4152 160.867 89.4836 160.867 89.4836ZM174.436 112.839L174.436 107.897L163.521 107.897L163.521 112.78L174.436 112.839ZM163.521 105.388L174.52 105.388L174.52 90.9382L163.521 90.7208L163.521 105.388ZM192.295 48.8512C192.295 48.8512 192.295 55.8337 192.295 55.8337C192.295 56.1682 192.162 56.4943 191.92 56.7284C191.678 56.971 191.352 57.0964 191.01 57.0964C190.868 57.1131 190.727 57.1131 190.585 57.0964C190.585 57.0964 187.272 55.9424 187.272 55.9424C187.272 55.9424 187.272 124.656 187.272 124.656C187.272 125.367 186.704 125.944 185.995 125.944C185.995 125.944 143.159 125.944 143.159 125.944C142.449 125.944 141.873 125.367 141.873 124.656C141.873 123.945 142.449 123.368 143.159 123.368C143.159 123.368 184.709 123.368 184.709 123.368C184.709 123.368 184.709 55.8342 184.709 55.8342C184.717 55.5499 184.817 55.2823 184.984 55.0565C184.984 55.0565 131.133 36.1828 131.133 36.1828C131.133 36.1828 131.133 124.655 131.133 124.655C131.133 125.366 130.557 125.943 129.848 125.943C129.848 125.943 74.6697 125.943 74.6697 125.943C73.9603 125.943 73.3845 125.366 73.3845 124.655C73.3845 123.945 73.9603 123.368 74.6697 123.368C74.6697 123.368 104.254 123.368 104.254 123.368C104.254 123.368 104.254 62.8082 104.254 62.8082C104.254 62.0974 104.83 61.5287 105.539 61.5287C105.539 61.5287 119.109 61.5287 119.109 61.5287C119.109 61.5287 119.1 61.5287 119.1 61.5287C119.81 61.5287 120.385 62.0974 120.385 62.8082C120.385 62.8082 120.385 123.368 120.385 123.368L128.564 123.368L128.572 12.3509L51.6628 12.3509C51.6628 12.3509 51.6628 35.8991 51.6628 35.8991C51.6628 36.6099 51.087 37.1868 50.3776 37.1868C49.6683 37.1868 49.0925 36.6098 49.0925 35.8991C49.0925 35.8991 49.0925 12.3509 49.0925 12.3509C49.0925 12.3509 46.105 12.3509 46.105 12.3509C45.3956 12.3509 44.8198 11.7739 44.8198 11.0715C44.8198 11.0715 44.8198 7.14964 44.8198 7.14964C44.8365 3.21111 48.0244 0.016696 51.9549 0C51.9549 0 128.204 0 128.204 0C132.143 0.0167245 135.331 3.21111 135.339 7.14964C135.339 7.14964 135.339 11.0715 135.339 11.0715C135.339 11.7739 134.763 12.3509 134.054 12.3509C134.054 12.3509 131.066 12.3509 131.066 12.3509L131.066 22.3272L187.447 42.104C187.447 42.104 187.447 42.1124 187.447 42.1124C190.334 43.0907 192.279 45.8002 192.295 48.8523C192.295 48.8523 192.295 48.8512 192.295 48.8512ZM106.841 64.0957L106.841 70.8859L117.84 70.8859L117.84 64.0957L106.841 64.0957ZM117.823 123.368L117.823 73.4293L106.841 73.4293L106.841 123.368L117.823 123.368ZM40.1471 61.8715C30.6419 61.8715 22.0715 67.608 18.4331 76.4052C14.7946 85.2023 16.8057 95.3289 23.5236 102.068C30.2497 108.8 40.3558 110.815 49.1343 107.169C57.9218 103.523 63.6466 94.9354 63.6466 85.4194C63.6466 72.4078 53.1233 61.8712 40.1466 61.8712C40.1466 61.8712 40.1471 61.8715 40.1471 61.8715ZM80.2872 85.4196C80.2705 97.0432 75.23 108.099 66.4675 115.724C62.3952 119.144 58.6732 122.966 55.3518 127.113C55.3518 127.113 45.613 139.64 45.613 139.64C44.3028 141.329 42.2832 142.316 40.1469 142.316C38.0189 142.308 36.0077 141.321 34.6974 139.64C34.6974 139.64 24.291 126.327 24.291 126.327C21.2952 122.573 17.9152 119.144 14.2099 116.092C4.83834 108.19 -0.394045 96.4155 0.0231864 84.1478C0.432108 70.0741 8.16807 57.2472 20.4188 50.3391C32.6613 43.4317 47.6233 43.4654 59.8412 50.4143C59.8412 50.4143 59.8412 17.9864 59.8412 17.9864C59.8328 17.6435 59.9663 17.3174 60.2 17.0749C60.442 16.8324 60.7675 16.6986 61.1013 16.6986C61.1013 16.6986 74.6706 16.6986 74.6706 16.6986C75.3716 16.6986 75.9474 17.2756 75.9474 17.9864C75.9474 17.9864 75.9474 53.7517 75.9474 53.7517C75.9474 54.4625 75.3716 55.0395 74.6706 55.0395C74.6706 55.0395 71.5913 55.0395 71.5913 55.0395C70.8819 55.0395 70.3061 54.4625 70.3061 53.7517C70.3061 53.0409 70.8819 52.4723 71.5913 52.4723C71.5913 52.4723 73.3855 52.4723 73.3855 52.4723L73.3855 47.5888L62.3866 47.5888L62.3866 51.8703C62.3866 51.8703 62.3866 52.0208 62.3866 52.0208C64.2977 53.3003 66.1086 54.7302 67.7858 56.3023C75.7972 63.8534 80.3203 74.3982 80.287 85.4207C80.287 85.4207 80.2872 85.4196 80.2872 85.4196ZM62.3869 45.0217L73.3857 45.0217L73.3857 19.3328L62.3869 19.3328L62.3869 45.0217ZM77.7253 85.4196C77.7253 75.435 73.7696 65.8603 66.7265 58.8016C59.6833 51.743 50.128 47.7802 40.1629 47.7802C40.1629 47.7802 38.0266 47.7802 38.0266 47.7802C28.655 48.3321 19.8258 52.3711 13.2576 59.1028C6.69828 65.826 2.87611 74.7737 2.54241 84.173C2.16688 95.6294 7.05719 106.634 15.8111 114.017C19.65 117.212 23.1382 120.799 26.2343 124.721C26.2343 124.721 36.6407 138.034 36.6407 138.034C37.4752 139.087 38.7437 139.706 40.0873 139.706C41.4309 139.706 42.7078 139.087 43.5422 138.034C43.5422 138.034 53.4312 125.532 53.4312 125.532C56.8695 121.259 60.6998 117.329 64.8809 113.783C73.0591 106.634 77.7407 96.2892 77.724 85.4183C77.724 85.4183 77.7253 85.4196 77.7253 85.4196Z" fill="#000000" />
  </g>
</svg>