<?xml version="1.0" encoding="utf-8"?>
<svg width="48" height="48" viewBox="0 0 48 48" fill="none" xmlns="http://www.w3.org/2000/svg">
  <g>
    <path d="M0 36C0 36 0 8 0 8L8 8L8 0L28 0L28 16L36 16L36 36L20 36L20 28L16 28L16 36C16 36 0 36 0 36ZM4 32L8 32L8 28L4 28L4 32L4 32ZM4 24L8 24L8 20L4 20L4 24L4 24ZM4 16L8 16L8 12L4 12L4 16L4 16ZM12 24L16 24L16 20L12 20L12 24L12 24ZM12 16L16 16L16 12L12 12L12 16L12 16ZM12 8L16 8L16 4L12 4L12 8L12 8ZM20 24L24 24L24 20L20 20L20 24L20 24ZM20 16L24 16L24 12L20 12L20 16L20 16ZM20 8L24 8L24 4L20 4L20 8L20 8ZM28 32L32 32L32 28L28 28L28 32L28 32ZM28 24L32 24L32 20L28 20L28 24L28 24Z" fill="#FFFFFF" transform="translate(6 6)" />
  </g>
</svg>