<?xml version="1.0" encoding="utf-8"?>
<svg width="120" height="133" viewBox="0 0 120 133" fill="none" xmlns="http://www.w3.org/2000/svg">
  <g>
    <path d="M2.08861 0.0104616C1.88417 0.0104616 1.67973 0.0435813 1.48081 0.104302C1.43108 0.126383 1.38135 0.142943 1.33715 0.170543C1.19349 0.220223 1.05535 0.291985 0.928272 0.374783C0.873019 0.413424 0.823289 0.452065 0.773553 0.496225C0.668571 0.584546 0.574644 0.678393 0.486238 0.783261C0.436509 0.838461 0.392306 0.899182 0.348103 0.959903C0.281797 1.0703 0.221017 1.18623 0.171289 1.30215C0.143662 1.37391 0.110509 1.44015 0.0884068 1.51192C0.0331532 1.69959 0 1.89832 0 2.09704C0 2.09704 0 118.322 0 118.322C0 126.425 6.59741 133 14.7081 133C14.7081 133 105.292 133 105.292 133C113.403 133 120 126.42 120 118.322C120 118.322 120 59.4505 120 59.4505C120.005 58.8985 119.784 58.3686 119.398 57.9766C119.005 57.5847 118.475 57.3639 117.922 57.3639C117.922 57.3639 94.7371 57.3639 94.7371 57.3639L94.7371 2.09762C94.7371 2.09762 94.7426 2.09762 94.7426 2.09762C94.7426 2.0369 94.7371 1.97618 94.7316 1.91545C94.7316 1.86025 94.7205 1.79953 94.715 1.73881C94.7094 1.72225 94.7094 1.70569 94.7039 1.69465C94.6984 1.64497 94.6873 1.60081 94.6708 1.55665C94.6597 1.49593 94.6376 1.44073 94.621 1.38553C94.61 1.35241 94.5989 1.32481 94.5879 1.29721C94.5824 1.28617 94.5768 1.27513 94.5658 1.25857C94.5437 1.20889 94.5216 1.16473 94.4995 1.11505C94.4995 1.11505 94.494 1.10953 94.494 1.10953C94.4608 1.04881 94.4277 0.993612 94.3945 0.938416C94.3834 0.927376 94.3779 0.910816 94.3669 0.899776C94.2619 0.750732 94.1403 0.61274 93.9967 0.496806C93.9525 0.458165 93.9027 0.425046 93.8585 0.386405C93.842 0.375364 93.8309 0.364325 93.8143 0.358803C93.8033 0.347764 93.7922 0.342244 93.7812 0.331204C93.737 0.303604 93.6872 0.276004 93.643 0.248404C93.6099 0.231843 93.5712 0.215283 93.5381 0.198722C93.5104 0.187683 93.4828 0.171122 93.4552 0.160083C93.4276 0.149042 93.3999 0.138001 93.3668 0.126962C93.3336 0.115922 93.3005 0.104881 93.2618 0.0883209C93.2563 0.0883209 93.2452 0.0828012 93.2342 0.0828012C93.1789 0.0662407 93.1236 0.0552013 93.0629 0.0441605C93.0518 0.0386407 93.0352 0.0386407 93.0187 0.033121C93.0187 0.033121 92.98 0.033121 92.98 0.033121C92.9358 0.0220802 92.8861 0.0110408 92.8363 0.00551972C92.7756 0 92.7148 0 92.654 0C92.654 0 2.08861 0.0104616 2.08861 0.0104616ZM4.16065 4.16704L90.5843 4.16704C90.5843 4.16704 90.5843 118.316 90.5843 118.316C90.5843 122.439 92.2972 126.165 95.0433 128.837C95.0433 128.837 14.7091 128.837 14.7091 128.837C8.82442 128.837 4.16107 124.189 4.16107 118.316C4.16107 118.316 4.16065 4.16704 4.16065 4.16704ZM46.6794 16.8963C33.4184 16.8963 22.6157 27.6052 22.6157 40.7811C22.6157 53.957 33.4179 64.6659 46.6794 64.6659C59.9408 64.6659 70.7543 53.957 70.7543 40.7811C70.7543 27.6052 59.9411 16.8963 46.6794 16.8963C46.6794 16.8963 46.6794 16.8963 46.6794 16.8963ZM46.6794 21.0584C57.7082 21.0584 66.5928 29.8685 66.5928 40.7815C66.5928 51.6948 57.708 60.5103 46.6794 60.5103C35.6507 60.5103 26.7773 51.6948 26.7773 40.7816C26.7773 29.8683 35.651 21.0584 46.6794 21.0584C46.6794 21.0584 46.6794 21.0584 46.6794 21.0584ZM46.6793 26.9206C46.6793 26.9206 46.6738 26.9206 46.6738 26.9206C45.53 26.9206 44.6018 27.8425 44.6018 28.9906C44.6018 28.9906 44.6018 29.8738 44.6018 29.8738C41.6015 30.4534 39.3195 33.1582 39.3195 36.3212C39.3195 39.8982 42.2258 42.8735 45.8007 42.8735C45.8007 42.8735 46.6793 42.8735 46.6793 42.8735L46.6737 42.868L46.7677 42.868C46.7677 42.868 47.5468 42.868 47.5468 42.868C48.8508 42.868 49.8784 43.8782 49.8784 45.2637C49.8784 46.6492 48.8507 47.6539 47.5468 47.6539C47.5468 47.6539 42.7838 47.6539 42.7838 47.6539C42.7838 47.6539 42.7894 47.6539 42.7894 47.6539C42.2368 47.6539 41.7064 47.8747 41.3195 48.2666C40.9328 48.6585 40.7117 49.1884 40.7173 49.7405C40.7173 50.8831 41.6455 51.8049 42.7892 51.8105C42.7892 51.8105 44.6015 51.8105 44.6015 51.8105C44.6015 51.8105 44.6015 52.5777 44.6015 52.5777C44.596 53.1297 44.817 53.6597 45.2038 54.0516C45.5906 54.4436 46.121 54.6644 46.6736 54.6644C47.2317 54.6699 47.7621 54.4491 48.1545 54.0572C48.5468 53.6652 48.7623 53.1353 48.7623 52.5777C48.7623 52.5777 48.7623 51.6945 48.7623 51.6945C51.7626 51.1094 54.0446 48.4211 54.0446 45.2636C54.0446 41.6867 51.1217 38.7113 47.5466 38.7113C47.5466 38.7113 45.795 38.7113 45.795 38.7113C44.491 38.7113 43.4744 37.7012 43.4744 36.3157C43.4744 34.9301 44.4911 33.909 45.795 33.909C45.795 33.909 50.558 33.909 50.558 33.909C51.7017 33.909 52.6244 32.9816 52.63 31.839C52.63 31.2925 52.4145 30.7626 52.0277 30.3706C51.6354 29.9787 51.1105 29.7579 50.5579 29.7579C50.5579 29.7579 48.7621 29.7579 48.7621 29.7579C48.7621 29.7579 48.7621 28.9851 48.7621 28.9851C48.7566 27.8424 47.8228 26.9151 46.6735 26.9206C46.6735 26.9206 46.6793 26.9206 46.6793 26.9206ZM94.75 61.5198L115.846 61.5198C115.846 61.5198 115.846 118.321 115.846 118.321C115.846 124.189 111.183 128.842 105.298 128.842C99.4134 128.842 94.75 124.194 94.75 118.321C94.75 118.321 94.75 61.5198 94.75 61.5198ZM22.1234 75.5684C21.5654 75.5684 21.0349 75.7837 20.6426 76.1756C20.2503 76.5675 20.0293 77.103 20.0348 77.655C20.0348 78.207 20.2558 78.7314 20.6481 79.1234C21.0404 79.5098 21.5708 79.7251 22.1234 79.7251C22.1234 79.7251 29.218 79.7251 29.218 79.7251C29.218 79.7251 29.2125 79.7251 29.2125 79.7251C30.3563 79.7196 31.2845 78.7977 31.2845 77.6551C31.29 77.1031 31.069 76.5732 30.6822 76.1812C30.2954 75.7893 29.765 75.5685 29.2124 75.5685C29.2124 75.5685 22.1234 75.5684 22.1234 75.5684ZM37.7213 75.5684C37.1632 75.5684 36.6328 75.7837 36.2404 76.1756C35.8481 76.5675 35.6326 77.103 35.6326 77.655C35.6326 78.2071 35.8536 78.7314 36.2459 79.1234C36.6382 79.5098 37.1687 79.7251 37.7213 79.7251C37.7213 79.7251 72.637 79.7251 72.637 79.7251C73.7808 79.7196 74.7035 78.7977 74.709 77.6551C74.709 77.1031 74.4935 76.5732 74.1067 76.1812C73.7144 75.7893 73.1895 75.5685 72.6369 75.5685C72.6369 75.5685 37.7213 75.5684 37.7213 75.5684ZM22.1234 90.8472C21.5709 90.8472 21.0405 91.0625 20.6481 91.4489C20.2558 91.8408 20.0348 92.3652 20.0348 92.9173C20.0293 93.4693 20.2503 94.0047 20.6426 94.3967C21.0349 94.7886 21.5653 95.0039 22.1234 95.0039C22.1234 95.0039 29.218 95.0039 29.218 95.0039C29.218 95.0039 29.2125 95.0039 29.2125 95.0039C29.7651 95.0039 30.2955 94.7831 30.6823 94.3912C31.0691 93.9992 31.2901 93.4693 31.2846 92.9173C31.2846 91.7746 30.3563 90.8528 29.2126 90.8473C29.2126 90.8473 22.1234 90.8472 22.1234 90.8472ZM37.7213 90.8472C37.1687 90.8472 36.6383 91.0625 36.2459 91.4489C35.8536 91.8408 35.6326 92.3652 35.6326 92.9173C35.6326 93.4693 35.8481 94.0047 36.2404 94.3967C36.6327 94.7886 37.1632 95.0039 37.7213 95.0039C37.7213 95.0039 72.637 95.0039 72.637 95.0039C73.1896 95.0039 73.7145 94.7831 74.1068 94.3912C74.4936 93.9992 74.7091 93.4693 74.7091 92.9173C74.7036 91.7746 73.7808 90.8528 72.6371 90.8473C72.6371 90.8473 37.7213 90.8472 37.7213 90.8472ZM22.1234 106.105C21.5654 106.105 21.0349 106.326 20.6426 106.718C20.2503 107.109 20.0293 107.639 20.0348 108.191C20.0348 108.743 20.2558 109.273 20.6481 109.66C21.0404 110.046 21.5708 110.267 22.1234 110.262C22.1234 110.262 29.218 110.262 29.218 110.262C29.218 110.262 29.2125 110.262 29.2125 110.262C30.3563 110.256 31.2845 109.334 31.2845 108.192C31.29 107.64 31.069 107.11 30.6822 106.723C30.2954 106.331 29.765 106.11 29.2124 106.105C29.2124 106.105 22.1234 106.105 22.1234 106.105ZM37.7213 106.105C37.1632 106.105 36.6328 106.326 36.2404 106.718C35.8481 107.109 35.6326 107.639 35.6326 108.191C35.6326 108.743 35.8536 109.273 36.2459 109.66C36.6382 110.046 37.1687 110.267 37.7213 110.262C37.7213 110.262 72.637 110.262 72.637 110.262C73.7808 110.256 74.7035 109.334 74.709 108.192C74.709 107.64 74.4935 107.11 74.1067 106.723C73.7144 106.331 73.1895 106.11 72.6369 106.105C72.6369 106.105 37.7213 106.105 37.7213 106.105Z" fill="#1C139D" transform="translate(0 0)" />
  </g>
</svg>