<?xml version="1.0" encoding="utf-8"?>
<svg width="120" height="138" viewBox="0 0 120 138" fill="none" xmlns="http://www.w3.org/2000/svg">
  <g>
    <g>
      <path d="M118.446 0.116657C117.51 -0.193654 116.481 0.129039 115.887 0.918971C115.887 0.918971 110.861 7.63548 110.861 7.63548C110.861 7.63548 105.834 0.918971 105.834 0.918971C105.382 0.374449 104.712 0.0595669 104.006 0.0595669C103.3 0.0595669 102.63 0.374449 102.178 0.918971C102.178 0.918971 97.1515 7.63548 97.1515 7.63548C97.1515 7.63548 92.1249 0.918971 92.1249 0.918971C91.673 0.374449 91.0032 0.0595669 90.297 0.0595669C89.5907 0.0595669 88.921 0.374449 88.4691 0.918971C88.4691 0.918971 83.4424 7.63548 83.4424 7.63548C83.4424 7.63548 78.4158 0.918971 78.4158 0.918971C77.9639 0.374449 77.2941 0.0595669 76.5879 0.0595669C75.8816 0.0595669 75.2119 0.374449 74.76 0.918971C74.76 0.918971 69.7333 7.63548 69.7333 7.63548C69.7333 7.63548 64.7067 0.918971 64.7067 0.918971C64.2548 0.374449 63.585 0.0595669 62.8788 0.0595669C62.1725 0.0595669 61.5028 0.374449 61.0509 0.918971C61.0509 0.918971 56.0243 7.63548 56.0243 7.63548C56.0243 7.63548 50.9976 0.918971 50.9976 0.918971C50.5457 0.374447 49.876 0.0595636 49.1697 0.0595636C48.4635 0.0595636 47.7937 0.374447 47.3418 0.918971C47.3418 0.918971 42.3152 7.63548 42.3152 7.63548C42.3152 7.63548 37.2885 0.918971 37.2885 0.918971C36.8366 0.374447 36.1669 0.0595636 35.4606 0.0595636C34.7544 0.0595636 34.0846 0.374447 33.6327 0.918971C33.6327 0.918971 28.6061 7.63548 28.6061 7.63548C28.6061 7.63548 23.5794 0.918971 23.5794 0.918971C22.9893 0.129621 21.962 -0.192343 21.029 0.119675C20.096 0.431692 19.4667 1.30768 19.4667 2.29437C19.4667 2.29437 19.4667 48.4847 19.4667 48.4847C19.4667 48.4847 5.20923 73.2418 5.20923 73.2418C1.0448 80.4303 -0.694211 88.7759 0.251114 97.0362C0.251114 97.0362 3.4499 125.988 3.4499 125.988L1.2336 137.083L5.7119 138C5.7119 138 7.99675 126.538 7.99675 126.538C8.04992 126.305 8.05768 126.064 8.0196 125.828C8.0196 125.828 4.77511 96.5318 4.77511 96.5318C3.95976 89.2391 5.50594 81.8768 9.18488 75.5341C9.18488 75.5341 19.4667 57.654 19.4667 57.654L19.4667 87.3855L18.1643 89.6319L22.14 91.9243C22.14 91.9243 33.5642 72.0727 33.5642 72.0727C34.1578 71.0093 35.155 70.232 36.3289 69.918C37.5045 69.6129 38.7527 69.7859 39.8018 70.3994C41.2248 71.2069 42.0994 72.725 42.0867 74.3651C42.0909 75.171 41.8778 75.9631 41.4698 76.6574C41.4698 76.6574 33.4728 90.5488 33.4728 90.5488C33.1322 91.1596 33.0819 91.8913 33.3358 92.5432C33.3358 92.5432 36.2604 99.9245 36.2604 99.9245C37.2476 102.355 37.752 104.956 37.7455 107.581C37.7455 107.581 37.7455 110.561 37.7455 110.561C37.7539 114.309 36.7345 117.989 34.7986 121.196C34.7986 121.196 31.4399 126.79 31.4399 126.79C31.4399 126.79 31.1885 127.225 31.1885 127.225C30.9967 127.577 30.8945 127.971 30.8909 128.372C30.8909 128.372 30.8909 137.542 30.8909 137.542L35.4606 137.542C35.4606 137.542 35.4606 132.957 35.4606 132.957C36.1786 132.952 36.8537 132.613 37.2885 132.04C37.2885 132.04 42.3152 125.323 42.3152 125.323C42.3152 125.323 47.3418 132.04 47.3418 132.04C47.7937 132.584 48.4635 132.899 49.1697 132.899C49.876 132.899 50.5457 132.584 50.9976 132.04C50.9976 132.04 56.0243 125.323 56.0243 125.323C56.0243 125.323 61.0509 132.04 61.0509 132.04C61.5028 132.584 62.1725 132.899 62.8788 132.899C63.585 132.899 64.2548 132.584 64.7067 132.04C64.7067 132.04 69.7333 125.323 69.7333 125.323C69.7333 125.323 74.76 132.04 74.76 132.04C75.2119 132.584 75.8816 132.899 76.5879 132.899C77.2941 132.899 77.9639 132.584 78.4158 132.04C78.4158 132.04 83.4424 125.323 83.4424 125.323C83.4424 125.323 88.4691 132.04 88.4691 132.04C88.921 132.584 89.5907 132.899 90.297 132.899C91.0032 132.899 91.673 132.584 92.1249 132.04C92.1249 132.04 97.1515 125.323 97.1515 125.323C97.1515 125.323 102.178 132.04 102.178 132.04C102.63 132.584 103.3 132.899 104.006 132.899C104.712 132.899 105.382 132.584 105.834 132.04C105.834 132.04 110.861 125.323 110.861 125.323C110.861 125.323 115.887 132.04 115.887 132.04C116.315 132.622 116.995 132.962 117.715 132.957C117.963 132.952 118.209 132.914 118.446 132.842C119.371 132.519 119.993 131.647 120 130.665C120 130.665 120 2.29437 120 2.29437C119.993 1.31199 119.371 0.440214 118.446 0.116654C118.446 0.116654 118.446 0.116657 118.446 0.116657ZM115.43 123.788C115.43 123.788 112.688 120.12 112.688 120.12C112.237 119.575 111.567 119.26 110.861 119.26C110.154 119.26 109.485 119.575 109.033 120.12C109.033 120.12 104.006 126.836 104.006 126.836C104.006 126.836 98.9794 120.12 98.9794 120.12C98.5275 119.575 97.8578 119.26 97.1515 119.26C96.4453 119.26 95.7755 119.575 95.3236 120.12C95.3236 120.12 90.297 126.836 90.297 126.836C90.297 126.836 85.2703 120.12 85.2703 120.12C84.8184 119.575 84.1487 119.26 83.4424 119.26C82.7362 119.26 82.0665 119.575 81.6146 120.12C81.6146 120.12 76.5879 126.836 76.5879 126.836C76.5879 126.836 71.5612 120.12 71.5612 120.12C71.1093 119.575 70.4396 119.26 69.7333 119.26C69.0271 119.26 68.3574 119.575 67.9055 120.12C67.9055 120.12 62.8788 126.836 62.8788 126.836C62.8788 126.836 57.8521 120.12 57.8521 120.12C57.4002 119.575 56.7305 119.26 56.0243 119.26C55.318 119.26 54.6483 119.575 54.1964 120.12C54.1964 120.12 49.1697 126.836 49.1697 126.836C49.1697 126.836 44.143 120.12 44.143 120.12C43.6911 119.575 43.0214 119.26 42.3152 119.26C41.6089 119.26 40.9392 119.575 40.4873 120.12C40.4873 120.12 40.3502 120.303 40.3502 120.303C41.6422 117.219 42.3101 113.907 42.3152 110.561C42.3152 110.561 42.3152 107.581 42.3152 107.581C42.3196 104.369 41.7069 101.186 40.5106 98.2063C40.5106 98.2063 37.9972 91.8795 37.9972 91.8795C37.9972 91.8795 45.4458 78.9508 45.4458 78.9508C47.9696 74.5577 46.4658 68.9438 42.0871 66.4118C37.7084 63.8797 32.1128 65.3884 29.589 69.7815C29.589 69.7815 24.0364 79.4311 24.0364 79.4311L24.0364 9.17135C24.0364 9.17135 26.7782 12.8391 26.7782 12.8391C27.2301 13.3836 27.8998 13.6985 28.6061 13.6985C29.3123 13.6985 29.9821 13.3836 30.434 12.8391C30.434 12.8391 35.4606 6.12256 35.4606 6.12256C35.4606 6.12256 40.4873 12.8391 40.4873 12.8391C40.9392 13.3836 41.6089 13.6985 42.3152 13.6985C43.0214 13.6985 43.6911 13.3836 44.143 12.8391C44.143 12.8391 49.1697 6.12256 49.1697 6.12256C49.1697 6.12256 54.1964 12.8391 54.1964 12.8391C54.6483 13.3836 55.318 13.6985 56.0243 13.6985C56.7305 13.6985 57.4002 13.3836 57.8521 12.8391C57.8521 12.8391 62.8788 6.12256 62.8788 6.12256C62.8788 6.12256 67.9055 12.8391 67.9055 12.8391C68.3574 13.3836 69.0271 13.6985 69.7333 13.6985C70.4396 13.6985 71.1093 13.3836 71.5612 12.8391C71.5612 12.8391 76.5879 6.12256 76.5879 6.12256C76.5879 6.12256 81.6146 12.8391 81.6146 12.8391C82.0665 13.3836 82.7362 13.6985 83.4424 13.6985C84.1487 13.6985 84.8184 13.3836 85.2703 12.8391C85.2703 12.8391 90.297 6.12256 90.297 6.12256C90.297 6.12256 95.3236 12.8391 95.3236 12.8391C95.7755 13.3836 96.4453 13.6985 97.1515 13.6985C97.8578 13.6985 98.5275 13.3836 98.9794 12.8391C98.9794 12.8391 104.006 6.12256 104.006 6.12256C104.006 6.12256 109.033 12.8391 109.033 12.8391C109.485 13.3836 110.154 13.6985 110.861 13.6985C111.567 13.6985 112.237 13.3836 112.688 12.8391C112.688 12.8391 115.43 9.17135 115.43 9.17135L115.43 123.788Z" fill="#1C139D" />
      <rect width="9.139" height="4.585" fill="#1C139D" fill-rule="evenodd" transform="translate(69.733 36.679)" />
      <rect width="22.848" height="4.585" fill="#1C139D" fill-rule="evenodd" transform="translate(83.442 36.679)" />
      <rect width="36.558" height="4.585" fill="#1C139D" fill-rule="evenodd" transform="translate(69.733 45.849)" />
      <rect width="47.982" height="4.585" fill="#1C139D" fill-rule="evenodd" transform="translate(44.6 59.602)" />
      <rect width="9.139" height="4.585" fill="#1C139D" fill-rule="evenodd" transform="translate(97.152 59.602)" />
      <rect width="43.412" height="4.585" fill="#1C139D" fill-rule="evenodd" transform="translate(49.17 68.772)" />
      <rect width="9.139" height="4.585" fill="#1C139D" fill-rule="evenodd" transform="translate(97.152 68.772)" />
      <rect width="43.412" height="4.585" fill="#1C139D" fill-rule="evenodd" transform="translate(49.17 77.941)" />
      <rect width="9.139" height="4.585" fill="#1C139D" fill-rule="evenodd" transform="translate(97.152 77.941)" />
      <rect width="47.982" height="4.585" fill="#1C139D" fill-rule="evenodd" transform="translate(44.6 87.11)" />
      <rect width="9.139" height="4.585" fill="#1C139D" fill-rule="evenodd" transform="translate(97.152 87.11)" />
      <rect width="47.982" height="4.585" fill="#1C139D" fill-rule="evenodd" transform="translate(44.6 96.28)" />
      <rect width="9.139" height="4.585" fill="#1C139D" fill-rule="evenodd" transform="translate(97.152 96.28)" />
      <path d="M0 20.6309C0 24.429 3.06889 27.5079 6.85455 27.5079C6.85455 27.5079 6.85455 32.0925 6.85455 32.0925L11.4242 32.0925C11.4242 32.0925 11.4242 27.5079 11.4242 27.5079C15.2099 27.5079 18.2788 24.429 18.2788 20.6309C18.2788 16.8329 15.2099 13.754 11.4242 13.754C11.4242 13.754 11.4242 9.1693 11.4242 9.1693C12.6861 9.1693 13.7091 10.1956 13.7091 11.4616C13.7091 11.4616 18.2788 11.4616 18.2788 11.4616C18.2788 7.66358 15.2099 4.58465 11.4242 4.58465C11.4242 4.58465 11.4242 0 11.4242 0L6.85455 0C6.85455 0 6.85455 4.58465 6.85455 4.58465C3.06889 4.58465 0 7.66358 0 11.4616C0 15.2597 3.06889 18.3386 6.85455 18.3386C6.85455 18.3386 6.85455 22.9232 6.85455 22.9232C5.59266 22.9232 4.5697 21.8969 4.5697 20.6309C4.5697 20.6309 0 20.6309 0 20.6309ZM0 11.4616C0 10.1956 1.02296 9.16931 2.28485 9.16931C2.28485 9.16931 2.28485 13.754 2.28485 13.754C2.28485 12.4879 3.30781 11.4616 4.5697 11.4616C4.5697 11.4616 0 11.4616 0 11.4616ZM6.85452 18.3386C8.11641 18.3386 9.13937 19.3649 9.13937 20.6309C9.13937 21.8969 8.11641 22.9232 6.85452 22.9232C6.85452 22.9232 6.85452 18.3386 6.85452 18.3386Z" fill="#1C139D" transform="translate(44.6 22.925)" />
    </g>
  </g>
</svg>