<?xml version="1.0" encoding="utf-8"?>
<svg width="48" height="48" viewBox="0 0 48 48" fill="none" xmlns="http://www.w3.org/2000/svg">
  <g>
    <path d="M10 30L13 30L13 26L17 26L17 23L13 23L13 19L10 19L10 23L6 23L6 26L10 26L10 30L10 30ZM20 28.5L30 28.5L30 25.5L20 25.5L20 28.5L20 28.5ZM20 23.5L30 23.5L30 20.5L20 20.5L20 23.5L20 23.5ZM22.2 15.9L25 13.1L27.8 15.9L29.9 13.8L27.1 10.9L29.9 8.1L27.8 6L25 8.8L22.2 6L20.1 8.1L22.9 10.9L20.1 13.8L22.2 15.9L22.2 15.9ZM6.5 12.4L16.5 12.4L16.5 9.4L6.5 9.4L6.5 12.4L6.5 12.4ZM4 36C2.9 36 1.95833 35.6083 1.175 34.825C0.391667 34.0417 0 33.1 0 32C0 32 0 4 0 4C0 2.9 0.391667 1.95833 1.175 1.175C1.95833 0.391665 2.9 0 4 0C4 0 32 0 32 0C33.1 0 34.0417 0.391665 34.825 1.175C35.6083 1.95833 36 2.9 36 4C36 4 36 32 36 32C36 33.1 35.6083 34.0417 34.825 34.825C34.0417 35.6083 33.1 36 32 36C32 36 4 36 4 36C4 36 4 36 4 36ZM4 32L32 32L32 4L4 4L4 32L4 32ZM4 4L4 32L4 4L4 4Z" fill="#FFFFFF" transform="translate(6 6)" />
  </g>
</svg>