<?xml version="1.0" encoding="utf-8"?>
<svg width="32" height="32" viewBox="0 0 32 32" fill="none" xmlns="http://www.w3.org/2000/svg">
  <g>
    <path d="M4 18.6667C4 18.6667 4 20 4 20C4 20.3778 3.87222 20.6944 3.61667 20.95C3.36111 21.2056 3.04444 21.3333 2.66667 21.3333C2.66667 21.3333 1.33333 21.3333 1.33333 21.3333C0.955556 21.3333 0.638889 21.2056 0.383333 20.95C0.127778 20.6944 0 20.3778 0 20C0 20 0 9.33333 0 9.33333C0 9.33333 2.8 1.33333 2.8 1.33333C2.93333 0.933333 3.17222 0.61111 3.51667 0.366667C3.86111 0.122223 4.24444 0 4.66667 0C4.66667 0 19.3333 0 19.3333 0C19.7556 0 20.1389 0.122223 20.4833 0.366667C20.8278 0.61111 21.0667 0.933333 21.2 1.33333C21.2 1.33333 24 9.33333 24 9.33333C24 9.33333 24 20 24 20C24 20.3778 23.8722 20.6944 23.6167 20.95C23.3611 21.2056 23.0444 21.3333 22.6667 21.3333C22.6667 21.3333 21.3333 21.3333 21.3333 21.3333C20.9556 21.3333 20.6389 21.2056 20.3833 20.95C20.1278 20.6944 20 20.3778 20 20C20 20 20 18.6667 20 18.6667C20 18.6667 4 18.6667 4 18.6667ZM3.7334 6.66669L20.2667 6.66669L18.8667 2.66669L5.1334 2.66669L3.7334 6.66669L3.7334 6.66669ZM2.66675 9.33331L2.66675 16L2.66675 9.33331L2.66675 9.33331ZM6 14.6667C6.55556 14.6667 7.02778 14.4722 7.41667 14.0834C7.80556 13.6945 8 13.2222 8 12.6667C8 12.1111 7.80556 11.6389 7.41667 11.25C7.02778 10.8611 6.55556 10.6667 6 10.6667C5.44444 10.6667 4.97222 10.8611 4.58333 11.25C4.19444 11.6389 4 12.1111 4 12.6667C4 13.2222 4.19444 13.6945 4.58333 14.0834C4.97222 14.4722 5.44444 14.6667 6 14.6667C6 14.6667 6 14.6667 6 14.6667ZM18 14.6667C18.5556 14.6667 19.0278 14.4722 19.4167 14.0834C19.8056 13.6945 20 13.2222 20 12.6667C20 12.1111 19.8056 11.6389 19.4167 11.25C19.0278 10.8611 18.5556 10.6667 18 10.6667C17.4444 10.6667 16.9722 10.8611 16.5833 11.25C16.1944 11.6389 16 12.1111 16 12.6667C16 13.2222 16.1944 13.6945 16.5833 14.0834C16.9722 14.4722 17.4444 14.6667 18 14.6667C18 14.6667 18 14.6667 18 14.6667ZM13.3333 29.3334L5.33325 25.3334L10.6666 25.3334L10.6666 22.6667L18.6666 26.6667L13.3333 26.6667L13.3333 29.3334L13.3333 29.3334ZM2.66675 16L21.3334 16L21.3334 9.33331L2.66675 9.33331L2.66675 16L2.66675 16Z" fill="#191682" transform="translate(4 1.333)" />
  </g>
</svg>