<?xml version="1.0" encoding="utf-8"?>
<svg width="32" height="32" viewBox="0 0 32 32" fill="none" xmlns="http://www.w3.org/2000/svg">
  <g transform="translate(0 0)">
    <path d="M8.66659 21.3333C7.55547 21.3333 6.61103 20.9444 5.83325 20.1667C5.05547 19.3889 4.66658 18.4444 4.66658 17.3333C4.66658 17.3333 1.33325 17.3333 1.33325 17.3333L1.93325 14.6667C1.93325 14.6667 5.69992 14.6667 5.69992 14.6667C6.0777 14.2444 6.52214 13.9167 7.03325 13.6833C7.54436 13.45 8.08881 13.3333 8.66659 13.3333C9.24436 13.3333 9.78881 13.45 10.2999 13.6833C10.811 13.9167 11.2555 14.2444 11.6333 14.6667C11.6333 14.6667 17.1999 14.6667 17.1999 14.6667L19.9999 2.66667L5.39992 2.66667C5.39992 2.66667 5.53325 2.1 5.53325 2.1C5.66659 1.47778 5.97214 0.972223 6.44992 0.583333C6.9277 0.194444 7.48881 0 8.13325 0C8.13325 0 23.3333 0 23.3333 0L22.0999 5.33333L25.9999 5.33333L29.9999 10.6667L28.6666 17.3333C28.6666 17.3333 25.9999 17.3333 25.9999 17.3333C25.9999 18.4444 25.611 19.3889 24.8333 20.1667C24.0555 20.9444 23.111 21.3333 21.9999 21.3333C20.8888 21.3333 19.9444 20.9444 19.1666 20.1667C18.3888 19.3889 17.9999 18.4444 17.9999 17.3333C17.9999 17.3333 12.6666 17.3333 12.6666 17.3333C12.6666 18.4444 12.2777 19.3889 11.4999 20.1667C10.7221 20.9444 9.7777 21.3333 8.66659 21.3333C8.66659 21.3333 8.66659 21.3333 8.66659 21.3333ZM20.5667 12L27 12L27.1333 11.3L24.6667 8L21.5 8L20.5667 12L20.5667 12ZM19.9333 2.90002L20 2.66669L17.2 14.6667L17.2666 14.4334L18.4 9.56669L19.9333 2.90002L19.9333 2.90002ZM0 12.4333C0 12.4333 0.666667 9.76666 0.666667 9.76666L8 9.76666L7.33333 12.4333C7.33333 12.4333 0 12.4333 0 12.4333ZM2.66675 7.56669L3.33342 4.90002L12.0001 4.90002L11.3334 7.56669L2.66675 7.56669L2.66675 7.56669ZM8.66658 18.6667C9.04436 18.6667 9.36103 18.5389 9.61658 18.2833C9.87214 18.0278 9.99992 17.7111 9.99992 17.3333C9.99992 16.9556 9.87214 16.6389 9.61658 16.3833C9.36103 16.1278 9.04436 16 8.66658 16C8.28881 16 7.97214 16.1278 7.71659 16.3833C7.46103 16.6389 7.33325 16.9556 7.33325 17.3333C7.33325 17.7111 7.46103 18.0278 7.71659 18.2833C7.97214 18.5389 8.28881 18.6667 8.66658 18.6667C8.66658 18.6667 8.66658 18.6667 8.66658 18.6667ZM22.0001 18.6667C22.3779 18.6667 22.6945 18.5389 22.9501 18.2833C23.2056 18.0278 23.3334 17.7111 23.3334 17.3333C23.3334 16.9556 23.2056 16.6389 22.9501 16.3833C22.6945 16.1278 22.3779 16 22.0001 16C21.6223 16 21.3056 16.1278 21.0501 16.3833C20.7945 16.6389 20.6667 16.9556 20.6667 17.3333C20.6667 17.7111 20.7945 18.0278 21.0501 18.2833C21.3056 18.5389 21.6223 18.6667 22.0001 18.6667C22.0001 18.6667 22.0001 18.6667 22.0001 18.6667Z" fill="#191682" transform="translate(0.667 5.333)" />
  </g>
</svg>