<?xml version="1.0" encoding="utf-8"?>
<svg width="174.469" height="143.389" viewBox="0 0 174.469 143.389" fill="none" xmlns="http://www.w3.org/2000/svg">
  <g>
    <g>
      <path d="M94.5522 1.1338C93.0601 0.430566 91.4032 0 89.6456 0C89.6456 0 4.90659 0 4.90659 0C3.14194 0 1.49204 0.423381 0 1.1338C0 1.1338 47.279 38.3705 47.279 38.3705L94.558 1.1338C94.558 1.1338 94.5522 1.1338 94.5522 1.1338Z" fill="#A3DE3D" transform="translate(73.26 0)" />
      <path d="M33.622 0.00623846L0 26.4853C0 26.4853 33.5063 59.3517 33.5063 59.3517C34.3241 57.7658 34.8262 56.0006 34.8262 54.0917C34.8262 54.0917 34.8262 5.04469 34.8262 5.04469C34.8262 3.22918 34.3743 1.53558 33.6283 0C33.6283 0 33.622 0.00623846 33.622 0.00623846Z" fill="#A3DE3D" transform="translate(139.642 6.523)" />
      <path d="M34.8261 26.4644C34.8261 26.4644 1.16925 0 1.16925 0C0.408882 1.52129 0 3.22198 0 5.03752C0 5.03752 0 35.4276 0 35.4276C6.02547 37.3005 11.7068 40.2284 16.7353 44.2109C16.7353 44.2109 34.8193 26.4721 34.8193 26.4721L34.8261 26.4644Z" fill="#A3DE3D" transform="translate(66.618 6.538)" />
      <path d="M33.8787 8.48916C33.1757 9.01301 32.358 9.2498 31.5403 9.2498C30.7225 9.2498 29.8976 9.01299 29.2019 8.48916C29.2019 8.48916 18.4922 3.05176e-05 18.4922 3.05176e-05C18.4922 3.05176e-05 0 18.0906 0 18.0906C4.56226 22.8338 8.19183 28.3953 10.6524 34.4301C10.6524 34.4301 73.9206 34.4301 73.9206 34.4301C75.6207 34.4301 77.1989 34.0785 78.6621 33.3753C78.6621 33.3753 44.5957 0 44.5957 0L33.886 8.48913C33.886 8.48913 33.8787 8.48916 33.8787 8.48916Z" fill="#A3DE3D" transform="translate(88.992 37.746)" />
      <path d="M91.1146 68.7622C91.1146 68.7622 71.7905 58.7661 71.7905 58.7661C69.0646 57.3597 65.7147 58.0916 63.8282 60.5099C63.8282 60.5099 56.7338 69.6089 56.7338 69.6089C49.8331 65.8702 44.5894 62.3326 38.4921 56.2331C31.993 49.7316 28.5498 44.3928 24.9847 37.6698C24.9847 37.6698 33.98 30.6518 33.98 30.6518C36.4045 28.7646 37.1363 25.4133 35.7231 22.6866C35.7231 22.6866 25.7808 3.45465 25.7808 3.45465C24.0305 0.0748711 19.7337 -1.03745 16.5703 1.0722C16.5703 1.0722 4.26101 9.28155 4.26101 9.28155C1.40602 11.1832 -0.207962 14.4697 0.0215838 17.8927C0.25831 21.3944 0.695878 25.8149 1.49929 28.8934C5.08589 42.6855 13.701 56.9156 25.7521 68.9702C37.8033 81.0248 52.0287 89.6442 65.8143 93.2319C68.906 94.0356 73.332 94.4734 76.8611 94.703C80.3329 94.9326 83.647 93.2606 85.5337 90.3329C85.5337 90.3329 93.5463 77.8827 93.5463 77.8827C95.5836 74.718 94.4573 70.4844 91.1146 68.7548C91.1146 68.7548 91.1146 68.7622 91.1146 68.7622Z" fill="#A3DE3D" transform="translate(0 48.665)" />
      <path d="M7.58217 15.1699C11.7713 15.1699 15.1643 11.7756 15.1643 7.58495C15.1643 3.40146 11.7713 0 7.58216 0C3.39305 0 0 3.39429 0 7.58495C0 11.7756 3.39305 15.1699 7.58216 15.1699C7.58216 15.1699 7.58217 15.1699 7.58217 15.1699Z" fill="#A3DE3D" transform="translate(43.729 84.517)" />
      <path d="M4.84194 0C2.16636 0 0 2.16715 0 4.84372C0 7.52028 2.16636 9.68743 4.84194 9.68743C14.1672 9.68743 22.9474 13.3329 29.5612 19.9489C36.1033 26.4934 39.8118 35.4919 39.733 44.6406C39.7115 47.3171 41.8636 49.4986 44.532 49.5201C44.532 49.5201 44.575 49.5201 44.575 49.5201C47.2291 49.5201 49.3955 47.3816 49.417 44.7194C49.5102 32.9868 44.7688 21.4698 36.4047 13.1021C27.9616 4.65597 16.7574 0.00606918 4.84128 0.00606918C4.84128 0.00606918 4.84194 0 4.84194 0Z" fill="#A3DE3D" transform="translate(46.497 47.361)" />
      <path d="M16.4911 14.4948C19.59 17.5948 21.2972 21.7353 21.2972 26.1486C21.2972 28.8251 23.4636 30.9923 26.1392 30.9923C28.8148 30.9923 30.9811 28.8251 30.9811 26.1486C30.9811 19.1449 28.2695 12.5718 23.3415 7.6496C18.4134 2.71973 11.8427 0 4.84194 0C2.16636 0 0 2.16715 0 4.84371C0 7.52028 2.16636 9.68742 4.84194 9.68742C9.25344 9.68742 13.3924 11.3953 16.4986 14.4953C16.4986 14.4953 16.4911 14.4948 16.4911 14.4948Z" fill="#A3DE3D" transform="translate(46.476 65.903)" />
    </g>
  </g>
</svg>