<?xml version="1.0" encoding="utf-8"?>
<svg width="48" height="48" viewBox="0 0 48 48" fill="none" xmlns="http://www.w3.org/2000/svg">
  <g>
    <path d="M4 32C2.9 32 1.95833 31.6084 1.175 30.825C0.391666 30.0416 0 29.1 0 28C0 28 0 4 0 4C0 2.9 0.391666 1.95833 1.175 1.175C1.95833 0.391666 2.9 0 4 0C4 0 36 0 36 0C37.1 0 38.0416 0.391666 38.825 1.175C39.6084 1.95833 40 2.9 40 4C40 4 40 28 40 28C40 29.1 39.6084 30.0416 38.825 30.825C38.0416 31.6084 37.1 32 36 32C36 32 4 32 4 32ZM20 18C20 18 4 8 4 8L4 28L36 28L36 8L20 18C20 18 20 18 20 18ZM20 14C20 14 36 4 36 4L4 4L20 14C20 14 20 14 20 14ZM4 8C4 8 4 4 4 4L4 28L4 8C4 8 4 8 4 8Z" fill="#FFFFFF" transform="translate(4 8)" />
  </g>
</svg>