<?xml version="1.0" encoding="utf-8"?>
<svg width="48" height="48" viewBox="0 0 48 48" fill="none" xmlns="http://www.w3.org/2000/svg">
  <g>
    <path d="M16 24L24 24L24 20L16 20L16 24L16 24ZM16 18L32 18L32 14L16 14L16 18L16 18ZM16 12L32 12L32 8L16 8L16 12L16 12ZM12 32C10.9 32 9.95833 31.6083 9.175 30.825C8.39167 30.0417 8 29.1 8 28C8 28 8 4 8 4C8 2.9 8.39167 1.95833 9.175 1.175C9.95833 0.391665 10.9 0 12 0C12 0 36 0 36 0C37.1 0 38.0417 0.391665 38.825 1.175C39.6083 1.95833 40 2.9 40 4C40 4 40 28 40 28C40 29.1 39.6083 30.0417 38.825 30.825C38.0417 31.6083 37.1 32 36 32C36 32 12 32 12 32C12 32 12 32 12 32ZM12 28L36 28L36 4L12 4L12 28L12 28ZM4 40C2.9 40 1.95833 39.6083 1.175 38.825C0.391667 38.0417 0 37.1 0 36C0 36 0 8 0 8L4 8L4 36L32 36L32 40C32 40 4 40 4 40ZM12 4L12 28L12 4L12 4Z" fill="#FFFFFF" transform="translate(4 4)" />
  </g>
</svg>