<?xml version="1.0" encoding="utf-8"?>
<svg width="48" height="48" viewBox="0 0 48 48" fill="none" xmlns="http://www.w3.org/2000/svg">
  <g>
    <path d="M0 36C0 36 0 0 0 0L20 0L20 8L40 8L40 36C40 36 0 36 0 36ZM4 32L8 32L8 28L4 28L4 32L4 32ZM4 24L8 24L8 20L4 20L4 24L4 24ZM4 16L8 16L8 12L4 12L4 16L4 16ZM4 8L8 8L8 4L4 4L4 8L4 8ZM12 32L16 32L16 28L12 28L12 32L12 32ZM12 24L16 24L16 20L12 20L12 24L12 24ZM12 16L16 16L16 12L12 12L12 16L12 16ZM12 8L16 8L16 4L12 4L12 8L12 8ZM20 32L36 32L36 12L20 12L20 16L24 16L24 20L20 20L20 24L24 24L24 28L20 28L20 32L20 32ZM28 20L28 16L32 16L32 20L28 20L28 20ZM28 28L28 24L32 24L32 28L28 28L28 28Z" fill="#FFFFFF" transform="translate(4 6)" />
  </g>
</svg>