<?xml version="1.0" encoding="utf-8"?>
<svg width="24" height="24" viewBox="0 0 24 24" fill="none" xmlns="http://www.w3.org/2000/svg">
  <g>
    <path d="M2 16C1.45 16 0.979167 15.8042 0.5875 15.4125C0.195833 15.0208 0 14.55 0 14C0 14 0 2 0 2C0 1.45 0.195833 0.979167 0.5875 0.5875C0.979167 0.195833 1.45 0 2 0C2 0 18 0 18 0C18.55 0 19.0208 0.195833 19.4125 0.5875C19.8042 0.979167 20 1.45 20 2C20 2 20 14 20 14C20 14.55 19.8042 15.0208 19.4125 15.4125C19.0208 15.8042 18.55 16 18 16C18 16 2 16 2 16ZM10 9L2 4L2 14L18 14L18 4L10 9L10 9ZM10 7L18 2L2 2L10 7L10 7ZM2 4L2 2L2 14L2 4L2 4Z" fill="#191682" transform="translate(2 4)" />
  </g>
</svg>