<?xml version="1.0" encoding="utf-8"?>
<svg width="48" height="48" viewBox="0 0 48 48" fill="none" xmlns="http://www.w3.org/2000/svg">
  <g>
    <path d="M23 32C21.6 32 20.4167 31.5167 19.45 30.55C18.4833 29.5833 18 28.4 18 27C18 25.6 18.4833 24.4167 19.45 23.45C20.4167 22.4833 21.6 22 23 22C24.4 22 25.5833 22.4833 26.55 23.45C27.5167 24.4167 28 25.6 28 27C28 28.4 27.5167 29.5833 26.55 30.55C25.5833 31.5167 24.4 32 23 32C23 32 23 32 23 32ZM4 40C2.9 40 1.95833 39.6083 1.175 38.825C0.391667 38.0417 0 37.1 0 36C0 36 0 8 0 8C0 6.9 0.391667 5.95833 1.175 5.175C1.95833 4.39167 2.9 4 4 4C4 4 6 4 6 4L6 0L10 0L10 4L26 4L26 0L30 0L30 4C30 4 32 4 32 4C33.1 4 34.0417 4.39167 34.825 5.175C35.6083 5.95833 36 6.9 36 8C36 8 36 36 36 36C36 37.1 35.6083 38.0417 34.825 38.825C34.0417 39.6083 33.1 40 32 40C32 40 4 40 4 40ZM4 36L32 36L32 16L4 16L4 36L4 36ZM4 12L32 12L32 8L4 8L4 12L4 12ZM4 12L4 8L4 12L4 12Z" fill="#FFFFFF" transform="translate(6 4)" />
  </g>
</svg>