<?xml version="1.0" encoding="utf-8"?>
<svg width="48" height="48" viewBox="0 0 48 48" fill="none" xmlns="http://www.w3.org/2000/svg">
  <g>
    <path d="M2 12C1.43333 12 0.958334 11.8083 0.575 11.425C0.191667 11.0417 0 10.5667 0 10C0 9.43333 0.191667 8.95833 0.575 8.575C0.958334 8.19167 1.43333 8 2 8C2.56667 8 3.04167 8.19167 3.425 8.575C3.80833 8.95833 4 9.43333 4 10C4 10.5667 3.80833 11.0417 3.425 11.425C3.04167 11.8083 2.56667 12 2 12ZM11 40C8.8 40 6.91667 39.2167 5.35 37.65C3.78333 36.0833 3 34.2 3 32C3 32 3 20 3 20C3 16.6667 4.16667 13.8333 6.5 11.5C8.83333 9.16667 11.6667 8 15 8C15 8 18.65 8 18.65 8C20.95 8 22.9167 8.775 24.55 10.325C26.1833 11.875 27 13.7833 27 16.05C27 17.5833 26.5917 18.9917 25.775 20.275C24.9583 21.5583 23.85 22.5333 22.45 23.2C21.3833 23.7 20.5417 24.4417 19.925 25.425C19.3083 26.4083 19 27.4833 19 28.65C19 28.65 19 32 19 32C19 34.2333 18.225 36.125 16.675 37.675C15.125 39.225 13.2333 40 11 40ZM7 8C6.43333 8 5.95833 7.80833 5.575 7.425C5.19167 7.04167 5 6.56667 5 6C5 6 5 5 5 5C5 4.43333 5.19167 3.95833 5.575 3.575C5.95833 3.19167 6.43333 3 7 3C7.56667 3 8.04167 3.19167 8.425 3.575C8.80833 3.95833 9 4.43333 9 5C9 5 9 6 9 6C9 6.56667 8.80833 7.04167 8.425 7.425C8.04167 7.80833 7.56667 8 7 8C7 8 7 8 7 8ZM11 36C12.1 36 13.0417 35.6083 13.825 34.825C14.6083 34.0417 15 33.1 15 32C15 32 15 28.65 15 28.65C15 26.7167 15.5083 24.9333 16.525 23.3C17.5417 21.6667 18.9333 20.4333 20.7 19.6C21.4 19.2667 21.9583 18.775 22.375 18.125C22.7917 17.475 23 16.7667 23 16C23 14.8333 22.5667 13.875 21.7 13.125C20.8333 12.375 19.8167 12 18.65 12C18.65 12 15 12 15 12C12.8 12 10.9167 12.7833 9.35 14.35C7.78333 15.9167 7 17.8 7 20C7 20 7 32 7 32C7 33.1 7.39167 34.0417 8.175 34.825C8.95833 35.6083 9.9 36 11 36C11 36 11 36 11 36ZM13 6C12.4333 6 11.9583 5.80833 11.575 5.425C11.1917 5.04167 11 4.56667 11 4C11 4 11 3 11 3C11 2.43333 11.1917 1.95833 11.575 1.575C11.9583 1.19167 12.4333 1 13 1C13.5667 1 14.0417 1.19167 14.425 1.575C14.8083 1.95833 15 2.43333 15 3C15 3 15 4 15 4C15 4.56667 14.8083 5.04167 14.425 5.425C14.0417 5.80833 13.5667 6 13 6C13 6 13 6 13 6ZM19 6C18.4333 6 17.9583 5.80833 17.575 5.425C17.1917 5.04167 17 4.56667 17 4C17 4 17 2 17 2C17 1.43333 17.1917 0.958334 17.575 0.575C17.9583 0.191666 18.4333 0 19 0C19.5667 0 20.0417 0.191666 20.425 0.575C20.8083 0.958334 21 1.43333 21 2C21 2 21 4 21 4C21 4.56667 20.8083 5.04167 20.425 5.425C20.0417 5.80833 19.5667 6 19 6C19 6 19 6 19 6ZM26 8C25.1667 8 24.4583 7.70833 23.875 7.125C23.2917 6.54167 23 5.83333 23 5C23 5 23 3 23 3C23 2.16667 23.2917 1.45833 23.875 0.875C24.4583 0.291666 25.1667 0 26 0C26.8333 0 27.5417 0.291666 28.125 0.875C28.7083 1.45833 29 2.16667 29 3C29 3 29 5 29 5C29 5.83333 28.7083 6.54167 28.125 7.125C27.5417 7.70833 26.8333 8 26 8C26 8 26 8 26 8Z" fill="#F6E5E5" transform="translate(9 4)" />
  </g>
</svg>