<?xml version="1.0" encoding="utf-8"?>
<svg width="120" height="137" viewBox="0 0 120 137" fill="none" xmlns="http://www.w3.org/2000/svg">
  <g>
    <path d="M13.5379 63.6363C14.2606 51.8931 19.3025 41.327 27.0818 33.5092C34.8609 25.6976 45.3881 20.6344 57.0834 19.9087C57.0834 19.9087 57.0834 2.92581 57.0834 2.92581C57.0834 1.30857 58.3866 0 59.9971 0C60.5775 0 61.1181 0.171438 61.5733 0.462878C61.5733 0.462878 71.7654 6.12023 71.7654 6.12023C73.171 6.8974 73.6888 8.67461 72.9149 10.086C72.636 10.5889 72.2377 10.9832 71.7654 11.2403C71.7654 11.2403 62.9107 16.1548 62.9107 16.1548C62.9107 16.1548 62.9107 19.9092 62.9107 19.9092C74.605 20.635 85.1272 25.698 92.9124 33.5097C100.691 41.3214 105.734 51.8926 106.456 63.6368C106.456 63.6368 110.884 63.6368 110.884 63.6368C112.494 63.6368 113.797 64.9454 113.797 66.5626C113.797 66.5626 113.797 75.8716 113.797 75.8716C113.797 77.4888 112.494 78.7974 110.884 78.7974C110.884 78.7974 109.438 78.7974 109.438 78.7974C109.438 78.7974 109.438 85.1805 109.438 85.1805C109.438 86.7977 108.135 88.1063 106.525 88.1063C106.525 88.1063 102.092 88.1063 102.092 88.1063L105.136 120.257C105.136 120.257 108.226 120.257 108.226 120.257C109.837 120.257 111.14 121.565 111.14 123.182C111.14 123.182 111.14 131.165 111.14 131.165C111.14 131.165 117.098 131.171 117.098 131.171C118.703 131.171 120 132.474 120 134.086C120 135.697 118.703 137 117.098 137C79.0267 136.977 40.9616 136.949 2.90227 136.926C1.29744 136.926 0 135.623 0 134.011C0 132.4 1.29747 131.097 2.90227 131.097C2.90227 131.097 8.86036 131.103 8.86036 131.103C8.86036 131.103 8.86036 123.188 8.86036 123.188C8.86036 121.571 10.1635 120.262 11.774 120.262C11.774 120.262 14.864 120.262 14.864 120.262L17.9085 88.1119C17.9085 88.1119 13.4811 88.1119 13.4811 88.1119C11.8706 88.1119 10.5675 86.8033 10.5675 85.1861C10.5675 85.1861 10.5675 78.803 10.5675 78.803C10.5675 78.803 9.11633 78.803 9.11633 78.803C7.50582 78.803 6.2027 77.4944 6.2027 75.8772C6.2027 75.8772 6.2027 66.5683 6.2027 66.5683C6.2027 64.951 7.50587 63.6424 9.11633 63.6424C9.11633 63.6424 13.5437 63.6424 13.5437 63.6424C13.5437 63.6424 13.5379 63.6363 13.5379 63.6363ZM57.0836 108.084C57.0836 106.467 58.3867 105.158 59.9972 105.158C61.6077 105.158 62.9108 106.467 62.9108 108.084C62.9108 108.084 62.9108 131.13 62.9108 131.13L67.9527 131.136L67.9527 96.9114L52.0472 96.9114L52.0472 131.13L57.0891 131.136L57.0891 108.095C57.0891 108.095 57.0836 108.084 57.0836 108.084ZM46.2201 128.193C46.2201 128.193 46.2201 91.0541 46.2201 91.0541C46.2201 89.4369 47.5233 88.1283 49.1337 88.1283C49.1337 88.1283 70.8665 88.1283 70.8665 88.1283C72.477 88.1283 73.7801 89.4369 73.7801 91.0541C73.7801 91.0541 73.7801 128.209 73.7801 128.209L78.1051 128.215C78.1051 128.215 78.1051 120.254 78.1051 120.254C78.1051 118.637 79.4083 117.329 81.0188 117.329C81.0188 117.329 84.1088 117.329 84.1088 117.329L87.1533 85.1784C87.1533 85.1784 82.7259 85.1784 82.7259 85.1784C81.1154 85.1784 79.8122 83.8697 79.8122 82.2525C79.8122 82.2525 79.8122 75.8694 79.8122 75.8694L40.2043 75.8694C40.2043 75.8694 40.2043 82.2525 40.2043 82.2525C40.2043 83.8698 38.9011 85.1784 37.2907 85.1784C37.2907 85.1784 32.8576 85.1784 32.8576 85.1784L35.902 117.329C35.902 117.329 38.9921 117.329 38.9921 117.329C40.6026 117.329 41.9057 118.637 41.9057 120.254C41.9057 120.254 41.9057 128.192 41.9057 128.192L46.2307 128.198L46.2201 128.193ZM83.1751 54.3278L93.4696 54.3278L93.4696 60.1794L83.1751 60.1794L83.1751 54.3278ZM64.2934 54.3278L74.5878 54.3278L74.5878 60.1794L64.2934 60.1794L64.2934 54.3278ZM45.4116 54.3278L55.706 54.3278L55.706 60.1794L45.4116 60.1794L45.4116 54.3278ZM26.5298 54.3278L36.8242 54.3278L36.8242 60.1794L26.5298 60.1794L26.5298 54.3278ZM14.6931 131.097L36.0792 131.108L36.0792 126.102L14.6931 126.102L14.6931 131.097ZM83.9313 131.142L105.317 131.154L105.317 126.108L83.9313 126.108L83.9313 131.148L83.9313 131.142ZM96.2629 88.1067L92.9794 88.1067L89.9349 120.257L99.3018 120.257L96.2574 88.1067L96.2629 88.1067ZM27.0248 88.1067L23.7413 88.1067L20.6969 120.257L30.0637 120.257L27.0193 88.1067L27.0248 88.1067ZM103.615 78.7978L85.6325 78.7978L85.6325 82.2551L103.615 82.2551L103.615 78.7978ZM34.3774 78.7978L16.3944 78.7978L16.3944 82.2551L34.3774 82.2551L34.3774 78.7978ZM100.623 63.6377C99.9118 53.5116 95.5243 44.4034 88.7979 37.6477C81.4285 30.2474 71.2476 25.6702 60.0025 25.6702C48.7573 25.6702 38.5771 30.2474 31.207 37.6477C24.4806 44.4022 20.0988 53.5115 19.3818 63.6377C19.3818 63.6377 100.623 63.6377 100.623 63.6377ZM107.976 69.4893L12.0311 69.4893L12.0311 72.9466L107.976 72.9466L107.976 69.4893Z" fill="#1C139D" />
  </g>
</svg>