<?xml version="1.0" encoding="utf-8"?>
<svg width="110" height="135" viewBox="0 0 110 135" fill="none" xmlns="http://www.w3.org/2000/svg">
  <g>
    <path d="M6.3945 12.9804C9.9804 12.9804 12.8828 10.1718 12.9804 6.5859C12.9804 3 10.1718 0.097599 6.5859 0C3 0 0.097599 2.8086 0 6.3945C0 10.0742 2.8086 12.9804 6.3945 12.9804C6.3945 12.9804 6.3945 12.9804 6.3945 12.9804Z" fill="#F8E9E9" transform="translate(52.524 35.399)" />
    <path d="M6.39689 12.9804C9.98279 12.9804 12.8852 10.1718 12.9828 6.5859C12.9828 3 10.1742 0.097599 6.58829 0C3.00239 0 0.0999889 2.8086 0.00238991 6.3945C-0.0952644 10.0742 2.81099 12.9804 6.39689 12.9804C6.39689 12.9804 6.39689 12.9804 6.39689 12.9804Z" fill="#F8E9E9" transform="translate(17.654 41.305)" />
    <path d="M58.7242 13.0564C58.7242 13.0564 49.9117 0.755379 49.9117 0.755379C49.4273 0.0756836 48.4586 -0.213371 47.6851 0.173347C47.6851 0.173347 41.5835 2.69285 41.5835 2.69285C41.1968 2.88815 40.9038 3.07957 40.7124 3.46629C40.7124 3.46629 34.8062 13.2475 34.8062 13.2475C34.5171 13.7319 34.0327 14.0209 33.4507 14.1186C33.4507 14.1186 21.2477 15.185 21.2477 15.185C20.861 15.185 20.3766 15.3803 20.0875 15.6694C20.0875 15.6694 15.4391 20.3178 15.4391 20.3178C15.15 20.6068 14.6656 20.8021 14.2789 20.8021C14.2789 20.8021 3.43089 21.6732 3.43089 21.6732C2.84885 21.6732 2.27069 22.06 1.97779 22.642C1.97779 22.642 0.235588 25.7397 0.235588 25.7397C-0.444103 26.9975 0.430897 28.4506 1.78639 28.4506C1.78639 28.4506 57.2864 28.4506 57.2864 28.4506C58.2551 28.4506 59.1262 27.6772 59.1262 26.6108C59.1262 26.6108 59.1262 14.1148 59.1262 14.1148C59.1262 13.7281 59.0285 13.3414 58.7395 13.0484C58.7395 13.0484 58.7242 13.0564 58.7242 13.0564Z" fill="#F8E9E9" transform="translate(40.389 69.221)" />
    <path d="M34.2758 25.9662C34.6625 25.7708 35.0492 25.5794 35.3422 25.2865C35.3422 25.2865 35.5375 25.2865 35.5375 25.2865C36.5063 25.2865 37.3773 24.8021 37.9594 24.0287C37.9594 24.0287 39.7016 21.5092 39.7016 21.5092C41.1547 19.474 43.0922 17.8295 45.3188 16.7631C45.3188 16.7631 45.3188 27.1261 45.3188 27.1261L44.061 35.7472L39.5102 46.6922L46.6782 46.2078L47.3579 45.5281C47.3579 45.5281 50.4556 37.9734 50.4556 37.9734C50.5532 37.6843 50.6509 37.489 50.6509 37.2C50.6509 37.2 51.7173 30.1297 51.7173 30.1297L58.7876 33.0359L58.0142 40.2039L64.8931 39.6218C64.8931 39.6218 65.7642 31.196 65.7642 31.196C65.9595 29.7429 65.0845 28.2898 63.729 27.7077C63.729 27.7077 57.9165 25.3835 57.9165 25.3835L57.9165 14.8245C57.9165 14.8245 58.2055 14.7269 58.2055 14.7269C62.2719 13.6605 65.9555 11.3363 68.5685 8.04326C68.5685 8.04326 71.1818 4.84796 71.1818 4.84796C72.2482 3.59016 72.0529 1.65266 70.6974 0.683861C69.4396 -0.382542 67.5021 -0.187229 66.5333 1.16823C66.5333 1.16823 63.92 4.36353 63.92 4.36353C62.0802 6.59013 59.5606 8.23853 56.752 9.01193C56.752 9.01193 55.9786 9.20724 55.9786 9.20724C54.8184 9.4963 53.752 9.59396 52.588 9.59396C52.588 9.59396 51.0372 9.59396 51.0372 9.59396C49.0997 9.59396 47.0645 9.88301 45.2247 10.465C40.963 11.7228 37.2833 14.5314 34.7637 18.215C34.7637 18.215 33.4082 20.1525 33.4082 20.1525C33.0215 20.1525 32.6348 20.1525 32.248 20.3479C29.9238 21.2189 27.3066 20.6369 25.5644 18.8948C25.5644 18.8948 25.08 18.4104 25.08 18.4104C23.2402 16.5706 20.8183 15.6018 18.2011 15.6018C18.2011 15.6018 14.6152 15.6018 14.6152 15.6018C11.1269 15.6018 7.73631 17.0549 5.41211 19.4768C3.08791 21.8987 1.34571 24.9026 0.181614 28.2893C-0.400416 29.8401 0.470674 31.4846 2.02141 32.0666C2.31047 32.1642 2.7011 32.2619 2.99016 32.2619C4.24796 32.2619 5.41206 31.4884 5.79876 30.2267C6.66985 27.7072 7.93156 25.4806 9.67376 23.6408C9.77142 23.5431 9.96282 23.4455 10.0605 23.2541C10.0605 23.2541 10.0605 36.2341 10.0605 36.2341L9.09173 42.82C9.09173 42.82 3.47453 52.1169 3.47453 52.1169C2.50578 53.6677 2.99015 55.7028 4.63473 56.6677C5.21676 56.9567 5.79493 57.1521 6.37694 57.1521C7.53714 57.1521 8.60353 56.57 9.18553 55.5037C9.18553 55.5037 15.1894 45.6248 15.1894 45.6248C15.3847 45.238 15.5762 44.8513 15.6738 44.367C15.6738 44.367 16.5449 38.1678 16.5449 38.1678L20.8066 43.1091C20.8066 43.1091 22.455 54.2502 22.455 54.2502C22.6503 55.8985 24.1034 57.0588 25.748 57.0588C25.748 57.0588 26.2324 57.0588 26.2324 57.0588C28.0722 56.7697 29.3301 55.1213 29.041 53.2815C29.041 53.2815 27.2988 41.1765 27.2988 41.1765C27.2011 40.5944 26.9121 40.0163 26.5253 39.5281C26.5253 39.5281 22.4589 34.782 22.4589 34.782C22.4589 34.782 22.9433 24.321 22.9433 24.321C26.1386 26.7429 30.4003 27.4187 34.2753 25.9694C34.2753 25.9694 34.2758 25.9662 34.2758 25.9662Z" fill="#F8E9E9" transform="translate(7.497 40.62)" />
    <path d="M4.76678 13.9453C4.93867 14.1172 5.00117 14.375 4.97772 14.6093C4.97772 14.6093 3.90352 20.5195 3.90352 20.5195C3.69258 21.6601 4.8918 22.539 5.92692 21.9804C5.92692 21.9804 11.2121 19.1249 11.2121 19.1249C11.427 19.0156 11.7043 19.0156 11.9192 19.1249C11.9192 19.1249 17.1848 21.9804 17.1848 21.9804C18.216 22.539 19.4192 21.6601 19.2278 20.5195C19.2278 20.5195 18.1535 14.6093 18.1535 14.6093C18.1106 14.375 18.1965 14.1171 18.3684 13.9453C18.3684 13.9453 22.7082 9.80077 22.7082 9.80077C23.548 9.0078 23.0754 7.56637 21.9387 7.41407C21.9387 7.41407 15.9856 6.61719 15.9856 6.61719C15.7512 6.57422 15.5129 6.42188 15.427 6.1875C15.427 6.1875 12.8059 0.773399 12.8059 0.773399C12.3137 -0.257801 10.8059 -0.257801 10.3137 0.773399C10.3137 0.773399 7.71596 6.1875 7.71596 6.1875C7.61049 6.42188 7.39174 6.57422 7.13783 6.61719C7.13783 6.61719 1.20422 7.41407 1.20422 7.41407C0.0440216 7.56641 -0.409073 9.00787 0.434692 9.80077C0.434692 9.80077 4.77449 13.9453 4.77449 13.9453C4.77449 13.9453 4.76678 13.9453 4.76678 13.9453Z" fill="#F8E9E9" transform="translate(79.37 22.223)" />
  </g>
</svg>