<?xml version="1.0" encoding="utf-8"?>
<svg width="240" height="240" viewBox="0 0 240 240" fill="none" xmlns="http://www.w3.org/2000/svg">
  <g>
    <path d="M70 140L90 140L90 90L70 90L70 140L70 140ZM87.125 67.125C89.0417 65.2083 90 62.8333 90 60C90 57.1667 89.0417 54.7917 87.125 52.875C85.2083 50.9583 82.8333 50 80 50C77.1667 50 74.7917 50.9583 72.875 52.875C70.9583 54.7917 70 57.1667 70 60C70 62.8333 70.9583 65.2083 72.875 67.125C74.7917 69.0417 77.1667 70 80 70C82.8333 70 85.2083 69.0417 87.125 67.125C87.125 67.125 87.125 67.125 87.125 67.125ZM0 180C0 180 0 60 0 60L80 0L160 60L160 180C160 180 0 180 0 180ZM20 160L140 160L140 70L80 25L20 70L20 160L20 160ZM80.6154 92.9615L80.6154 92.9615Z" fill="#000000" transform="translate(40 30)" />
  </g>
</svg>