<?xml version="1.0" encoding="utf-8"?>
<svg width="24" height="24" viewBox="0 0 24 24" fill="none" xmlns="http://www.w3.org/2000/svg">
  <g transform="matrix(-1 0 0 1 24 0)">
    <path d="M1.05 18C0.75 18 0.5 17.9 0.3 17.7C0.0999999 17.5 0 17.25 0 16.95C0 16.95 0 12.9 0 12.9C0 12.6833 0.075 12.4875 0.225 12.3125C0.375 12.1375 0.566667 12.0167 0.8 11.95C0.8 11.95 4.25 11.25 4.25 11.25C4.48333 11.2167 4.72083 11.2375 4.9625 11.3125C5.20417 11.3875 5.4 11.5 5.55 11.65C5.55 11.65 7.9 14 7.9 14C8.53333 13.6333 9.13333 13.2292 9.7 12.7875C10.2667 12.3458 10.8083 11.8667 11.325 11.35C11.875 10.8167 12.3792 10.2625 12.8375 9.6875C13.2958 9.1125 13.6917 8.51667 14.025 7.9C14.025 7.9 11.6 5.45 11.6 5.45C11.4667 5.31667 11.375 5.15833 11.325 4.975C11.275 4.79167 11.2667 4.56667 11.3 4.3C11.3 4.3 11.95 0.8 11.95 0.8C11.9833 0.583333 12.0917 0.395833 12.275 0.2375C12.4583 0.0791671 12.6667 0 12.9 0C12.9 0 16.95 0 16.95 0C17.25 0 17.5 0.0999999 17.7 0.3C17.9 0.5 18 0.75 18 1.05C18 3.13333 17.5458 5.19167 16.6375 7.225C15.7292 9.25833 14.4417 11.1083 12.775 12.775C11.1083 14.4417 9.25833 15.7292 7.225 16.6375C5.19167 17.5458 3.13333 18 1.05 18ZM14.95 6C15.2333 5.35 15.45 4.69167 15.6 4.025C15.75 3.35833 15.8667 2.68333 15.95 2C15.95 2 13.75 2 13.75 2C13.75 2 13.3 4.35 13.3 4.35C13.3 4.35 14.95 6 14.95 6C14.95 6 14.95 6 14.95 6ZM4.35 13.25C4.35 13.25 2 13.75 2 13.75C2 13.75 2 15.95 2 15.95C2.68333 15.9 3.35833 15.7833 4.025 15.6C4.69167 15.4167 5.35 15.1833 6 14.9C6 14.9 6 14.9 6 14.9C6 14.9 4.35 13.25 4.35 13.25Z" fill="#403708" transform="translate(3 3)" />
  </g>
</svg>