<?xml version="1.0" encoding="utf-8"?>
<svg width="48" height="48" viewBox="0 0 48 48" fill="none" xmlns="http://www.w3.org/2000/svg">
  <g>
    <path d="M2.1 -36C1.5 -36 1 -35.8 0.599998 -35.4C0.200001 -35 0 -34.5 0 -33.9C0 -33.9 0 -25.8 0 -25.8C0 -25.3666 0.150002 -24.975 0.450001 -24.625C0.75 -24.275 1.13334 -24.0334 1.6 -23.9C1.6 -23.9 8.5 -22.5 8.5 -22.5C8.96666 -22.4334 9.44166 -22.475 9.925 -22.625C10.4083 -22.775 10.8 -23 11.1 -23.3C11.1 -23.3 15.8 -28 15.8 -28C17.0667 -27.2666 18.2667 -26.4584 19.4 -25.575C20.5334 -24.6916 21.6166 -23.7334 22.65 -22.7C23.75 -21.6334 24.7584 -20.525 25.675 -19.375C26.5916 -18.225 27.3834 -17.0333 28.05 -15.8C28.05 -15.8 23.2 -10.9 23.2 -10.9C22.9334 -10.6333 22.75 -10.3167 22.65 -9.95C22.55 -9.58334 22.5334 -9.13334 22.6 -8.6C22.6 -8.6 23.9 -1.6 23.9 -1.6C23.9666 -1.16666 24.1834 -0.791664 24.55 -0.474998C24.9166 -0.158333 25.3334 0 25.8 0C25.8 0 33.9 0 33.9 0C34.5 0 35 -0.200001 35.4 -0.599998C35.8 -1 36 -1.5 36 -2.1C36 -6.26666 35.0916 -10.3833 33.275 -14.45C31.4584 -18.5167 28.8834 -22.2166 25.55 -25.55C22.2166 -28.8834 18.5167 -31.4584 14.45 -33.275C10.3833 -35.0916 6.26666 -36 2.1 -36ZM29.9 -12C30.4666 -10.7 30.9 -9.38334 31.2 -8.05C31.5 -6.71666 31.7334 -5.36666 31.9 -4C31.9 -4 27.5 -4 27.5 -4C27.5 -4 26.6 -8.7 26.6 -8.7C26.6 -8.7 29.9 -12 29.9 -12C29.9 -12 29.9 -12 29.9 -12ZM4 -27.5C4 -27.5 4 -31.9 4 -31.9C5.36666 -31.8 6.71666 -31.5666 8.05 -31.2C9.38334 -30.8334 10.7 -30.3666 12 -29.8C12 -29.8 12 -29.8 12 -29.8C12 -29.8 8.7 -26.5 8.7 -26.5C8.7 -26.5 4 -27.5 4 -27.5Z" fill="#FFFFFF" transform="matrix(-1 0 0 1 42 6)" />
  </g>
</svg>