<?xml version="1.0" encoding="utf-8"?>
<svg width="48" height="48" viewBox="0 0 48 48" fill="none" xmlns="http://www.w3.org/2000/svg">
  <g>
    <path d="M6.5 42L6.5 25.55L0 15L9.25 0L27.75 0L37 15L30.5 25.55L30.5 42L18.5 38L6.5 42L6.5 42ZM10.5 36.45L18.5 33.8L26.5 36.45L26.5 30L10.5 30L10.5 36.45L10.5 36.45ZM11.5 4L4.70001 15L11.5 26L25.5 26L32.3 15L25.5 4L11.5 4L11.5 4ZM16.4 23.15L9.29999 16.1L12.15 13.25L16.4 17.5L24.85 9L27.7 11.8L16.4 23.15L16.4 23.15ZM10.5 30L26.5 30L10.5 30L10.5 30Z" fill="#3D2070" transform="translate(5.5 4)" />
  </g>
</svg>