<?xml version="1.0" encoding="utf-8"?>
<svg width="240" height="240" viewBox="0 0 240 240" fill="none" xmlns="http://www.w3.org/2000/svg">
  <g>
    <path d="M50 140C44.5 140 39.7917 138.042 35.875 134.125C31.9583 130.208 30 125.5 30 120C30 114.5 31.9583 109.792 35.875 105.875C39.7917 101.958 44.5 100 50 100C55.5 100 60.2083 101.958 64.125 105.875C68.0417 109.792 70 114.5 70 120C70 125.5 68.0417 130.208 64.125 134.125C60.2083 138.042 55.5 140 50 140ZM170 140C164.5 140 159.792 138.042 155.875 134.125C151.958 130.208 150 125.5 150 120C150 114.5 151.958 109.792 155.875 105.875C159.792 101.958 164.5 100 170 100C175.5 100 180.208 101.958 184.125 105.875C188.042 109.792 190 114.5 190 120C190 125.5 188.042 130.208 184.125 134.125C180.208 138.042 175.5 140 170 140C170 140 170 140 170 140ZM110 130C103 130 97.0833 127.583 92.25 122.75C87.4167 117.917 85 112 85 105C85 98 87.4167 92.0833 92.25 87.25C97.0833 82.4167 103 80 110 80C117 80 122.917 82.4167 127.75 87.25C132.583 92.0833 135 98 135 105C135 112 132.583 117.917 127.75 122.75C122.917 127.583 117 130 110 130C110 130 110 130 110 130ZM61 190C63.3333 178.5 69.0417 168.958 78.125 161.375C87.2083 153.792 97.8333 150 110 150C122.167 150 132.792 153.792 141.875 161.375C150.958 168.958 156.667 178.5 159 190C159 190 61 190 61 190ZM10 190C10 179 13.9167 169.583 21.75 161.75C29.5833 153.917 39 150 50 150C52.8333 150 55.5 150.25 58 150.75C60.5 151.25 62.9167 152 65.25 153C60.25 157.833 56.0833 163.375 52.75 169.625C49.4167 175.875 47.1667 182.667 46 190C46 190 10 190 10 190C10 190 10 190 10 190ZM174 190C172.833 182.667 170.583 175.875 167.25 169.625C163.917 163.375 159.75 157.833 154.75 153C157.083 152 159.5 151.25 162 150.75C164.5 150.25 167.167 150 170 150C181 150 190.417 153.917 198.25 161.75C206.083 169.583 210 179 210 190C210 190 174 190 174 190C174 190 174 190 174 190ZM12 100C12 100 0 84 0 84L110 0L150 30.5L150 10L180 10L180 53.5L220 84L208 100L110 25.25C110 25.25 12 100 12 100Z" fill="#FDEFEF" transform="translate(10 20)" />
  </g>
</svg>