<?xml version="1.0" encoding="utf-8"?>
<svg width="32" height="32" viewBox="0 0 32 32" fill="none" xmlns="http://www.w3.org/2000/svg">
  <g transform="translate(0 0)">
    <path d="M13.3333 24C12.9333 24 12.55 23.9278 12.1833 23.7833C11.8167 23.6389 11.4889 23.4222 11.2 23.1333C11.2 23.1333 2.26667 14.1667 2.26667 14.1667C1.48889 13.3889 0.916667 12.5 0.55 11.5C0.183333 10.5 0 9.45556 0 8.36667C0 6.07778 0.744445 4.11111 2.23333 2.46667C3.72222 0.822223 5.57778 0 7.8 0C8.86667 0 9.87222 0.211111 10.8167 0.633333C11.7611 1.05556 12.6 1.64444 13.3333 2.4C14.0444 1.64444 14.8722 1.05556 15.8167 0.633333C16.7611 0.211111 17.7667 0 18.8333 0C21.0556 0 22.9167 0.822223 24.4167 2.46667C25.9167 4.11111 26.6667 6.06667 26.6667 8.33333C26.6667 9.42222 26.4778 10.4667 26.1 11.4667C25.7222 12.4667 25.1556 13.3556 24.4 14.1333C24.4 14.1333 15.4333 23.1333 15.4333 23.1333C15.1444 23.4222 14.8222 23.6389 14.4667 23.7833C14.1111 23.9278 13.7333 24 13.3333 24C13.3333 24 13.3333 24 13.3333 24ZM14.6667 6.66667C14.8889 6.66667 15.1 6.72222 15.3 6.83333C15.5 6.94444 15.6556 7.08889 15.7667 7.26667C15.7667 7.26667 18.0333 10.6667 18.0333 10.6667C18.0333 10.6667 23.5667 10.6667 23.5667 10.6667C23.7222 10.2889 23.8389 9.90556 23.9167 9.51667C23.9944 9.12778 24.0333 8.73333 24.0333 8.33333C23.9889 6.8 23.4778 5.48333 22.5 4.38333C21.5222 3.28333 20.3 2.73333 18.8333 2.73333C18.1444 2.73333 17.4833 2.86667 16.85 3.13333C16.2167 3.4 15.6667 3.78889 15.2 4.3C15.2 4.3 14.3 5.26667 14.3 5.26667C14.1889 5.4 14.0444 5.50556 13.8667 5.58333C13.6889 5.66111 13.5111 5.7 13.3333 5.7C13.1556 5.7 12.9778 5.66111 12.8 5.58333C12.6222 5.50556 12.4667 5.4 12.3333 5.26667C12.3333 5.26667 11.4333 4.3 11.4333 4.3C10.9667 3.78889 10.4222 3.38889 9.8 3.1C9.17778 2.81111 8.51111 2.66667 7.8 2.66667C6.33333 2.66667 5.11111 3.22778 4.13333 4.35C3.15556 5.47222 2.66667 6.8 2.66667 8.33333C2.66667 8.73333 2.7 9.12778 2.76667 9.51667C2.83333 9.90556 2.94444 10.2889 3.1 10.6667C3.1 10.6667 9.33333 10.6667 9.33333 10.6667C9.55556 10.6667 9.76667 10.7222 9.96667 10.8333C10.1667 10.9444 10.3222 11.0889 10.4333 11.2667C10.4333 11.2667 11.6 13 11.6 13C11.6 13 13.4 7.6 13.4 7.6C13.4889 7.33333 13.65 7.11111 13.8833 6.93333C14.1167 6.75556 14.3778 6.66667 14.6667 6.66667C14.6667 6.66667 14.6667 6.66667 14.6667 6.66667ZM15.0667 11C15.0667 11 13.2667 16.4 13.2667 16.4C13.1778 16.6667 13.0111 16.8889 12.7667 17.0667C12.5222 17.2444 12.2556 17.3333 11.9667 17.3333C11.7444 17.3333 11.5333 17.2778 11.3333 17.1667C11.1333 17.0556 10.9778 16.9111 10.8667 16.7333C10.8667 16.7333 8.6 13.3333 8.6 13.3333L5.2 13.3333C5.2 13.3333 13.1 21.2333 13.1 21.2333C13.1444 21.2778 13.1833 21.3056 13.2167 21.3167C13.25 21.3278 13.2889 21.3333 13.3333 21.3333C13.3778 21.3333 13.4167 21.3278 13.45 21.3167C13.4833 21.3056 13.5222 21.2778 13.5667 21.2333C13.5667 21.2333 21.4333 13.3333 21.4333 13.3333C21.4333 13.3333 17.3333 13.3333 17.3333 13.3333C17.1111 13.3333 16.9 13.2778 16.7 13.1667C16.5 13.0556 16.3333 12.9111 16.2 12.7333C16.2 12.7333 15.0667 11 15.0667 11L15.0667 11Z" fill="#FDEFEF" transform="translate(2.667 4)" />
  </g>
</svg>