<?xml version="1.0" encoding="utf-8"?>
<svg width="32" height="32" viewBox="0 0 32 32" fill="none" xmlns="http://www.w3.org/2000/svg">
  <g transform="translate(0 0)">
    <path d="M13.3333 24C12.9333 24 12.55 23.9278 12.1833 23.7833C11.8167 23.6389 11.4889 23.4222 11.2 23.1333C11.2 23.1333 2.26667 14.1667 2.26667 14.1667C1.48889 13.3889 0.916667 12.5 0.55 11.5C0.183333 10.5 0 9.45556 0 8.36667C0 6.07778 0.744445 4.11111 2.23333 2.46667C3.72222 0.822223 5.57778 0 7.8 0C8.86667 0 9.87222 0.211111 10.8167 0.633333C11.7611 1.05556 12.6 1.64444 13.3333 2.4C14.0444 1.64444 14.8722 1.05556 15.8167 0.633333C16.7611 0.211111 17.7667 0 18.8333 0C21.0556 0 22.9167 0.822223 24.4167 2.46667C25.9167 4.11111 26.6667 6.06667 26.6667 8.33333C26.6667 9.42222 26.4778 10.4667 26.1 11.4667C25.7222 12.4667 25.1556 13.3556 24.4 14.1333C24.4 14.1333 15.4333 23.1333 15.4333 23.1333C15.1444 23.4222 14.8222 23.6389 14.4667 23.7833C14.1111 23.9278 13.7333 24 13.3333 24C13.3333 24 13.3333 24 13.3333 24ZM14.6667 6.66669C14.889 6.66669 15.1001 6.72224 15.3001 6.83335C15.5001 6.94446 15.6556 7.08891 15.7667 7.26669C15.7667 7.26669 18.0334 10.6667 18.0334 10.6667C18.0334 10.6667 23.5667 10.6667 23.5667 10.6667C23.7223 10.2889 23.839 9.90558 23.9167 9.51669C23.9945 9.1278 24.0334 8.73335 24.0334 8.33335C23.989 6.80002 23.4779 5.48335 22.5001 4.38335C21.5223 3.28335 20.3001 2.73335 18.8334 2.73335C18.1445 2.73335 17.4834 2.86669 16.8501 3.13335C16.2167 3.40002 15.6667 3.78891 15.2001 4.30002C15.2001 4.30002 14.3001 5.26669 14.3001 5.26669C14.189 5.40002 14.0445 5.50558 13.8667 5.58335C13.689 5.66113 13.5112 5.70002 13.3334 5.70002C13.1556 5.70002 12.9779 5.66113 12.8001 5.58335C12.6223 5.50558 12.4667 5.40002 12.3334 5.26669C12.3334 5.26669 11.4334 4.30002 11.4334 4.30002C10.9667 3.78891 10.4223 3.38891 9.80008 3.10002C9.17786 2.81113 8.51119 2.66669 7.80008 2.66669C6.33342 2.66669 5.11119 3.2278 4.13341 4.35002C3.15564 5.47224 2.66675 6.80002 2.66675 8.33335C2.66675 8.73335 2.70008 9.1278 2.76675 9.51669C2.83342 9.90558 2.94453 10.2889 3.10008 10.6667C3.10008 10.6667 9.33342 10.6667 9.33342 10.6667C9.55564 10.6667 9.76675 10.7222 9.96675 10.8334C10.1667 10.9445 10.3223 11.0889 10.4334 11.2667C10.4334 11.2667 11.6001 13 11.6001 13C11.6001 13 13.4001 7.60002 13.4001 7.60002C13.489 7.33335 13.6501 7.11113 13.8834 6.93335C14.1167 6.75558 14.3779 6.66669 14.6667 6.66669C14.6667 6.66669 14.6667 6.66669 14.6667 6.66669ZM15.0666 11C15.0666 11 13.2666 16.4 13.2666 16.4C13.1777 16.6667 13.0111 16.8889 12.7666 17.0667C12.5222 17.2444 12.2555 17.3333 11.9666 17.3333C11.7444 17.3333 11.5333 17.2778 11.3333 17.1667C11.1333 17.0556 10.9777 16.9111 10.8666 16.7333C10.8666 16.7333 8.59995 13.3333 8.59995 13.3333L5.19995 13.3333C5.19995 13.3333 13.1 21.2333 13.1 21.2333C13.1444 21.2778 13.1833 21.3056 13.2166 21.3167C13.25 21.3278 13.2888 21.3333 13.3333 21.3333C13.3777 21.3333 13.4166 21.3278 13.45 21.3167C13.4833 21.3056 13.5222 21.2778 13.5666 21.2333C13.5666 21.2333 21.4333 13.3333 21.4333 13.3333C21.4333 13.3333 17.3333 13.3333 17.3333 13.3333C17.1111 13.3333 16.9 13.2778 16.7 13.1667C16.5 13.0556 16.3333 12.9111 16.2 12.7333C16.2 12.7333 15.0666 11 15.0666 11L15.0666 11Z" fill="#191682" transform="translate(2.667 4)" />
  </g>
</svg>