<?xml version="1.0" encoding="utf-8"?>
<svg width="381.834" height="377.175" viewBox="0 0 381.834 377.175" fill="none" xmlns="http://www.w3.org/2000/svg">
  <g>
    <path d="M127.828 137.006C130.259 137.006 132.213 138.958 132.213 141.357C132.213 143.786 130.259 145.738 127.828 145.738C127.828 145.738 60.2041 145.738 60.2041 145.738L60.2041 308.97L321.688 308.97L321.688 145.738C321.688 145.738 255.481 145.738 255.481 145.738C253.095 145.738 251.126 143.786 251.126 141.357C251.126 138.973 253.08 137.006 255.481 137.006C255.481 137.006 326.072 137.006 326.072 137.006C328.458 137.006 330.427 138.958 330.427 141.357C330.427 141.357 330.427 313.352 330.427 313.352C330.427 315.736 328.473 317.703 326.072 317.703C326.072 317.703 55.8475 317.703 55.8475 317.703C53.4164 317.703 51.4627 315.751 51.4627 313.352C51.4627 313.352 51.4627 141.357 51.4627 141.357C51.4627 138.973 53.4165 137.006 55.8475 137.006C55.8475 137.006 127.828 137.006 127.828 137.006ZM166.769 135.307C166.769 135.307 141.862 183.054 141.862 183.054C141.28 184.216 139.863 184.648 138.745 184.067C135.15 182.219 131.243 180.848 127.141 180.088C126.38 179.984 125.799 179.507 125.47 178.821C125.112 178.136 125.142 177.406 125.47 176.72C125.47 176.72 151.467 126.845 151.467 126.845C151.825 126.19 152.377 125.802 153.093 125.653C153.779 125.504 154.435 125.683 155.017 126.13C159.625 129.602 162.444 130.869 165.785 132.21C166.978 132.642 167.351 134.207 166.769 135.325C166.769 135.325 166.769 135.307 166.769 135.307ZM169.738 225.329C169.738 225.329 212.2 225.329 212.2 225.329C212.856 225.329 213.438 225.583 213.9 226.059C214.332 226.566 214.556 227.147 214.511 227.833C214.482 228.563 214.437 229.323 214.437 230.083C214.437 233.451 214.944 236.714 215.884 239.784C216.107 240.514 215.958 241.229 215.526 241.855C215.048 242.466 214.407 242.794 213.646 242.794C213.646 242.794 168.244 242.794 168.244 242.794C167.484 242.794 166.827 242.466 166.395 241.855C165.918 241.244 165.813 240.514 166.037 239.784C166.977 236.699 167.484 233.451 167.484 230.083C167.484 229.323 167.454 228.563 167.409 227.833C167.335 227.147 167.558 226.566 168.021 226.059C168.453 225.583 169.035 225.329 169.721 225.329C169.721 225.329 169.738 225.329 169.738 225.329ZM215.166 135.307C215.166 135.307 240.044 183.054 240.044 183.054C240.656 184.216 242.043 184.648 243.191 184.067C246.786 182.219 250.663 180.848 254.795 180.088C255.556 179.984 256.137 179.507 256.465 178.821C256.794 178.136 256.794 177.406 256.436 176.72C256.436 176.72 230.439 126.845 230.439 126.845C230.111 126.19 229.574 125.802 228.843 125.653C228.157 125.504 227.471 125.683 226.889 126.13C222.281 129.602 219.492 130.869 216.121 132.21C214.958 132.642 214.6 134.207 215.181 135.325C215.181 135.325 215.166 135.307 215.166 135.307ZM293.08 200.113C285.399 192.439 274.809 187.73 263.101 187.73C251.393 187.73 240.804 192.439 233.122 200.113C225.471 207.788 220.728 218.368 220.728 230.066C220.728 241.734 225.471 252.343 233.122 259.988C240.803 267.663 251.393 272.416 263.101 272.416C274.809 272.416 285.399 267.677 293.08 259.988C300.731 252.344 305.474 241.734 305.474 230.066C305.474 218.368 300.731 207.788 293.08 200.113C293.08 200.113 293.08 200.113 293.08 200.113ZM252.84 223.837C252.84 223.837 252.84 223.807 252.84 223.807C252.333 223.658 251.931 223.524 251.647 223.271C251.364 223.017 251.14 222.734 250.916 222.079C250.693 221.423 250.439 220.484 250.26 219.62C250.081 218.785 249.977 218.025 249.902 217.37C249.872 216.714 249.872 216.133 250.007 215.701C250.186 215.269 250.588 214.941 250.872 214.836C251.155 214.762 251.304 214.807 251.453 214.762C251.558 214.732 251.379 214.658 251.379 214.613C251.379 214.613 251.021 209.68 251.021 209.68C250.797 207.4 251.274 204.107 252.945 202.587C253.347 202.229 254.69 201.976 254.899 202.185C254.675 201.708 254.57 201.067 255.078 200.367C255.555 199.681 256.703 198.34 257.867 197.834C259.612 197.044 261.595 196.463 263.564 196.641C265.742 196.82 267.874 197.759 269.724 198.966C271.215 199.905 272.438 201.32 273.274 202.885C274.139 204.554 274.392 206.402 274.586 208.384C274.735 210.38 274.586 212.735 274.303 214.762C274.527 214.762 274.735 214.791 274.914 214.866C275.347 215.045 275.705 215.298 275.899 215.849C276.078 216.356 276.048 217.116 276.003 217.876C275.929 218.636 275.824 219.366 275.645 220.126C275.466 220.886 275.213 221.646 274.959 222.198C274.735 222.779 274.556 223.062 274.228 223.315C273.945 223.568 273.542 223.717 273.065 223.852C272.961 223.881 272.886 223.926 272.782 223.926C272.782 223.926 272.632 226.251 272.632 226.251C272.558 227.622 272.051 228.754 271.141 229.768C271.141 229.768 271.141 233.746 271.141 233.746C271.141 234.536 270.813 235.237 270.157 235.743C270.157 235.743 264.206 240.303 264.206 240.303C264.206 240.303 266.383 241.57 266.383 241.57C266.786 241.823 266.562 242.359 266.383 242.807C266.383 242.807 265.518 244.833 265.518 244.833C265.294 245.31 265.041 245.697 265.235 246.174C265.235 246.174 265.458 246.681 265.458 246.681L266.831 251.614C266.831 251.614 267.233 263.49 267.233 263.49C265.861 263.639 264.474 263.744 263.102 263.744C261.73 263.744 260.343 263.639 258.971 263.49C258.971 263.49 259.373 251.614 259.373 251.614L260.746 246.681C260.746 246.681 260.85 246.398 260.85 246.398C261.074 245.891 260.82 245.489 260.596 245.027C260.596 245.027 259.552 242.821 259.552 242.821C259.329 242.389 259.12 241.838 259.552 241.585C259.552 241.585 261.834 240.214 261.834 240.214C261.834 240.214 256.033 235.758 256.033 235.758C255.376 235.251 255.048 234.566 255.048 233.761C255.048 233.761 255.048 230.319 255.048 230.319C255.048 230.319 254.616 229.842 254.616 229.842C253.631 228.829 253.094 227.666 253.02 226.251C253.02 226.251 252.871 223.866 252.871 223.866L252.841 223.866L252.84 223.837ZM268.605 263.282C268.605 263.282 271.752 248.649 271.752 248.649C272.945 246.369 273.348 245.028 273.422 242.569C273.497 240.289 273.318 237.07 273.139 233.732C273.139 233.583 273.214 233.449 273.318 233.404C273.467 233.33 273.601 233.33 273.721 233.434C274.735 234.298 275.898 235.207 278.151 236.072C280.91 237.16 285.22 238.277 288.009 238.933C290.768 239.618 292.036 239.916 292.901 240.557C293.691 241.138 294.214 242.077 294.9 244.431C295.049 244.864 295.004 245.266 294.75 245.624C293.184 248.306 291.275 250.735 289.098 252.911C283.698 258.35 276.584 262.075 268.62 263.267C268.62 263.267 268.605 263.282 268.605 263.282ZM231.259 244.446C231.99 242.092 232.497 241.153 233.287 240.572C234.152 239.917 235.39 239.633 238.179 238.978C240.968 238.292 245.279 237.16 248.038 236.087C250.245 235.223 251.453 234.314 252.467 233.449C252.572 233.375 252.721 233.345 252.825 233.419C252.975 233.449 253.049 233.598 253.049 233.747C252.825 237.085 252.646 240.304 252.766 242.584C252.84 245.043 253.243 246.384 254.436 248.664C254.436 248.664 257.553 263.297 257.553 263.297C249.619 262.105 242.504 258.365 237.105 252.941C234.928 250.765 233.004 248.336 231.408 245.654C231.184 245.296 231.154 244.864 231.258 244.462C231.258 244.462 231.259 244.446 231.259 244.446ZM148.779 200.114C141.127 192.44 130.508 187.731 118.829 187.731C107.121 187.731 96.532 192.44 88.8506 200.114C81.1993 207.789 76.4564 218.369 76.4564 230.067C76.4564 241.735 81.1994 252.345 88.8506 259.99C96.5316 267.664 107.121 272.417 118.829 272.417C130.508 272.417 141.127 267.679 148.779 259.99C156.46 252.345 161.217 241.735 161.217 230.067C161.217 218.369 156.474 207.789 148.779 200.114C148.779 200.114 148.779 200.114 148.779 200.114ZM108.569 223.838C108.569 223.838 108.539 223.808 108.539 223.808C108.062 223.659 107.674 223.525 107.376 223.272C107.093 223.019 106.869 222.735 106.645 222.08C106.392 221.424 106.138 220.485 105.959 219.621C105.78 218.786 105.676 218.027 105.631 217.371C105.556 216.715 105.601 216.134 105.735 215.702C105.884 215.27 106.317 214.942 106.6 214.838C106.884 214.763 107.033 214.808 107.182 214.763C107.286 214.733 107.107 214.659 107.107 214.614C107.107 214.614 106.749 209.682 106.749 209.682C106.526 207.402 107.003 204.108 108.673 202.588C109.076 202.231 110.374 201.977 110.627 202.186C110.374 201.709 110.269 201.068 110.776 200.368C111.284 199.682 112.402 198.341 113.566 197.835C115.34 197.045 117.339 196.464 119.263 196.643C121.47 196.821 123.573 197.76 125.423 198.967C126.914 199.906 128.182 201.322 128.973 202.886C129.838 204.555 130.091 206.403 130.285 208.385C130.464 210.382 130.315 212.736 130.032 214.763C130.255 214.763 130.464 214.793 130.643 214.867C131.046 215.046 131.434 215.299 131.627 215.851C131.806 216.357 131.777 217.117 131.702 217.877C131.627 218.637 131.523 219.367 131.344 220.127C131.165 220.887 130.912 221.647 130.688 222.199C130.464 222.78 130.255 223.063 129.957 223.316C129.674 223.57 129.271 223.719 128.764 223.853C128.689 223.883 128.585 223.927 128.51 223.927C128.51 223.927 128.361 226.252 128.361 226.252C128.257 227.623 127.779 228.755 126.87 229.769C126.87 229.769 126.87 233.748 126.87 233.748C126.87 234.537 126.512 235.238 125.885 235.744C125.885 235.744 119.934 240.304 119.934 240.304C119.934 240.304 122.067 241.571 122.067 241.571C122.5 241.824 122.291 242.361 122.067 242.808C122.067 242.808 121.202 244.834 121.202 244.834C121.023 245.311 120.725 245.699 120.948 246.176C120.948 246.176 121.172 246.682 121.172 246.682L122.514 251.615C122.514 251.615 122.917 263.491 122.917 263.491C121.575 263.64 120.203 263.745 118.816 263.745C117.399 263.745 116.027 263.64 114.684 263.491C114.684 263.491 115.087 251.615 115.087 251.615L116.429 246.682C116.429 246.682 116.579 246.399 116.579 246.399C116.802 245.892 116.549 245.49 116.325 245.028C116.325 245.028 115.281 242.823 115.281 242.823C115.057 242.391 114.848 241.839 115.281 241.586C115.281 241.586 117.563 240.215 117.563 240.215C117.563 240.215 111.731 235.759 111.731 235.759C111.12 235.253 110.747 234.567 110.747 233.762C110.747 233.762 110.747 230.32 110.747 230.32C110.747 230.32 110.315 229.843 110.315 229.843C109.33 228.83 108.823 227.668 108.749 226.252C108.749 226.252 108.57 223.868 108.57 223.868L108.569 223.838ZM124.334 263.283C124.334 263.283 127.481 248.65 127.481 248.65C128.644 246.37 129.047 245.029 129.151 242.57C129.226 240.29 129.047 237.071 128.868 233.733C128.838 233.584 128.898 233.45 129.047 233.405C129.196 233.331 129.33 233.331 129.45 233.435C130.434 234.3 131.627 235.209 133.88 236.073C136.594 237.161 140.949 238.278 143.708 238.934C146.497 239.619 147.735 239.917 148.6 240.558C149.435 241.139 149.913 242.078 150.629 244.433C150.778 244.865 150.703 245.267 150.479 245.625C148.913 248.307 147.004 250.736 144.827 252.912C139.383 258.351 132.283 262.076 124.349 263.268C124.349 263.268 124.334 263.283 124.334 263.283ZM86.9876 244.448C87.7185 242.093 88.2256 241.154 89.016 240.573C89.8811 239.918 91.119 239.634 93.9079 238.979C96.697 238.293 101.007 237.161 103.737 236.088C105.989 235.224 107.182 234.315 108.167 233.45C108.271 233.376 108.45 233.346 108.569 233.42C108.718 233.45 108.793 233.599 108.793 233.748C108.569 237.086 108.39 240.305 108.465 242.585C108.569 245.044 108.972 246.385 110.135 248.665C110.135 248.665 113.282 263.298 113.282 263.298C105.348 262.106 98.2333 258.366 92.8042 252.942C90.6267 250.766 88.7474 248.337 87.1514 245.655C86.9277 245.297 86.8979 244.865 87.0023 244.463C87.0023 244.463 86.9876 244.448 86.9876 244.448ZM236.507 18.8356C224.829 7.21229 208.736 0 190.926 0C173.163 0 157.069 7.21229 145.39 18.8356C133.757 30.5036 126.538 46.5823 126.538 64.3769C126.538 82.1246 133.757 98.2036 145.39 109.872C157.069 121.496 173.162 128.708 190.926 128.708C208.734 128.708 224.827 121.496 236.507 109.872C248.141 98.2044 255.36 82.1257 255.36 64.3769C255.36 46.5842 248.141 30.5055 236.507 18.8356C236.507 18.8356 236.507 18.8356 236.507 18.8356ZM175.371 54.8826C175.371 54.8826 175.341 54.8826 175.341 54.8826C174.61 54.659 173.999 54.4057 173.522 54.0481C173.089 53.6904 172.761 53.1838 172.433 52.2003C172.075 51.2615 171.702 49.816 171.419 48.5047C171.135 47.1933 170.986 46.0459 170.882 45.0624C170.807 44.0491 170.852 43.2146 171.061 42.5291C171.314 41.8734 171.926 41.337 172.373 41.2178C172.851 41.0688 173.059 41.1433 173.238 41.1135C173.462 41.039 173.164 40.9347 173.134 40.8601C173.134 40.8601 172.627 33.3648 172.627 33.3648C172.269 29.9225 172.985 24.9306 175.52 22.6059C176.102 22.0694 178.13 21.6671 178.488 21.9949C178.13 21.3094 177.951 20.3259 178.742 19.2828C179.502 18.2397 181.203 16.1683 182.978 15.3638C185.662 14.1717 188.705 13.2627 191.643 13.5458C194.939 13.8737 198.176 15.2893 200.995 17.0924C203.247 18.5379 205.171 20.6837 206.394 23.0382C207.706 25.5715 208.094 28.358 208.392 31.4129C208.646 34.423 208.422 38.0442 207.99 41.0842C208.318 41.0842 208.601 41.1587 208.9 41.263C209.556 41.5163 210.137 41.9485 210.391 42.7085C210.674 43.4983 210.645 44.6606 210.54 45.8229C210.436 46.9406 210.257 48.1029 210.003 49.2652C209.72 50.4275 209.317 51.5899 208.989 52.4094C208.631 53.2439 208.333 53.7208 207.87 54.0784C207.438 54.4361 206.826 54.6894 206.096 54.9129C205.946 54.9874 205.812 55.0172 205.693 55.0619C205.693 55.0619 205.439 58.5787 205.439 58.5787C205.29 60.6054 204.574 62.3786 203.187 63.8687C203.187 63.8687 203.187 69.9488 203.187 69.9488C203.187 71.1856 202.68 72.1989 201.696 72.9589C201.696 72.9589 192.672 79.8733 192.672 79.8733C192.672 79.8733 195.939 81.8254 195.939 81.8254C196.595 82.183 196.222 83.0622 195.939 83.703C195.939 83.703 194.626 86.7429 194.626 86.7429C194.298 87.4731 193.895 88.1139 194.223 88.8441C194.223 88.8441 194.552 89.5743 194.552 89.5743L196.58 97.0696C196.58 97.0696 197.191 115.145 197.191 115.145C195.118 115.369 193.06 115.473 190.912 115.473C188.809 115.473 186.706 115.369 184.678 115.145C184.678 115.145 185.26 97.0696 185.26 97.0696L187.333 89.5743C187.333 89.5743 187.512 89.1421 187.512 89.1421C187.84 88.3821 187.482 87.7711 187.109 87.041C187.109 87.041 185.513 83.703 185.513 83.703C185.185 83.0473 184.902 82.1831 185.513 81.8254C185.513 81.8254 189.033 79.7243 189.033 79.7243C189.033 79.7243 180.144 72.9442 180.144 72.9442C179.205 72.1842 178.653 71.1709 178.653 69.9341C178.653 69.9341 178.653 64.6887 178.653 64.6887C178.653 64.6887 177.996 64.0033 177.996 64.0033C176.505 62.4833 175.744 60.6653 175.61 58.5343C175.61 58.5343 175.357 54.8685 175.357 54.8685L175.371 54.8826ZM199.339 114.878C199.339 114.878 204.127 92.6005 204.127 92.6005C205.901 89.1582 206.513 87.1315 206.662 83.3614C206.766 79.9191 206.513 74.9867 206.185 69.9649C206.185 69.7414 206.289 69.5327 206.513 69.4582C206.692 69.3539 206.916 69.3837 207.095 69.5327C208.616 70.8739 210.436 72.215 213.836 73.5562C217.967 75.2252 224.53 76.8942 228.781 77.9074C232.987 78.9505 234.911 79.3529 236.208 80.3662C237.446 81.2752 238.207 82.6908 239.296 86.2673C239.475 86.8783 239.4 87.5339 239.072 88.0853C236.685 92.1385 233.777 95.879 230.481 99.1719C222.218 107.397 211.405 113.075 199.339 114.893C199.339 114.893 199.339 114.878 199.339 114.878ZM142.605 86.2224C143.693 82.6758 144.424 81.2601 145.647 80.351C146.99 79.3377 148.869 78.9354 153.075 77.8923C157.311 76.879 163.873 75.21 168.049 73.5411C171.465 72.2 173.27 70.8588 174.761 69.5176C174.94 69.3686 175.164 69.3388 175.372 69.4431C175.596 69.5176 175.701 69.7262 175.656 69.9497C175.372 74.9864 175.074 79.919 175.223 83.3462C175.328 87.1163 175.954 89.1429 177.759 92.5853C177.759 92.5853 182.502 114.863 182.502 114.863C170.466 113.045 159.622 107.368 151.39 99.1419C148.093 95.8486 145.185 92.1081 142.799 88.0552C142.441 87.4741 142.366 86.8631 142.575 86.2074C142.575 86.2074 142.605 86.2224 142.605 86.2224ZM12.2632 333.171L31.876 333.171C31.876 333.171 31.876 131.359 31.876 131.359C31.876 127.157 33.5763 123.357 36.3357 120.6C36.3357 120.6 36.619 120.347 36.619 120.347C39.3335 117.739 43.0324 116.145 47.1042 116.145C47.1042 116.145 135.862 116.145 135.862 116.145C138.293 116.145 140.246 118.097 140.246 120.496C140.246 122.925 138.293 124.877 135.862 124.877C135.862 124.877 47.1041 124.877 47.1041 124.877C45.4039 124.877 43.8378 125.532 42.6743 126.62C42.6743 126.62 42.4953 126.769 42.4953 126.769C41.332 127.961 40.616 129.601 40.616 131.374C40.616 131.374 40.616 333.185 40.616 333.185C40.616 333.185 150.912 333.185 150.912 333.185C154.104 333.185 156.818 334.198 159.145 336.299C159.145 336.299 162.948 339.772 162.948 339.772C164.066 340.785 165.23 341.545 166.468 342.022C167.661 342.499 169.048 342.707 170.525 342.707C170.525 342.707 211.345 342.707 211.345 342.707C212.866 342.707 214.208 342.484 215.446 342.022C216.684 341.545 217.833 340.785 218.921 339.816C218.921 339.816 222.725 336.344 222.725 336.344C222.725 336.344 223.008 336.091 223.008 336.091C224.097 335.182 225.26 334.467 226.558 333.96C227.93 333.453 229.421 333.2 230.943 333.2C230.943 333.2 341.269 333.2 341.269 333.2C341.269 333.2 341.269 131.389 341.269 131.389C341.269 129.615 340.538 127.976 339.345 126.784C338.182 125.622 336.556 124.907 334.736 124.907C334.736 124.907 246.918 124.907 246.918 124.907C244.532 124.907 242.563 122.954 242.563 120.526C242.563 118.141 244.517 116.174 246.918 116.174C246.918 116.174 334.736 116.174 334.736 116.174C338.943 116.174 342.746 117.873 345.505 120.63C345.505 120.63 345.535 120.63 345.535 120.63C348.294 123.387 349.994 127.187 349.994 131.389C349.994 131.389 349.994 333.2 349.994 333.2C349.994 333.2 369.607 333.2 369.607 333.2C372.575 333.2 375.334 334.244 377.482 336.062C379.615 337.88 381.151 340.413 381.658 343.304C381.658 343.304 381.733 343.736 381.733 343.736C382.091 346.567 381.479 349.309 380.137 351.604C378.765 353.928 376.617 355.776 373.933 356.79C373.933 356.79 344.491 372.287 344.491 372.287C344.237 372.436 343.984 372.541 343.701 372.615C339.166 374.18 334.886 375.327 330.546 376.057C330.546 376.057 330.397 376.087 330.397 376.087C325.967 376.817 321.552 377.175 316.794 377.175C316.794 377.175 65.0616 377.175 65.0616 377.175C60.274 377.175 55.7846 376.817 51.3249 376.057C51.3249 376.057 51.2951 376.057 51.2951 376.057C46.9103 375.297 42.5549 374.135 37.9464 372.541C37.7674 372.466 37.5437 372.392 37.3647 372.287C37.3647 372.287 7.84824 356.79 7.84824 356.79C5.20831 355.746 3.1053 353.899 1.71815 351.604C0.301263 349.219 -0.310257 346.314 0.152087 343.378C0.152087 343.378 0.181916 343.304 0.181916 343.304C0.181916 343.304 0.152087 343.304 0.152087 343.304C0.689038 340.413 2.22524 337.865 4.3582 336.062C6.49099 334.244 9.25005 333.201 12.2332 333.201C12.2332 333.201 12.2632 333.171 12.2632 333.171ZM150.909 341.903C150.909 341.903 12.2631 341.903 12.2631 341.903C11.3981 341.903 10.5927 342.186 9.98117 342.693C9.39951 343.2 8.96699 343.93 8.81781 344.794C8.66866 345.629 8.84764 346.463 9.25033 347.119C9.65304 347.774 10.2645 348.311 11.0252 348.609C11.2489 348.683 11.5024 348.788 11.7113 348.892C11.7113 348.892 41.183 364.39 41.183 364.39C45.1356 365.761 48.9385 366.744 52.7869 367.43C56.7093 368.085 60.6917 368.413 65.0768 368.413C65.0768 368.413 316.81 368.413 316.81 368.413C321.12 368.413 325.072 368.085 328.95 367.43C328.95 367.43 329.099 367.43 329.099 367.43C332.947 366.744 336.751 365.761 340.703 364.39C340.703 364.39 370.041 348.952 370.041 348.952C370.264 348.847 370.473 348.728 370.727 348.624C371.562 348.341 372.218 347.789 372.606 347.104C373.009 346.493 373.188 345.733 373.113 344.928C373.113 344.928 373.083 344.779 373.083 344.779C372.934 343.915 372.502 343.155 371.89 342.648C371.308 342.171 370.518 341.888 369.638 341.888C369.638 341.888 230.962 341.888 230.962 341.888C230.454 341.888 230.022 341.963 229.649 342.112C229.321 342.216 228.993 342.395 228.709 342.648C228.709 342.648 224.832 346.195 224.832 346.195C224.832 346.195 224.802 346.224 224.802 346.224C222.878 347.968 220.82 349.235 218.568 350.099C216.286 350.963 213.884 351.41 211.349 351.41C211.349 351.41 170.529 351.41 170.529 351.41C167.993 351.41 165.592 350.978 163.31 350.099C161.058 349.235 159 347.923 157.106 346.224C155.987 345.107 154.495 343.796 153.302 342.752C152.646 342.171 151.856 341.888 150.916 341.888C150.916 341.888 150.909 341.903 150.909 341.903Z" fill="#E6DDDD" />
  </g>
</svg>