<?xml version="1.0" encoding="utf-8"?>
<svg width="240" height="240" viewBox="0 0 240 240" fill="none" xmlns="http://www.w3.org/2000/svg">
  <g>
    <g transform="translate(5.401 16.74)">
      <path d="M70.1963 45.6999L74.2163 43.6913L52.388 0L33.8076 0L33.8076 4.6875L49.4901 4.6875L69.9797 45.7003L0 45.7003L0 146.638L100.937 146.638L100.937 45.6999L70.1963 45.6999L70.1963 45.6999ZM96.2503 141.95L4.68797 141.95L4.68797 50.3873L96.2503 50.3873L96.2503 141.95L96.2503 141.95Z" fill="#070216" transform="translate(128.261 59.883)" />
      <path d="M14.8467 0L14.8467 14.8467L0 14.8467L0 31.4644L14.8467 31.4644L14.8467 46.3111L31.4644 46.3111L31.4644 31.4644L46.3106 31.4644L46.3106 14.8467L31.4644 14.8467L31.4644 0L14.8467 0L14.8467 0ZM41.6231 19.5342L41.6231 26.7769L26.7774 26.7769L26.7774 41.6236L19.5347 41.6236L19.5347 26.7769L4.68797 26.7769L4.68797 19.5342L19.5347 19.5342L19.5347 4.6875L26.7774 4.6875L26.7774 19.5342L41.6231 19.5342L41.6231 19.5342Z" fill="#070216" transform="translate(87.568 39.071)" />
      <path d="M119.426 154.111L114.739 154.111L114.739 164.18C114.739 164.18 72.4103 164.18 72.4103 164.18C71.5094 156.409 64.8977 150.319 56.8966 150.267C56.8966 150.267 35.6298 150.126 35.6298 150.126C32.9378 150.102 30.4267 149.021 28.5592 147.081C26.7119 145.161 25.727 142.644 25.7809 139.983C25.7809 139.983 26.0659 137.464 26.0659 137.464C26.4405 133.995 25.0337 130.627 22.3028 128.454C22.3028 128.454 20.1705 126.758 20.1705 126.758C18.9269 125.768 18.453 124.099 18.9911 122.604C19.8301 120.273 19.6 117.706 18.3601 115.561C18.3601 115.561 17.305 113.736 17.305 113.736C16.7523 112.78 16.6581 111.627 17.0472 110.572C18.5509 106.496 19.8812 100.757 17.6814 96.5637C16.5428 94.3938 14.5619 92.8933 11.9519 92.224C9.92874 91.706 8.23327 90.9743 6.90952 90.0466C5.67952 89.1874 4.90421 87.8791 4.72562 86.3637C4.54281 84.8107 5.03359 83.2502 6.07234 82.0821C6.07234 82.0821 23.6692 62.2774 23.6692 62.2774C23.6692 62.2774 23.7198 62.2183 23.7198 62.2183C25.548 60.018 25.6206 55.8124 25.5967 54.5341C25.5967 54.5341 25.5967 34.5316 25.5967 34.5316C25.5967 27.7516 27.6447 21.2215 31.5189 15.6485C31.5189 15.6485 37.1955 7.49226 37.1955 7.49226C38.8192 5.15882 41.7372 4.14538 44.4587 4.9746C51.6189 7.14632 56.5769 8.65382 63.8941 10.8785C63.8941 10.8785 67.8475 12.0804 67.8475 12.0804L69.2111 7.59538C69.2111 7.59538 65.2572 6.39398 65.2572 6.39398C57.9386 4.16882 52.9802 2.66085 45.8205 0.489131C41.1489 -0.930243 36.1361 0.807881 33.348 4.81522C33.348 4.81522 27.6705 12.9733 27.6705 12.9733C23.2469 19.3371 20.9092 26.7921 20.9092 34.533C20.9092 34.533 20.9097 54.6016 20.9097 54.6016C20.9392 56.2774 20.613 58.5813 20.1301 59.2033C20.1301 59.2033 2.56843 78.9687 2.56843 78.9687C0.641399 81.1352 -0.269382 84.0307 0.0695247 86.9116C0.4014 89.734 1.91593 92.2774 4.22171 93.8876C6.00671 95.1382 8.21593 96.1057 10.7875 96.7652C12.1319 97.1102 13.0033 97.7374 13.5301 98.7419C14.6064 100.794 14.2853 104.514 12.6489 108.95C11.7761 111.317 11.9941 113.917 13.247 116.083C13.247 116.083 14.3017 117.908 14.3017 117.908C14.8492 118.855 14.9509 119.988 14.5801 121.017C13.3609 124.405 14.4344 128.186 17.2516 130.426C17.2516 130.426 19.3839 132.123 19.3839 132.123C20.8506 133.289 21.6062 135.098 21.4061 136.949C21.4061 136.949 21.1108 139.56 21.1108 139.56C21.1108 139.56 21.0967 139.754 21.0967 139.754C20.9809 143.718 22.4312 147.475 25.1814 150.331C27.9297 153.186 31.6258 154.778 35.5928 154.813C35.5928 154.813 56.8652 154.954 56.8652 154.954C62.3036 154.989 66.8275 158.999 67.683 164.207C67.683 164.207 52.8634 183.379 52.8634 183.379L52.8634 191.836L122.863 191.836L122.863 164.18L119.426 164.18L119.426 154.111L119.426 154.111ZM118.176 178.052L107.395 178.052L107.395 182.739L118.176 182.739L118.176 187.149L57.5514 187.149L57.5514 184.98L70.0047 168.868L118.176 168.868L118.176 178.052L118.176 178.052Z" fill="#070216" transform="translate(0 14.016)" />
      <path d="M15.2367 4.68797C15.2367 4.68797 59.1389 8.98922 59.1389 8.98922C62.5078 9.31875 65.7492 10.2295 68.7727 11.6948C68.7727 11.6948 70.8173 7.47703 70.8173 7.47703C67.2933 5.76844 63.518 4.70766 59.5959 4.32328C59.5959 4.32328 15.5756 0.0107807 15.5756 0.0107807C15.5756 0.0107807 15.3473 0 15.3473 0C9.32062 0 3.72609 2.71875 0 7.45734C0 7.45734 3.68484 10.3552 3.68484 10.3552C6.4936 6.78234 10.6988 4.72125 15.2367 4.68797C15.2367 4.68797 15.2367 4.68797 15.2367 4.68797Z" fill="#070216" transform="translate(35.239 0)" />
      <rect width="4.688" height="41.246" fill="#070216" fill-rule="evenodd" transform="translate(114.739 121.004)" />
      <path d="M0 44.7384C0 69.4078 20.07 89.4773 44.7389 89.4773C69.4078 89.4773 89.4773 69.4078 89.4773 44.7384C89.4773 20.0695 69.4083 0 44.7389 0C20.0695 0 0 20.0695 0 44.7384C0 44.7384 0 44.7384 0 44.7384ZM44.7389 4.6875C66.8231 4.6875 84.7898 22.6542 84.7898 44.7384C84.7898 66.8227 66.8231 84.7898 44.7389 84.7898C22.6542 84.7898 4.6875 66.8227 4.6875 44.7384C4.6875 22.6542 22.6542 4.6875 44.7389 4.6875C44.7389 4.6875 44.7389 4.6875 44.7389 4.6875Z" fill="#070216" transform="translate(65.985 17.488)" />
      <path d="M34.9425 69.8855C54.2095 69.8855 69.8845 54.2105 69.8845 34.9425C69.8845 15.675 54.2095 0 34.9425 0C26.1459 0 17.7408 3.27984 11.2748 9.23531C11.2748 9.23531 14.4506 12.683 14.4506 12.683C20.0484 7.52672 27.3258 4.68703 34.9425 4.68703C51.6248 4.68703 65.197 18.2592 65.197 34.942C65.197 51.6248 51.6248 65.1975 34.9425 65.1975C18.2597 65.1975 4.6875 51.6248 4.6875 34.942C4.6875 28.9753 6.42188 23.2041 9.70266 18.2527C9.70266 18.2527 5.79516 15.6637 5.79516 15.6637C2.00391 21.3848 0 28.0514 0 34.942C-0.000465393 54.2105 15.675 69.8855 34.9425 69.8855C34.9425 69.8855 34.9425 69.8855 34.9425 69.8855Z" fill="#070216" transform="translate(75.782 27.284)" />
      <path d="M35.0096 0L0 0L0 14.4825L35.0096 14.4825L35.0096 0L35.0096 0ZM30.3221 9.795L4.6875 9.795L4.6875 4.6875L30.3221 4.6875L30.3221 9.795L30.3221 9.795Z" fill="#070216" transform="translate(135.965 116.249)" />
      <rect width="28.755" height="4.688" fill="#070216" fill-rule="evenodd" transform="translate(168.631 185.916)" />
      <rect width="51.637" height="4.688" fill="#070216" fill-rule="evenodd" transform="translate(168.631 175.264)" />
      <rect width="51.637" height="4.688" fill="#070216" fill-rule="evenodd" transform="translate(168.631 143.446)" />
      <rect width="8.783" height="4.688" fill="#070216" fill-rule="evenodd" transform="translate(211.485 154.098)" />
      <rect width="36.717" height="4.688" fill="#070216" fill-rule="evenodd" transform="translate(168.631 154.098)" />
      <rect width="29.84" height="4.688" fill="#070216" fill-rule="evenodd" transform="translate(190.428 121.147)" />
      <rect width="7.576" height="4.688" fill="#070216" fill-rule="evenodd" transform="translate(176.289 121.147)" />
      <path d="M15.6249 4.6875L15.6249 0L0 0L0 22.8689L22.8685 22.8689L22.8685 12.735L18.181 12.735L18.181 18.1814L4.6875 18.1814L4.6875 4.6875L15.6249 4.6875Z" fill="#070216" fill-rule="evenodd" transform="translate(136.361 139.681)" />
      <path d="M6.93234 13.7583L3.31407 10.1405L0 13.4545L6.93234 20.3878L24.0061 3.31406L20.6906 0L6.93234 13.7583Z" fill="#070216" fill-rule="evenodd" transform="translate(141.833 136.215)" />
      <path d="M18.181 18.1814L4.6875 18.1814L4.6875 4.6875L15.6249 4.6875L15.6249 0L0 0L0 22.8689L22.8685 22.8689L22.8685 12.735L18.181 12.735L18.181 18.1814Z" fill="#070216" fill-rule="evenodd" transform="translate(136.361 171.499)" />
      <path d="M6.93234 13.7583L3.31407 10.14L0 13.4545L6.93234 20.3878L24.0061 3.31407L20.6906 0L6.93234 13.7583Z" fill="#070216" fill-rule="evenodd" transform="translate(141.833 168.033)" />
    </g>
  </g>
</svg>