<?xml version="1.0" encoding="utf-8"?>
<svg width="32" height="32" viewBox="0 0 32 32" fill="none" xmlns="http://www.w3.org/2000/svg">
  <g>
    <path d="M6.66667 18.6667C5.55556 18.6667 4.61111 18.2778 3.83333 17.5C3.05556 16.7222 2.66667 15.7778 2.66667 14.6667C2.66667 14.6667 0 14.6667 0 14.6667C0 14.6667 0 10.6667 0 10.6667C0 9.2 0.522222 7.94444 1.56667 6.9C2.61111 5.85556 3.86667 5.33333 5.33333 5.33333C5.33333 5.33333 10.6667 5.33333 10.6667 5.33333L10.6667 12L15.3333 12L20 6.2L20 2.66667L16 2.66667L16 0C16 0 20 0 20 0C20.7333 0 21.3611 0.26111 21.8833 0.783333C22.4056 1.30556 22.6667 1.93333 22.6667 2.66667C22.6667 2.66667 22.6667 7.13333 22.6667 7.13333L16.6667 14.6667C16.6667 14.6667 10.6667 14.6667 10.6667 14.6667C10.6667 15.7778 10.2778 16.7222 9.5 17.5C8.72222 18.2778 7.77778 18.6667 6.66667 18.6667C6.66667 18.6667 6.66667 18.6667 6.66667 18.6667ZM6.66667 16C7.04445 16 7.36111 15.8722 7.61667 15.6167C7.87222 15.3611 8 15.0444 8 14.6667C8 14.6667 5.33333 14.6667 5.33333 14.6667C5.33333 15.0444 5.46111 15.3611 5.71667 15.6167C5.97222 15.8722 6.28889 16 6.66667 16C6.66667 16 6.66667 16 6.66667 16ZM4 4L4 1.33333L10.6667 1.33333L10.6667 4L4 4L4 4ZM22.6667 18.6667C21.5556 18.6667 20.6111 18.2778 19.8333 17.5C19.0556 16.7222 18.6667 15.7778 18.6667 14.6667C18.6667 13.5556 19.0556 12.6111 19.8333 11.8333C20.6111 11.0556 21.5556 10.6667 22.6667 10.6667C23.7778 10.6667 24.7222 11.0556 25.5 11.8333C26.2778 12.6111 26.6667 13.5556 26.6667 14.6667C26.6667 15.7778 26.2778 16.7222 25.5 17.5C24.7222 18.2778 23.7778 18.6667 22.6667 18.6667C22.6667 18.6667 22.6667 18.6667 22.6667 18.6667ZM22.6667 16C23.0444 16 23.3611 15.8722 23.6167 15.6167C23.8722 15.3611 24 15.0444 24 14.6667C24 14.2889 23.8722 13.9722 23.6167 13.7167C23.3611 13.4611 23.0444 13.3333 22.6667 13.3333C22.2889 13.3333 21.9722 13.4611 21.7167 13.7167C21.4611 13.9722 21.3333 14.2889 21.3333 14.6667C21.3333 15.0444 21.4611 15.3611 21.7167 15.6167C21.9722 15.8722 22.2889 16 22.6667 16C22.6667 16 22.6667 16 22.6667 16ZM14.6667 26.6667L6.66667 22.6667L12 22.6667L12 20L20 24L14.6667 24L14.6667 26.6667L14.6667 26.6667ZM2.66667 12L8 12L8 8C8 8 5.33333 8 5.33333 8C4.6 8 3.97222 8.26111 3.45 8.78333C2.92778 9.30556 2.66667 9.93333 2.66667 10.6667C2.66667 10.6667 2.66667 12 2.66667 12L2.66667 12Z" fill="#FDEFEF" transform="translate(2.667 4)" />
  </g>
</svg>