<?xml version="1.0" encoding="utf-8"?>
<svg width="32" height="32" viewBox="0 0 32 32" fill="none" xmlns="http://www.w3.org/2000/svg">
  <g>
    <path d="M6.66667 18.6667C5.55556 18.6667 4.61111 18.2778 3.83333 17.5C3.05556 16.7222 2.66667 15.7778 2.66667 14.6667C2.66667 14.6667 0 14.6667 0 14.6667C0 14.6667 0 10.6667 0 10.6667C0 9.2 0.522222 7.94444 1.56667 6.9C2.61111 5.85556 3.86667 5.33333 5.33333 5.33333C5.33333 5.33333 10.6667 5.33333 10.6667 5.33333L10.6667 12L15.3333 12L20 6.2L20 2.66667L16 2.66667L16 0C16 0 20 0 20 0C20.7333 0 21.3611 0.26111 21.8833 0.783333C22.4056 1.30556 22.6667 1.93333 22.6667 2.66667C22.6667 2.66667 22.6667 7.13333 22.6667 7.13333L16.6667 14.6667C16.6667 14.6667 10.6667 14.6667 10.6667 14.6667C10.6667 15.7778 10.2778 16.7222 9.5 17.5C8.72222 18.2778 7.77778 18.6667 6.66667 18.6667C6.66667 18.6667 6.66667 18.6667 6.66667 18.6667ZM6.66658 16C7.04436 16 7.36103 15.8722 7.61658 15.6167C7.87214 15.3611 7.99992 15.0445 7.99992 14.6667C7.99992 14.6667 5.33325 14.6667 5.33325 14.6667C5.33325 15.0445 5.46103 15.3611 5.71659 15.6167C5.97214 15.8722 6.28881 16 6.66658 16C6.66658 16 6.66658 16 6.66658 16ZM4 3.99998L4 1.33331L10.6667 1.33331L10.6667 3.99998L4 3.99998L4 3.99998ZM22.6667 18.6667C21.5556 18.6667 20.6112 18.2778 19.8334 17.5C19.0556 16.7222 18.6667 15.7778 18.6667 14.6667C18.6667 13.5556 19.0556 12.6111 19.8334 11.8334C20.6112 11.0556 21.5556 10.6667 22.6667 10.6667C23.7779 10.6667 24.7223 11.0556 25.5001 11.8334C26.2779 12.6111 26.6667 13.5556 26.6667 14.6667C26.6667 15.7778 26.2779 16.7222 25.5001 17.5C24.7223 18.2778 23.7779 18.6667 22.6667 18.6667C22.6667 18.6667 22.6667 18.6667 22.6667 18.6667ZM22.6666 16C23.0444 16 23.361 15.8722 23.6166 15.6166C23.8721 15.3611 23.9999 15.0444 23.9999 14.6666C23.9999 14.2889 23.8721 13.9722 23.6166 13.7166C23.361 13.4611 23.0444 13.3333 22.6666 13.3333C22.2888 13.3333 21.9721 13.4611 21.7166 13.7166C21.461 13.9722 21.3333 14.2889 21.3333 14.6666C21.3333 15.0444 21.461 15.3611 21.7166 15.6166C21.9721 15.8722 22.2888 16 22.6666 16C22.6666 16 22.6666 16 22.6666 16ZM14.6667 26.6667L6.66675 22.6667L12.0001 22.6667L12.0001 20L20.0001 24L14.6667 24L14.6667 26.6667L14.6667 26.6667ZM2.66675 12L8.00008 12L8.00008 8C8.00008 8 5.33341 8 5.33341 8C4.60008 8 3.9723 8.26111 3.45008 8.78333C2.92786 9.30556 2.66675 9.93333 2.66675 10.6667C2.66675 10.6667 2.66675 12 2.66675 12L2.66675 12Z" fill="#191682" transform="translate(2.667 4)" />
  </g>
</svg>