<?xml version="1.0" encoding="utf-8"?>
<svg width="48" height="48" viewBox="0 0 48 48" fill="none" xmlns="http://www.w3.org/2000/svg">
  <g>
    <path d="M8 22L24 22L24 18L8 18L8 22L8 22ZM8 28L24 28L24 24L8 24L8 28L8 28ZM8 34L18 34L18 30L8 30L8 34L8 34ZM4 40C2.9 40 1.95833 39.6083 1.175 38.825C0.391666 38.0417 0 37.1 0 36C0 36 0 4 0 4C0 2.9 0.391666 1.95833 1.175 1.175C1.95833 0.391665 2.9 0 4 0C4 0 20 0 20 0L32 12C32 12 32 36 32 36C32 37.1 31.6083 38.0417 30.825 38.825C30.0417 39.6083 29.1 40 28 40C28 40 4 40 4 40ZM18 14L18 4L4 4L4 36L28 36L28 14L18 14L18 14ZM4 4L4 14L4 4L4 36L4 4L4 4Z" fill="#FFFFFF" transform="translate(8 4)" />
  </g>
</svg>