<?xml version="1.0" encoding="utf-8"?>
<svg width="120" height="117" viewBox="0 0 120 117" fill="none" xmlns="http://www.w3.org/2000/svg">
  <defs>
    <clipPath id="clip_path_1">
      <rect width="120" height="117" />
    </clipPath>
  </defs>
  <g clip-path="url(#clip_path_1)">
    <path d="M42.7128 29.1888C42.7128 28.2697 43.4531 27.5256 44.3676 27.5256C44.3676 27.5256 60.0112 27.5256 60.0112 27.5256C60.9257 27.5256 61.666 28.2697 61.666 29.1888C61.666 30.1079 60.9257 30.852 60.0112 30.852C60.0112 30.852 44.3626 30.852 44.3626 30.852C43.4529 30.852 42.7126 30.1079 42.7126 29.1888C42.7126 29.1888 42.7128 29.1888 42.7128 29.1888ZM44.3627 36.508C44.3627 36.508 66.1318 36.508 66.1318 36.508C67.0463 36.508 67.7865 35.7639 67.7865 34.8448C67.7865 33.9257 67.0462 33.1816 66.1318 33.1816C66.1318 33.1816 44.3627 33.1865 44.3627 33.1865C43.4482 33.1865 42.7079 33.9306 42.7079 34.8497C42.7127 35.764 43.4531 36.508 44.3627 36.508C44.3627 36.508 44.3627 36.508 44.3627 36.508ZM70.4041 36.508C70.4041 36.508 70.8589 36.508 70.8589 36.508C71.7734 36.508 72.5137 35.7639 72.5137 34.8448C72.5137 33.9257 71.7734 33.1816 70.8589 33.1816C70.8589 33.1816 70.4041 33.1816 70.4041 33.1816C69.4896 33.1816 68.7493 33.9257 68.7493 34.8448C68.7493 35.7639 69.4896 36.508 70.4041 36.508C70.4041 36.508 70.4041 36.508 70.4041 36.508ZM35.8553 50.0573C35.8553 50.0573 24.431 50.0573 24.431 50.0573C23.5165 50.0573 22.7762 50.8013 22.7762 51.7204C22.7762 52.6396 23.5166 53.3836 24.431 53.3836C24.431 53.3836 35.8553 53.3836 35.8553 53.3836C36.7698 53.3836 37.51 52.6395 37.51 51.7204C37.5052 50.8013 36.7697 50.0573 35.8553 50.0573C35.8553 50.0573 35.8553 50.0573 35.8553 50.0573ZM35.8553 44.1338C35.8553 44.1338 24.431 44.1338 24.431 44.1338C23.5165 44.1338 22.7762 44.8779 22.7762 45.797C22.7762 46.7161 23.5166 47.4602 24.431 47.4602C24.431 47.4602 35.8553 47.4602 35.8553 47.4602C36.7698 47.4602 37.51 46.7161 37.51 45.797C37.51 44.8779 36.7697 44.1338 35.8553 44.1338C35.8553 44.1338 35.8553 44.1338 35.8553 44.1338ZM35.8553 55.9758C35.8553 55.9758 24.431 55.9758 24.431 55.9758C23.5165 55.9758 22.7762 56.7199 22.7762 57.639C22.7762 58.5582 23.5166 59.3022 24.431 59.3022C24.431 59.3022 35.8553 59.3022 35.8553 59.3022C36.7698 59.3022 37.51 58.5581 37.51 57.639C37.5052 56.7199 36.7697 55.9758 35.8553 55.9758C35.8553 55.9758 35.8553 55.9758 35.8553 55.9758ZM35.8553 61.8944C35.8553 61.8944 24.431 61.8944 24.431 61.8944C23.5165 61.8944 22.7762 62.6385 22.7762 63.5576C22.7762 64.4767 23.5166 65.2208 24.431 65.2208C24.431 65.2208 35.8553 65.2208 35.8553 65.2208C36.7698 65.2208 37.51 64.4767 37.51 63.5576C37.5052 62.6384 36.7697 61.8944 35.8553 61.8944C35.8553 61.8944 35.8553 61.8944 35.8553 61.8944ZM24.431 79.2907C24.431 79.2907 51.5662 79.2907 51.5662 79.2907C52.4807 79.2907 53.221 78.5466 53.221 77.6275C53.221 76.7084 52.4806 75.9643 51.5662 75.9643C51.5662 75.9643 24.431 75.9692 24.431 75.9692C23.5165 75.9692 22.7762 76.7132 22.7762 77.6323C22.7762 78.5466 23.5166 79.2907 24.431 79.2907C24.431 79.2907 24.431 79.2907 24.431 79.2907ZM25.0746 20.5034C25.0746 17.3374 27.6198 14.7599 30.7503 14.7599C33.8809 14.7599 36.4261 17.3374 36.4261 20.5034C36.4261 23.6743 33.8809 26.2518 30.7503 26.2518C27.6198 26.2518 25.0746 23.6743 25.0746 20.5034C25.0746 20.5034 25.0746 20.5034 25.0746 20.5034ZM28.3794 20.5034C28.3794 21.8408 29.444 22.9301 30.7505 22.9301C32.0569 22.9301 33.1215 21.8408 33.1215 20.5034C33.1215 19.1709 32.057 18.0815 30.7505 18.0815C29.444 18.0815 28.3794 19.166 28.3794 20.5034C28.3794 20.5034 28.3794 20.5034 28.3794 20.5034ZM20.3375 36.7082C20.3375 31.8644 23.565 27.6529 28.1859 26.4661C28.752 26.3202 29.3568 26.4905 29.7681 26.9087C29.7681 26.9087 30.7503 27.9057 30.7503 27.9057C30.7503 27.9057 31.7326 26.9087 31.7326 26.9087C32.1439 26.4905 32.7487 26.3202 33.3148 26.4661C37.9358 27.6528 41.1679 31.8643 41.1679 36.7082C41.1679 37.6273 40.4276 38.3714 39.5131 38.3714C39.5131 38.3714 21.9879 38.3714 21.9879 38.3714C21.0782 38.3714 20.3379 37.6273 20.3379 36.7082C20.3379 36.7082 20.3375 36.7082 20.3375 36.7082ZM23.831 35.0499C23.831 35.0499 37.6748 35.0499 37.6748 35.0499C37.1474 32.7544 35.5457 30.8432 33.3683 29.9678C33.3683 29.9678 31.9215 31.4365 31.9215 31.4365C31.6119 31.7527 31.186 31.9277 30.7457 31.9277C30.3054 31.9277 29.8796 31.7478 29.5699 31.4365C29.5699 31.4365 28.1328 29.9678 28.1328 29.9678C25.9554 30.8432 24.3585 32.7545 23.8311 35.0499C23.8311 35.0499 23.831 35.0499 23.831 35.0499ZM117.455 114.403C115.81 116.076 113.608 117 111.266 117C111.266 117 111.262 117 111.262 117C108.92 117 106.723 116.076 105.082 114.403C105.082 114.403 95.1873 104.346 95.1873 104.346C94.6502 103.806 94.3454 103.072 94.3454 102.294C94.3454 101.623 94.568 100.985 94.9841 100.47C94.9841 100.47 91.5728 97.0025 91.5728 97.0025C88.0648 99.045 84.0728 100.134 79.9163 100.134C79.8196 100.134 79.7276 100.13 79.6309 100.13C79.6309 100.13 79.6309 102.722 79.6309 102.722C79.6309 106.15 76.8776 108.937 73.5002 108.937C73.5002 108.937 6.13061 108.942 6.13061 108.942C2.74832 108.942 0 106.155 0 102.726C0 102.726 0 18.0621 0 18.0621C0 14.6335 2.75328 11.8468 6.13061 11.8468C6.13061 11.8468 11.0806 11.8468 11.0806 11.8468C11.0806 11.8468 11.0806 5.45169 11.0806 5.45169C11.0806 2.44616 13.4999 0 16.471 0C16.471 0 69.9584 0 69.9584 0C70.3987 0 70.8245 0.179939 71.1342 0.491186C71.1342 0.491186 90.2475 19.9155 90.2475 19.9155C90.5523 20.2268 90.7265 20.645 90.7265 21.0827C90.7265 21.0827 90.7265 55.0909 90.7265 55.0909C92.8458 56.2094 94.8056 57.6587 96.5426 59.4241C104.178 67.1907 105.431 79.0277 100.307 88.1323C100.307 88.1323 103.723 91.5999 103.723 91.5999C104.231 91.1914 104.856 90.9677 105.514 90.9677C106.288 90.9677 107.014 91.2692 107.555 91.8236C107.555 91.8236 117.46 101.886 117.46 101.886C120.847 105.338 120.847 110.956 117.455 114.404C117.455 114.404 117.455 114.403 117.455 114.403ZM110.681 99.721L102.983 107.546L103.999 108.582L111.697 100.757L110.681 99.721ZM71.6083 17.2838C71.6083 18.4607 72.5422 19.4237 73.6938 19.4237C73.6938 19.4237 85.1082 19.4237 85.1082 19.4237L71.6088 5.70018C71.6088 5.70018 71.6083 17.2838 71.6083 17.2838ZM14.3861 91.6285C14.3861 92.8054 15.32 93.7684 16.4716 93.7684C16.4716 93.7684 63.9488 93.7684 63.9488 93.7684C63.7311 93.5641 63.5182 93.355 63.3053 93.141C61.0165 90.8164 59.2988 88.1222 58.1569 85.248C58.1569 85.248 24.4306 85.248 24.4306 85.248C23.5161 85.248 22.7759 84.504 22.7759 83.5848C22.7759 82.6657 23.5162 81.9217 24.4306 81.9217C24.4306 81.9217 57.1115 81.9217 57.1115 81.9217C56.4437 79.1059 56.2792 76.1927 56.6276 73.3284C56.6276 73.3284 24.4311 73.3332 24.4311 73.3332C23.5166 73.3332 22.7763 72.5891 22.7763 71.67C22.7763 70.7509 23.5166 70.0069 24.4311 70.0069C24.4311 70.0069 57.2668 70.0069 57.2668 70.0069C57.7942 68.0276 58.5781 66.1066 59.6135 64.2926C59.6135 64.2926 44.6091 64.2926 44.6091 64.2926C43.6945 64.2926 42.9543 63.5485 42.9543 62.6294C42.9543 61.7103 43.6946 60.9662 44.6091 60.9662C44.6091 60.9662 46.5833 60.9711 46.5833 60.9711C46.5833 60.9711 46.5833 48.0643 46.5833 48.0643C46.5833 47.1451 47.3236 46.4011 48.2381 46.4011C48.2381 46.4011 54.7461 46.4011 54.7461 46.4011C55.6607 46.4011 56.4009 47.1452 56.4009 48.0643C56.4009 48.0643 56.4009 60.9711 56.4009 60.9711L58.3219 60.9711C58.3219 60.9711 58.3219 51.7455 58.3219 51.7455C58.3219 50.8263 59.0622 50.0823 59.9767 50.0823C59.9767 50.0823 66.4847 50.0823 66.4847 50.0823C67.3993 50.0823 68.1395 50.8264 68.1395 51.7455C68.1395 51.7455 68.1395 55.6409 68.1395 55.6409C68.7637 55.2713 69.4072 54.9309 70.0605 54.6245C70.0605 54.6245 70.0557 41.3915 70.0557 41.3915C70.0557 40.4723 70.796 39.7283 71.7105 39.7283C71.7105 39.7283 78.2185 39.7283 78.2185 39.7283C79.133 39.7283 79.8733 40.4724 79.8733 41.3915C79.8733 41.3915 79.8733 52.4311 79.8733 52.4311C79.8733 52.4311 79.9265 52.4311 79.9265 52.4311C82.5152 52.4311 85.041 52.8542 87.4217 53.6663C87.4217 53.6663 87.4217 22.7408 87.4217 22.7408C87.4217 22.7408 73.6944 22.7408 73.6944 22.7408C70.7234 22.7408 68.304 20.2896 68.304 17.2793C68.304 17.2793 68.304 3.32175 68.304 3.32175C68.304 3.32175 16.4715 3.32175 16.4715 3.32175C15.3199 3.32175 14.386 4.27981 14.386 5.45181C14.386 5.45181 14.3861 91.6285 14.3861 91.6285ZM76.5631 43.0489L73.3599 43.0489C73.3599 43.0489 73.3599 53.3639 73.3599 53.3639C74.4051 53.0575 75.4744 52.8241 76.5631 52.6636C76.5631 52.6636 76.5631 43.0489 76.5631 43.0489ZM64.8244 58.0038L64.8244 53.4032L61.6212 53.4032L61.6212 60.9704C61.6212 60.9704 61.9115 60.9704 61.9115 60.9704C62.3518 60.4354 62.8164 59.9199 63.3099 59.419C63.7938 58.9229 64.3018 58.4512 64.8245 58.0038C64.8245 58.0038 64.8244 58.0038 64.8244 58.0038ZM53.0904 49.7266L49.8873 49.7266L49.8873 60.9704L53.0904 60.9704L53.0904 49.7266ZM76.3311 99.8624C73.5343 99.4296 70.8633 98.4909 68.4198 97.0951C68.4198 97.0951 16.4709 97.0903 16.4709 97.0903C13.4999 97.0903 11.0805 94.6391 11.0805 91.6289C11.0805 91.6289 11.0805 15.169 11.0805 15.169C11.0805 15.169 6.1305 15.169 6.1305 15.169C4.57245 15.169 3.30476 16.4675 3.30476 18.0626C3.30476 18.0626 3.30476 102.727 3.30476 102.727C3.30476 104.322 4.57245 105.621 6.1305 105.621C6.1305 105.621 73.5051 105.621 73.5051 105.621C75.0631 105.621 76.3308 104.322 76.3308 102.727C76.3308 102.727 76.3311 99.8624 76.3311 99.8624ZM79.9214 96.8131C85.3117 96.8131 90.3778 94.6782 94.1863 90.807C102.059 82.7972 102.059 69.7691 94.1863 61.7589C90.3734 57.8829 85.3073 55.7528 79.9214 55.7528C74.5358 55.7528 69.4649 57.8877 65.6564 61.7589C57.779 69.7687 57.779 82.7968 65.6564 90.807C69.4693 94.6782 74.5306 96.8131 79.9214 96.8131C79.9214 96.8131 79.9214 96.8131 79.9214 96.8131ZM94.3548 95.1061L97.2967 98.0969L101.381 93.9486C101.381 93.9486 98.4387 90.9626 98.4387 90.9626C97.858 91.7213 97.2241 92.4508 96.537 93.1462C95.8451 93.8465 95.1145 94.4982 94.3548 95.1061C94.3548 95.1061 94.3548 95.1061 94.3548 95.1061ZM97.8145 102.294L100.655 105.183L108.353 97.3577L105.508 94.4689L97.8145 102.294ZM115.103 104.215L114.019 103.116L106.321 110.941C106.321 110.941 107.429 112.069 107.429 112.069C108.445 113.105 109.805 113.679 111.261 113.679C111.261 113.679 111.266 113.679 111.266 113.679C112.723 113.679 114.082 113.105 115.103 112.069C117.232 109.905 117.232 106.384 115.103 104.215C115.103 104.215 115.103 104.215 115.103 104.215ZM90.4157 86.9258C87.6141 89.7757 83.8835 91.3416 79.9205 91.3416C75.9528 91.3416 72.227 89.7708 69.4253 86.9258C63.6526 81.0559 63.6478 71.5041 69.4253 65.6339C72.2269 62.784 75.9575 61.2084 79.9205 61.2084C83.8882 61.2084 87.614 62.7792 90.4157 65.6339C96.1931 71.5038 96.1931 81.0556 90.4157 86.9258C90.4157 86.9258 90.4157 86.9258 90.4157 86.9258ZM88.069 67.9683C85.8916 65.7507 82.9979 64.5348 79.9254 64.5348C76.848 64.5348 73.9545 65.7555 71.7819 67.9683C67.2723 72.5495 67.2723 80.0049 71.7819 84.5914C73.9593 86.8041 76.8529 88.02 79.9254 88.02C83.0029 88.02 85.8964 86.7993 88.069 84.5914C92.5738 80.0102 92.5738 72.5548 88.069 67.9683C88.069 67.9683 88.069 67.9683 88.069 67.9683ZM83.569 71.6985L78.0286 77.33C78.0286 77.33 76.2721 75.5404 76.2721 75.5404C75.6286 74.8887 74.5834 74.879 73.935 75.5258C73.2867 76.1726 73.277 77.2231 73.9205 77.8747C73.9205 77.8747 76.8528 80.8607 76.8528 80.8607C77.1625 81.1768 77.5883 81.3568 78.0286 81.3568C78.4689 81.3568 78.8947 81.1768 79.2044 80.8656C79.2044 80.8656 85.9205 74.0424 85.9205 74.0424C86.5641 73.3907 86.5544 72.3402 85.906 71.6935C85.2576 71.0418 84.2076 71.0467 83.569 71.6983C83.569 71.6983 83.569 71.6985 83.569 71.6985Z" fill="#000000" transform="translate(0 0)" />
  </g>
</svg>