<?xml version="1.0" encoding="utf-8"?>
<svg width="240" height="240" viewBox="0 0 240 240" fill="none" xmlns="http://www.w3.org/2000/svg">
  <g>
    <path d="M140 90C142.833 90 145.208 89.0417 147.125 87.125C149.042 85.2083 150 82.8333 150 80C150 77.1667 149.042 74.7917 147.125 72.875C145.208 70.9583 142.833 70 140 70C137.167 70 134.792 70.9583 132.875 72.875C130.958 74.7917 130 77.1667 130 80C130 82.8333 130.958 85.2083 132.875 87.125C134.792 89.0417 137.167 90 140 90ZM60 70L110 70L110 50L60 50L60 70L60 70ZM25 190C19.3333 171 13.75 152.042 8.25 133.125C2.75 114.208 0 94.8333 0 75C0 59.6667 5.33333 46.6667 16 36C26.6667 25.3333 39.6667 20 55 20C55 20 105 20 105 20C109.833 13.6667 115.708 8.75 122.625 5.25C129.542 1.75 137 0 145 0C149.167 0 152.708 1.45833 155.625 4.375C158.542 7.29167 160 10.8333 160 15C160 16 159.875 17 159.625 18C159.375 19 159.083 19.9167 158.75 20.75C158.083 22.5833 157.458 24.4583 156.875 26.375C156.292 28.2917 155.833 30.25 155.5 32.25C155.5 32.25 178.25 55 178.25 55L200 55L200 124.75L171.75 134L155 190L100 190L100 170L80 170L80 190C80 190 25 190 25 190ZM40 170L60 170L60 150L120 150L120 170L140 170L155.5 118.5L180 110.25L180 75L170 75C170 75 135 40 135 40C135 36.6667 135.208 33.4583 135.625 30.375C136.042 27.2917 136.667 24.1667 137.5 21C132.667 22.3333 128.417 24.625 124.75 27.875C121.083 31.125 118.417 35.1667 116.75 40C116.75 40 55 40 55 40C45.3333 40 37.0833 43.4167 30.25 50.25C23.4167 57.0833 20 65.3333 20 75C20 91.3333 22.25 107.292 26.75 122.875C31.25 138.458 35.6667 154.167 40 170C40 170 40 170 40 170Z" fill="#FDEFEF" transform="translate(20 20)" />
  </g>
</svg>