<?xml version="1.0" encoding="utf-8"?>
<svg width="48" height="48" viewBox="0 0 48 48" fill="none" xmlns="http://www.w3.org/2000/svg">
  <g>
    <path d="M7 14C5.06667 14 3.41667 13.3167 2.05 11.95C0.683333 10.5833 0 8.93333 0 7C0 5.06667 0.683333 3.41667 2.05 2.05C3.41667 0.683334 5.06667 0 7 0C8.93333 0 10.5833 0.683334 11.95 2.05C13.3167 3.41667 14 5.06667 14 7C14 8.93333 13.3167 10.5833 11.95 11.95C10.5833 13.3167 8.93333 14 7 14C7 14 7 14 7 14ZM7 10C7.83333 10 8.54167 9.70834 9.125 9.125C9.70833 8.54167 10 7.83333 10 7C10 6.16667 9.70833 5.45833 9.125 4.875C8.54167 4.29167 7.83333 4 7 4C6.16667 4 5.45833 4.29167 4.875 4.875C4.29167 5.45833 4 6.16667 4 7C4 7.83333 4.29167 8.54167 4.875 9.125C5.45833 9.70834 6.16667 10 7 10C7 10 7 10 7 10ZM25 32C23.0667 32 21.4167 31.3167 20.05 29.95C18.6833 28.5833 18 26.9333 18 25C18 23.0667 18.6833 21.4167 20.05 20.05C21.4167 18.6833 23.0667 18 25 18C26.9333 18 28.5833 18.6833 29.95 20.05C31.3167 21.4167 32 23.0667 32 25C32 26.9333 31.3167 28.5833 29.95 29.95C28.5833 31.3167 26.9333 32 25 32C25 32 25 32 25 32ZM25 28C25.8333 28 26.5417 27.7083 27.125 27.125C27.7083 26.5417 28 25.8333 28 25C28 24.1667 27.7083 23.4583 27.125 22.875C26.5417 22.2917 25.8333 22 25 22C24.1667 22 23.4583 22.2917 22.875 22.875C22.2917 23.4583 22 24.1667 22 25C22 25.8333 22.2917 26.5417 22.875 27.125C23.4583 27.7083 24.1667 28 25 28C25 28 25 28 25 28ZM2.8 32L0 29.2L29.2 0L32 2.8L2.8 32L2.8 32Z" fill="#FFFFFF" transform="translate(8 8)" />
  </g>
</svg>