<?xml version="1.0" encoding="utf-8"?>
<svg width="32" height="32" viewBox="0 0 32 32" fill="none" xmlns="http://www.w3.org/2000/svg">
  <g>
    <path d="M10.6667 10.6667C9.2 10.6667 7.94445 10.1444 6.9 9.1C5.85556 8.05556 5.33333 6.8 5.33333 5.33333C5.33333 3.86667 5.85556 2.61111 6.9 1.56667C7.94445 0.522223 9.2 0 10.6667 0C12.1333 0 13.3889 0.522223 14.4333 1.56667C15.4778 2.61111 16 3.86667 16 5.33333C16 6.8 15.4778 8.05556 14.4333 9.1C13.3889 10.1444 12.1333 10.6667 10.6667 10.6667C10.6667 10.6667 10.6667 10.6667 10.6667 10.6667ZM10.6667 8C11.4 8 12.0278 7.73889 12.55 7.21667C13.0722 6.69444 13.3333 6.06667 13.3333 5.33333C13.3333 4.6 13.0722 3.97222 12.55 3.45C12.0278 2.92778 11.4 2.66667 10.6667 2.66667C9.93333 2.66667 9.30556 2.92778 8.78333 3.45C8.26111 3.97222 8 4.6 8 5.33333C8 6.06667 8.26111 6.69444 8.78333 7.21667C9.30556 7.73889 9.93333 8 10.6667 8C10.6667 8 10.6667 8 10.6667 8ZM0 26.6667C0 26.6667 0 17.6333 0 17.6333C0 16.8778 0.188889 16.1833 0.566667 15.55C0.944444 14.9167 1.46667 14.4222 2.13333 14.0667C3.26667 13.4889 4.55 13 5.98333 12.6C7.41667 12.2 8.97778 12 10.6667 12C12.3556 12 13.9167 12.2 15.35 12.6C16.7833 13 18.0667 13.4889 19.2 14.0667C19.8667 14.4222 20.3889 14.9167 20.7667 15.55C21.1444 16.1833 21.3333 16.8778 21.3333 17.6333C21.3333 17.6333 21.3333 24 21.3333 24C21.3333 24.7333 21.0722 25.3611 20.55 25.8833C20.0278 26.4056 19.4 26.6667 18.6667 26.6667C18.6667 26.6667 7.66667 26.6667 7.66667 26.6667C6.64444 26.6667 5.77778 26.3111 5.06667 25.6C4.35556 24.8889 4 24.0222 4 23C4 21.9778 4.35556 21.1111 5.06667 20.4C5.77778 19.6889 6.64444 19.3333 7.66667 19.3333C7.66667 19.3333 11.4333 19.3333 11.4333 19.3333C11.4333 19.3333 13.5 14.9333 13.5 14.9333C13.0556 14.8444 12.6 14.7778 12.1333 14.7333C11.6667 14.6889 11.1778 14.6667 10.6667 14.6667C9.06667 14.6667 7.64444 14.8611 6.4 15.25C5.15556 15.6389 4.14444 16.0444 3.36667 16.4667C3.14444 16.5778 2.97222 16.7389 2.85 16.95C2.72778 17.1611 2.66667 17.3889 2.66667 17.6333C2.66667 17.6333 2.66667 26.6667 2.66667 26.6667L0 26.6667L0 26.6667ZM7.66667 24L9.26667 24L10.2 22C10.2 22 7.66667 22 7.66667 22C7.4 22 7.16667 22.1 6.96667 22.3C6.76667 22.5 6.66667 22.7333 6.66667 23C6.66667 23.2667 6.76667 23.5 6.96667 23.7C7.16667 23.9 7.4 24 7.66667 24C7.66667 24 7.66667 24 7.66667 24ZM12.2 24L18.6667 24C18.6667 24 18.6667 17.6333 18.6667 17.6333C18.6667 17.3889 18.6056 17.1611 18.4833 16.95C18.3611 16.7389 18.2 16.5778 18 16.4667C17.7333 16.3333 17.4444 16.1944 17.1333 16.05C16.8222 15.9056 16.4889 15.7667 16.1333 15.6333C16.1333 15.6333 12.2 24 12.2 24L12.2 24Z" fill="#191682" transform="translate(5.333 2.667)" />
  </g>
</svg>