<?xml version="1.0" encoding="utf-8"?>
<svg width="32" height="32" viewBox="0 0 32 32" fill="none" xmlns="http://www.w3.org/2000/svg">
  <g>
    <path d="M2.66667 26.6667C1.93333 26.6667 1.30556 26.4056 0.783333 25.8833C0.261111 25.3611 0 24.7333 0 24C0 24 0 9.33333 0 9.33333C0 8.6 0.261111 7.97222 0.783333 7.45C1.30556 6.92778 1.93333 6.66667 2.66667 6.66667C2.66667 6.66667 9.33333 6.66667 9.33333 6.66667C9.33333 6.66667 9.33333 2.66667 9.33333 2.66667C9.33333 1.93333 9.59445 1.30556 10.1167 0.783333C10.6389 0.26111 11.2667 0 12 0C12 0 14.6667 0 14.6667 0C15.4 0 16.0278 0.26111 16.55 0.783333C17.0722 1.30556 17.3333 1.93333 17.3333 2.66667C17.3333 2.66667 17.3333 6.66667 17.3333 6.66667C17.3333 6.66667 24 6.66667 24 6.66667C24.7333 6.66667 25.3611 6.92778 25.8833 7.45C26.4056 7.97222 26.6667 8.6 26.6667 9.33333C26.6667 9.33333 26.6667 24 26.6667 24C26.6667 24.7333 26.4056 25.3611 25.8833 25.8833C25.3611 26.4056 24.7333 26.6667 24 26.6667C24 26.6667 2.66667 26.6667 2.66667 26.6667ZM2.66669 24L24 24L24 9.33337C24 9.33337 17.3334 9.33337 17.3334 9.33337C17.3334 10.0667 17.0722 10.6945 16.55 11.2167C16.0278 11.7389 15.4 12 14.6667 12C14.6667 12 12 12 12 12C11.2667 12 10.6389 11.7389 10.1167 11.2167C9.59447 10.6945 9.33335 10.0667 9.33335 9.33337C9.33335 9.33337 2.66669 9.33337 2.66669 9.33337L2.66669 24L2.66669 24ZM5.33331 21.3334L13.3333 21.3334C13.3333 21.3334 13.3333 20.7334 13.3333 20.7334C13.3333 20.3556 13.2278 20.0056 13.0166 19.6834C12.8055 19.3612 12.5111 19.1112 12.1333 18.9334C11.6889 18.7334 11.2389 18.5834 10.7833 18.4834C10.3278 18.3834 9.84443 18.3334 9.33331 18.3334C8.8222 18.3334 8.33887 18.3834 7.88331 18.4834C7.42776 18.5834 6.97776 18.7334 6.53331 18.9334C6.15553 19.1112 5.86109 19.3612 5.64998 19.6834C5.43887 20.0056 5.33331 20.3556 5.33331 20.7334C5.33331 20.7334 5.33331 21.3334 5.33331 21.3334L5.33331 21.3334ZM16 19.3334L21.3333 19.3334L21.3333 17.3334L16 17.3334L16 19.3334L16 19.3334ZM9.33331 17.3334C9.88887 17.3334 10.3611 17.1389 10.75 16.75C11.1389 16.3612 11.3333 15.8889 11.3333 15.3334C11.3333 14.7778 11.1389 14.3056 10.75 13.9167C10.3611 13.5278 9.88887 13.3334 9.33331 13.3334C8.77776 13.3334 8.30554 13.5278 7.91665 13.9167C7.52776 14.3056 7.33331 14.7778 7.33331 15.3334C7.33331 15.8889 7.52776 16.3612 7.91665 16.75C8.30554 17.1389 8.77776 17.3334 9.33331 17.3334C9.33331 17.3334 9.33331 17.3334 9.33331 17.3334ZM16 15.3334L21.3333 15.3334L21.3333 13.3334L16 13.3334L16 15.3334L16 15.3334ZM12 9.33329L14.6667 9.33329L14.6667 2.66663L12 2.66663L12 9.33329L12 9.33329Z" fill="#FFFFFF" transform="translate(2.667 2.667)" />
  </g>
</svg>