<?xml version="1.0" encoding="utf-8"?>
<svg width="32" height="32" viewBox="0 0 32 32" fill="none" xmlns="http://www.w3.org/2000/svg">
  <g>
    <path d="M2.66667 26.6667C1.93333 26.6667 1.30556 26.4056 0.783333 25.8833C0.261111 25.3611 0 24.7333 0 24C0 24 0 9.33333 0 9.33333C0 8.6 0.261111 7.97222 0.783333 7.45C1.30556 6.92778 1.93333 6.66667 2.66667 6.66667C2.66667 6.66667 9.33333 6.66667 9.33333 6.66667C9.33333 6.66667 9.33333 2.66667 9.33333 2.66667C9.33333 1.93333 9.59445 1.30556 10.1167 0.783333C10.6389 0.26111 11.2667 0 12 0C12 0 14.6667 0 14.6667 0C15.4 0 16.0278 0.26111 16.55 0.783333C17.0722 1.30556 17.3333 1.93333 17.3333 2.66667C17.3333 2.66667 17.3333 6.66667 17.3333 6.66667C17.3333 6.66667 24 6.66667 24 6.66667C24.7333 6.66667 25.3611 6.92778 25.8833 7.45C26.4056 7.97222 26.6667 8.6 26.6667 9.33333C26.6667 9.33333 26.6667 24 26.6667 24C26.6667 24.7333 26.4056 25.3611 25.8833 25.8833C25.3611 26.4056 24.7333 26.6667 24 26.6667C24 26.6667 2.66667 26.6667 2.66667 26.6667ZM2.66675 24L24.0001 24L24.0001 9.33337C24.0001 9.33337 17.3334 9.33337 17.3334 9.33337C17.3334 10.0667 17.0723 10.6945 16.5501 11.2167C16.0279 11.7389 15.4001 12 14.6667 12C14.6667 12 12.0001 12 12.0001 12C11.2667 12 10.639 11.7389 10.1167 11.2167C9.59453 10.6945 9.33342 10.0667 9.33342 9.33337C9.33342 9.33337 2.66675 9.33337 2.66675 9.33337L2.66675 24L2.66675 24ZM5.33325 21.3334L13.3333 21.3334C13.3333 21.3334 13.3333 20.7334 13.3333 20.7334C13.3333 20.3556 13.2277 20.0056 13.0166 19.6834C12.8055 19.3612 12.511 19.1112 12.1333 18.9334C11.6888 18.7334 11.2388 18.5834 10.7833 18.4834C10.3277 18.3834 9.84436 18.3334 9.33325 18.3334C8.82214 18.3334 8.33881 18.3834 7.88325 18.4834C7.4277 18.5834 6.9777 18.7334 6.53325 18.9334C6.15547 19.1112 5.86103 19.3612 5.64992 19.6834C5.43881 20.0056 5.33325 20.3556 5.33325 20.7334C5.33325 20.7334 5.33325 21.3334 5.33325 21.3334L5.33325 21.3334ZM16 19.3334L21.3333 19.3334L21.3333 17.3334L16 17.3334L16 19.3334L16 19.3334ZM9.33325 17.3334C9.88881 17.3334 10.361 17.1389 10.7499 16.75C11.1388 16.3612 11.3333 15.8889 11.3333 15.3334C11.3333 14.7778 11.1388 14.3056 10.7499 13.9167C10.361 13.5278 9.88881 13.3334 9.33325 13.3334C8.7777 13.3334 8.30547 13.5278 7.91659 13.9167C7.5277 14.3056 7.33325 14.7778 7.33325 15.3334C7.33325 15.8889 7.5277 16.3612 7.91659 16.75C8.30547 17.1389 8.7777 17.3334 9.33325 17.3334C9.33325 17.3334 9.33325 17.3334 9.33325 17.3334ZM16 15.3334L21.3333 15.3334L21.3333 13.3334L16 13.3334L16 15.3334L16 15.3334ZM12 9.33329L14.6667 9.33329L14.6667 2.66663L12 2.66663L12 9.33329L12 9.33329Z" fill="#000000" transform="translate(2.667 2.667)" />
  </g>
</svg>