<?xml version="1.0" encoding="utf-8"?>
<svg width="48" height="48" viewBox="0 0 48 48" fill="none" xmlns="http://www.w3.org/2000/svg">
  <g>
    <path d="M6 40C6 40 6 31.4 6 31.4C4.1 29.6667 2.625 27.6417 1.575 25.325C0.525 23.0083 0 20.5667 0 18C0 13 1.75 8.75 5.25 5.25C8.75 1.75 13 0 18 0C22.1667 0 25.8583 1.225 29.075 3.675C32.2917 6.125 34.3833 9.31667 35.35 13.25C35.35 13.25 37.95 23.5 37.95 23.5C38.1167 24.1333 38 24.7083 37.6 25.225C37.2 25.7417 36.6667 26 36 26C36 26 32 26 32 26C32 26 32 32 32 32C32 33.1 31.6083 34.0417 30.825 34.825C30.0417 35.6083 29.1 36 28 36C28 36 24 36 24 36L24 40L20 40L20 32L28 32L28 22L33.4 22C33.4 22 31.5 14.25 31.5 14.25C30.7333 11.2167 29.1 8.75 26.6 6.85C24.1 4.95 21.2333 4 18 4C14.1333 4 10.8333 5.35 8.1 8.05C5.36667 10.75 4 14.0333 4 17.9C4 19.9 4.40833 21.8 5.225 23.6C6.04167 25.4 7.2 27 8.7 28.4C8.7 28.4 10 29.6 10 29.6L10 40L6 40L6 40ZM18 28C18.5667 28 19.0417 27.8083 19.425 27.425C19.8083 27.0417 20 26.5667 20 26C20 25.4333 19.8083 24.9583 19.425 24.575C19.0417 24.1917 18.5667 24 18 24C17.4333 24 16.9583 24.1917 16.575 24.575C16.1917 24.9583 16 25.4333 16 26C16 26.5667 16.1917 27.0417 16.575 27.425C16.9583 27.8083 17.4333 28 18 28C18 28 18 28 18 28ZM16.5 21.6C16.5 21.6 19.55 21.6 19.55 21.6C19.55 20.7667 19.6583 20.0917 19.875 19.575C20.0917 19.0583 20.5333 18.4333 21.2 17.7C21.8 17.0333 22.3833 16.3583 22.95 15.675C23.5167 14.9917 23.8 14.1 23.8 13C23.8 11.6 23.2583 10.4167 22.175 9.45C21.0917 8.48333 19.75 8 18.15 8C16.8167 8 15.6083 8.38333 14.525 9.15C13.4417 9.91667 12.6833 10.9167 12.25 12.15C12.25 12.15 15 13.3 15 13.3C15.2333 12.5667 15.6417 11.975 16.225 11.525C16.8083 11.075 17.45 10.85 18.15 10.85C18.8833 10.85 19.4917 11.05 19.975 11.45C20.4583 11.85 20.7 12.3667 20.7 13C20.7 13.7 20.4917 14.325 20.075 14.875C19.6583 15.425 19.1667 15.9833 18.6 16.55C17.9333 17.25 17.4167 17.95 17.05 18.65C16.6833 19.35 16.5 20.3333 16.5 21.6C16.5 21.6 16.5 21.6 16.5 21.6Z" fill="#1F1F1F" transform="translate(6 4)" />
  </g>
</svg>