<?xml version="1.0" encoding="utf-8"?>
<svg width="48" height="48" viewBox="0 0 48 48" fill="none" xmlns="http://www.w3.org/2000/svg">
  <g>
    <path d="M15.45 38.25C11.9833 36.65 9.16667 34.2333 7 31C4.83333 27.7667 3.75 24.1167 3.75 20.05C3.75 19.1833 3.79167 18.3333 3.875 17.5C3.95833 16.6667 4.1 15.85 4.3 15.05C4.3 15.05 2 16.4 2 16.4L0 12.95L9.55 7.45L15.05 16.95L11.55 18.95C11.55 18.95 8.85 14.25 8.85 14.25C8.48333 15.15 8.20833 16.0833 8.025 17.05C7.84167 18.0167 7.75 19.0167 7.75 20.05C7.75 23.2833 8.63333 26.225 10.4 28.875C12.1667 31.525 14.5167 33.4833 17.45 34.75C17.45 34.75 15.45 38.25 15.45 38.25C15.45 38.25 15.45 38.25 15.45 38.25ZM30.75 14L30.75 10C30.75 10 36.2 10 36.2 10C34.6667 8.1 32.8167 6.625 30.65 5.575C28.4833 4.525 26.1833 4 23.75 4C21.9167 4 20.1833 4.28333 18.55 4.85C16.9167 5.41667 15.4167 6.21667 14.05 7.25C14.05 7.25 12.05 3.75 12.05 3.75C13.7167 2.58333 15.5333 1.66667 17.5 1C19.4667 0.333334 21.55 0 23.75 0C26.3833 0 28.9 0.491666 31.3 1.475C33.7 2.45833 35.85 3.88333 37.75 5.75C37.75 5.75 37.75 3 37.75 3L41.75 3L41.75 14L30.75 14L30.75 14ZM29.45 44L19.9 38.5L25.4 29L28.85 31C28.85 31 26 35.9 26 35.9C29.9333 35.3333 33.2083 33.55 35.825 30.55C38.4417 27.55 39.75 24.0333 39.75 20C39.75 19.6333 39.7417 19.2917 39.725 18.975C39.7083 18.6583 39.6667 18.3333 39.6 18C39.6 18 43.65 18 43.65 18C43.6833 18.3333 43.7083 18.6583 43.725 18.975C43.7417 19.2917 43.75 19.6333 43.75 20C43.75 24.5 42.4083 28.525 39.725 32.075C37.0417 35.625 33.55 38.0167 29.25 39.25C29.25 39.25 31.45 40.55 31.45 40.55L29.45 44L29.45 44Z" fill="#FFFFFF" transform="translate(0.25 4)" />
  </g>
</svg>