<?xml version="1.0" encoding="utf-8"?>
<svg width="48" height="48" viewBox="0 0 48 48" fill="none" xmlns="http://www.w3.org/2000/svg">
  <g>
    <path d="M4 32C2.9 32 1.95833 31.6083 1.175 30.825C0.391666 30.0417 0 29.1 0 28C0 26.9 0.391666 25.9583 1.175 25.175C1.95833 24.3917 2.9 24 4 24C5.1 24 6.04167 24.3917 6.825 25.175C7.60833 25.9583 8 26.9 8 28C8 29.1 7.60833 30.0417 6.825 30.825C6.04167 31.6083 5.1 32 4 32ZM4 20C2.9 20 1.95833 19.6083 1.175 18.825C0.391666 18.0417 0 17.1 0 16C0 14.9 0.391666 13.9583 1.175 13.175C1.95833 12.3917 2.9 12 4 12C5.1 12 6.04167 12.3917 6.825 13.175C7.60833 13.9583 8 14.9 8 16C8 17.1 7.60833 18.0417 6.825 18.825C6.04167 19.6083 5.1 20 4 20C4 20 4 20 4 20ZM4 8C2.9 8 1.95833 7.60833 1.175 6.825C0.391666 6.04167 0 5.1 0 4C0 2.9 0.391666 1.95833 1.175 1.175C1.95833 0.391665 2.9 0 4 0C5.1 0 6.04167 0.391665 6.825 1.175C7.60833 1.95833 8 2.9 8 4C8 5.1 7.60833 6.04167 6.825 6.825C6.04167 7.60833 5.1 8 4 8C4 8 4 8 4 8ZM16 8C14.9 8 13.9583 7.60833 13.175 6.825C12.3917 6.04167 12 5.1 12 4C12 2.9 12.3917 1.95833 13.175 1.175C13.9583 0.391665 14.9 0 16 0C17.1 0 18.0417 0.391665 18.825 1.175C19.6083 1.95833 20 2.9 20 4C20 5.1 19.6083 6.04167 18.825 6.825C18.0417 7.60833 17.1 8 16 8C16 8 16 8 16 8ZM28 8C26.9 8 25.9583 7.60833 25.175 6.825C24.3917 6.04167 24 5.1 24 4C24 2.9 24.3917 1.95833 25.175 1.175C25.9583 0.391665 26.9 0 28 0C29.1 0 30.0417 0.391665 30.825 1.175C31.6083 1.95833 32 2.9 32 4C32 5.1 31.6083 6.04167 30.825 6.825C30.0417 7.60833 29.1 8 28 8C28 8 28 8 28 8ZM16 20C14.9 20 13.9583 19.6083 13.175 18.825C12.3917 18.0417 12 17.1 12 16C12 14.9 12.3917 13.9583 13.175 13.175C13.9583 12.3917 14.9 12 16 12C17.1 12 18.0417 12.3917 18.825 13.175C19.6083 13.9583 20 14.9 20 16C20 17.1 19.6083 18.0417 18.825 18.825C18.0417 19.6083 17.1 20 16 20ZM18 32L18 25.85C18 25.85 29.05 14.85 29.05 14.85C29.35 14.55 29.6833 14.3333 30.05 14.2C30.4167 14.0667 30.7833 14 31.15 14C31.55 14 31.9333 14.075 32.3 14.225C32.6667 14.375 33 14.6 33.3 14.9C33.3 14.9 35.15 16.75 35.15 16.75C35.4167 17.05 35.625 17.3833 35.775 17.75C35.925 18.1167 36 18.4833 36 18.85C36 19.2167 35.9333 19.5917 35.8 19.975C35.6667 20.3583 35.45 20.7 35.15 21C35.15 21 24.15 32 24.15 32L18 32L18 32ZM33 18.85L31.15 17L33 18.85L33 18.85ZM21 29L22.9 29L28.95 22.9L28.05 21.95L27.1 21.05L21 27.1L21 29L21 29ZM28.05 21.95L27.1 21.05L28.95 22.9L28.05 21.95L28.05 21.95Z" fill="#FFFFFF" transform="translate(8 8)" />
  </g>
</svg>