<?xml version="1.0" encoding="utf-8"?>
<svg width="120" height="120" viewBox="0 0 120 120" fill="none" xmlns="http://www.w3.org/2000/svg">
  <g>
    <path d="M46.7601 19.4273C49.9812 19.4273 52.6038 16.7998 52.6038 13.573C52.6038 10.346 49.9811 7.71864 46.7601 7.71864C43.5389 7.71864 40.9163 10.3461 40.9163 13.573C40.9163 16.7999 43.539 19.4273 46.7601 19.4273C46.7601 19.4273 46.7601 19.4273 46.7601 19.4273ZM46.7601 12.4364C47.3845 12.4364 47.8945 12.9473 47.8945 13.5729C47.8945 14.1985 47.3845 14.7094 46.7601 14.7094C46.1356 14.7094 45.6256 14.1985 45.6256 13.5729C45.6256 12.9473 46.1356 12.4364 46.7601 12.4364C46.7601 12.4364 46.7601 12.4364 46.7601 12.4364ZM16.8851 35.9687C16.8851 34.6655 17.9362 33.6124 19.2372 33.6124C19.2372 33.6124 74.6362 33.6124 74.6362 33.6124C75.9371 33.6124 76.9883 34.6655 76.9883 35.9687C76.9883 37.272 75.9371 38.325 74.6362 38.325C74.6362 38.325 19.2372 38.325 19.2372 38.325C17.9362 38.325 16.8851 37.272 16.8851 35.9687C16.8851 35.9687 16.8851 35.9687 16.8851 35.9687ZM118.421 107.942C118.421 107.942 104.22 95.3154 104.22 95.3154C104.298 95.0026 104.345 94.6794 104.345 94.351C104.345 93.3136 103.939 92.3335 103.21 91.6037C103.21 91.6037 100.624 89.0127 100.624 89.0127C103.419 84.5712 105.037 79.3112 105.037 73.6867C105.037 64.2717 100.51 55.8943 93.5211 50.6241C93.5211 50.6241 93.5211 17.5577 93.5211 17.5577C93.5211 15.0502 91.4865 13.0172 88.9888 13.0172C88.9888 13.0172 61.6329 13.0172 61.6329 13.0172C61.6329 13.0172 59.567 11.7764 59.567 11.7764C59.005 5.18703 53.4786 0 46.7606 0C40.0425 0 34.511 5.18703 33.9542 11.7764C33.9542 11.7764 31.8882 13.0172 31.8882 13.0172C31.8882 13.0172 4.5324 13.0172 4.5324 13.0172C2.02941 13.0172 0 15.0554 0 17.5577C0 17.5577 0 112.009 0 112.009C0 114.516 2.0346 116.549 4.5324 116.549C4.5324 116.549 88.9885 116.549 88.9885 116.549C91.4915 116.549 93.5209 114.511 93.5209 112.009C93.5209 112.009 93.5209 104.199 93.5209 104.199C93.8123 104.267 94.1089 104.304 94.4055 104.304C94.7281 104.304 95.0508 104.262 95.3682 104.178C95.3682 104.178 107.972 118.405 107.972 118.405C108.856 119.406 110.032 119.953 111.364 119.995C111.417 119.995 111.469 120 111.515 120C112.785 120 113.935 119.52 114.841 118.613C114.841 118.613 118.618 114.829 118.618 114.829C119.56 113.885 120.039 112.676 119.997 111.341C119.956 110.006 119.409 108.828 118.41 107.942C118.41 107.942 118.421 107.942 118.421 107.942ZM99.3017 94.3504L94.4101 99.2507C94.4101 99.2507 92.5888 97.4261 92.5888 97.4261C94.4986 96.102 96.2366 94.559 97.7717 92.823C97.7717 92.823 99.3015 94.3556 99.3015 94.3556L99.3017 94.3504ZM100.332 73.6861C100.332 86.9952 89.5238 97.8283 76.2333 97.8283C62.9481 97.8283 52.1345 87.0006 52.1345 73.6861C52.1345 60.3769 62.9427 49.5439 76.2333 49.5439C89.5185 49.5439 100.332 60.3716 100.332 73.6861C100.332 73.6861 100.332 73.6861 100.332 73.6861ZM22.3702 25.0106C22.4326 25.5319 22.6668 26.0272 23.0415 26.4026C23.4838 26.8457 24.0822 27.0907 24.7067 27.0907C24.7067 27.0907 24.7119 27.0907 24.7119 27.0907C24.7119 27.0907 68.8183 27.049 68.8183 27.049C70.0099 27.049 70.9934 26.1575 71.1443 25.0107C71.1443 25.0107 81.5466 25.0107 81.5466 25.0107C81.5466 25.0107 81.5466 45.3214 81.5466 45.3214C79.8241 44.9982 78.0497 44.8262 76.2388 44.8262C73.7931 44.8262 71.4201 45.1337 69.1565 45.7124C69.1565 45.7124 18.8836 45.7176 18.8836 45.7176C17.5826 45.7176 16.5315 46.7706 16.5315 48.0739C16.5315 49.3772 17.5826 50.4302 18.8836 50.4302C18.8836 50.4302 59.2026 50.4302 59.2026 50.4302C56.4551 52.4581 54.0717 54.9604 52.188 57.8173C52.188 57.8173 19.2384 57.8173 19.2384 57.8173C17.9375 57.8173 16.8864 58.8703 16.8864 60.1735C16.8864 61.4768 17.9375 62.5298 19.2384 62.5298C19.2384 62.5298 49.6702 62.5298 49.6702 62.5298C48.6919 64.8549 48.0154 67.3312 47.6772 69.9169C47.6772 69.9169 18.8853 69.9169 18.8853 69.9169C17.5844 69.9169 16.5332 70.9699 16.5332 72.2732C16.5332 73.5765 17.5844 74.6295 18.8853 74.6295C18.8853 74.6295 47.4481 74.6295 47.4481 74.6295C47.5313 77.1892 47.9476 79.6653 48.6553 82.0166C48.6553 82.0166 19.2333 82.0166 19.2333 82.0166C17.9324 82.0166 16.8813 83.0696 16.8813 84.3729C16.8813 85.6761 17.9324 86.7292 19.2333 86.7292C19.2333 86.7292 50.5443 86.7292 50.5443 86.7292C51.939 89.4713 53.7603 91.9632 55.9145 94.1162C55.9145 94.1162 18.8739 94.1162 18.8739 94.1162C17.573 94.1162 16.5218 95.1693 16.5218 96.4725C16.5218 97.7758 17.573 98.8288 18.8739 98.8288C18.8739 98.8288 62.1277 98.8288 62.1277 98.8288C66.2959 101.185 71.1094 102.53 76.2246 102.53C78.0407 102.53 79.8152 102.358 81.5324 102.035C81.5324 102.035 81.5324 104.537 81.5324 104.537L11.9739 104.548L11.9739 25.0105C11.9739 25.0105 22.3702 25.0106 22.3702 25.0106ZM88.8168 47.7342C87.9842 47.3276 87.1257 46.9575 86.2514 46.6343C86.2514 46.6343 86.2514 22.6589 86.2514 22.6589C86.2514 21.3556 85.2002 20.3026 83.8993 20.3026C83.8993 20.3026 70.234 20.3026 70.234 20.3026C69.8125 19.3694 69.2505 18.504 68.5585 17.7325C68.5585 17.7325 88.8219 17.7325 88.8219 17.7325L88.8219 47.7387C88.8219 47.7387 88.8168 47.7342 88.8168 47.7342ZM37.4715 15.1523C38.2 14.7143 38.6319 13.922 38.6163 13.0722C38.6163 13.0044 38.6111 12.9367 38.6111 12.8689C38.6111 8.36997 42.2642 4.70513 46.7602 4.70513C51.251 4.70513 54.9093 8.36476 54.9093 12.8689C54.9093 12.9367 54.9093 13.0044 54.9041 13.0722C54.8832 13.922 55.3204 14.7144 56.0489 15.1523C56.0489 15.1523 63.6411 19.7086 63.6411 19.7086C64.7339 20.3654 65.5301 21.2621 65.9932 22.3361C65.9932 22.3361 27.5111 22.3726 27.5111 22.3726C27.9691 21.283 28.7653 20.3811 29.884 19.7086C29.884 19.7086 37.4762 15.1523 37.4762 15.1523C37.4762 15.1523 37.4715 15.1523 37.4715 15.1523ZM4.70311 111.834L4.70311 17.7266C4.70311 17.7266 24.9666 17.7266 24.9666 17.7266C24.2797 18.4982 23.7177 19.3636 23.291 20.2967C23.291 20.2967 9.62037 20.2967 9.62037 20.2967C8.31944 20.2967 7.26831 21.3498 7.26831 22.653C7.26831 22.653 7.26831 106.908 7.26831 106.908C7.26831 108.211 8.31947 109.264 9.62037 109.264C9.62037 109.264 83.8988 109.264 83.8988 109.264C85.1997 109.264 86.2508 108.211 86.2508 106.908C86.2508 106.908 86.2508 100.741 86.2508 100.741C86.969 100.475 87.6714 100.178 88.3583 99.8544C88.3583 99.8544 88.8162 100.313 88.8162 100.313L88.8162 111.839L4.70311 111.834ZM115.299 111.49L111.516 115.28L111.5 115.28L111.495 115.275L99.0684 101.246L101.296 99.0149L115.299 111.464L115.304 111.469L115.304 111.479L115.304 111.485L115.299 111.49ZM76.2346 52.7644C64.7188 52.7644 55.3517 62.148 55.3517 73.685C55.3517 85.2216 64.7184 94.6055 76.2346 94.6055C87.7504 94.6055 97.1175 85.222 97.1175 73.685C97.1175 62.1484 87.7509 52.7644 76.2346 52.7644C76.2346 52.7644 76.2346 52.7644 76.2346 52.7644ZM76.2346 89.8919C67.3154 89.8919 60.0556 82.6248 60.0556 73.6836C60.0556 64.7484 67.3096 57.4754 76.2346 57.4754C85.1538 57.4754 92.4137 64.7425 92.4137 73.6836C92.4137 82.6189 85.1597 89.8919 76.2346 89.8919C76.2346 89.8919 76.2346 89.8919 76.2346 89.8919ZM85.3359 67.0068C86.257 67.9296 86.257 69.4205 85.3359 70.338C85.3359 70.338 75.3291 80.3628 75.3291 80.3628C74.8868 80.806 74.2884 81.051 73.664 81.051C73.0395 81.051 72.4411 80.8007 71.9988 80.3628C71.9988 80.3628 67.1281 75.4834 67.1281 75.4834C66.2071 74.5607 66.2071 73.0697 67.1281 72.1522C68.0492 71.2295 69.5375 71.2347 70.4533 72.1522C70.4533 72.1522 73.6588 75.3634 73.6588 75.3634C73.6588 75.3634 82.0003 67.0068 82.0003 67.0068C82.9214 66.0841 84.4097 66.0841 85.3255 67.0068C85.3255 67.0068 85.3359 67.0068 85.3359 67.0068Z" fill="#000000" transform="translate(0 -0)" />
  </g>
</svg>