<?xml version="1.0" encoding="utf-8"?>
<svg width="48" height="48" viewBox="0 0 48 48" fill="none" xmlns="http://www.w3.org/2000/svg">
  <g>
    <path d="M15.45 36C15.45 36 2 22 2 22L2 18C2 18 9 18 9 18C10.7667 18 12.2917 17.425 13.575 16.275C14.8583 15.125 15.6333 13.7 15.9 12C15.9 12 0 12 0 12L0 8C0 8 15.3 8 15.3 8C14.7333 6.83333 13.8917 5.875 12.775 5.125C11.6583 4.375 10.4 4 9 4C9 4 0 4 0 4L0 0L24 0L24 4C24 4 17.5 4 17.5 4C17.9667 4.56667 18.3833 5.18333 18.75 5.85C19.1167 6.51667 19.4 7.23333 19.6 8C19.6 8 24 8 24 8L24 12C24 12 19.95 12 19.95 12C19.6833 14.8333 18.5167 17.2083 16.45 19.125C14.3833 21.0417 11.9 22 9 22C9 22 7.55 22 7.55 22L21 36C21 36 15.45 36 15.45 36Z" fill="#191682" fill-rule="evenodd" transform="translate(12 6)" />
  </g>
</svg>