<?xml version="1.0" encoding="utf-8"?>
<svg width="200" height="200" viewBox="0 0 200 200" fill="none" xmlns="http://www.w3.org/2000/svg">
  <path d="M135 90C139.167 90 142.708 88.5417 145.625 85.625C148.542 82.7083 150 79.1667 150 75C150 70.8333 148.542 67.2917 145.625 64.375C142.708 61.4583 139.167 60 135 60C130.833 60 127.292 61.4583 124.375 64.375C121.458 67.2917 120 70.8333 120 75C120 79.1667 121.458 82.7083 124.375 85.625C127.292 88.5417 130.833 90 135 90ZM65 90C69.1667 90 72.7083 88.5417 75.625 85.625C78.5417 82.7083 80 79.1667 80 75C80 70.8333 78.5417 67.2917 75.625 64.375C72.7083 61.4583 69.1667 60 65 60C60.8333 60 57.2917 61.4583 54.375 64.375C51.4583 67.2917 50 70.8333 50 75C50 79.1667 51.4583 82.7083 54.375 85.625C57.2917 88.5417 60.8333 90 65 90C65 90 65 90 65 90ZM100 155C111.333 155 121.625 151.792 130.875 145.375C140.125 138.958 146.833 130.5 151 120C151 120 134.5 120 134.5 120C130.833 126.167 125.958 131.042 119.875 134.625C113.792 138.208 107.167 140 100 140C92.8334 140 86.2083 138.208 80.125 134.625C74.0417 131.042 69.1667 126.167 65.5 120C65.5 120 49 120 49 120C53.1667 130.5 59.875 138.958 69.125 145.375C78.375 151.792 88.6667 155 100 155C100 155 100 155 100 155ZM100 200C86.1667 200 73.1667 197.375 61 192.125C48.8333 186.875 38.25 179.75 29.25 170.75C20.25 161.75 13.125 151.167 7.875 139C2.625 126.833 0 113.833 0 100C0 86.1667 2.625 73.1667 7.875 61C13.125 48.8333 20.25 38.25 29.25 29.25C38.25 20.25 48.8333 13.125 61 7.875C73.1667 2.625 86.1667 0 100 0C113.833 0 126.833 2.625 139 7.875C151.167 13.125 161.75 20.25 170.75 29.25C179.75 38.25 186.875 48.8333 192.125 61C197.375 73.1667 200 86.1667 200 100C200 113.833 197.375 126.833 192.125 139C186.875 151.167 179.75 161.75 170.75 170.75C161.75 179.75 151.167 186.875 139 192.125C126.833 197.375 113.833 200 100 200C100 200 100 200 100 200ZM100 180C122.333 180 141.25 172.25 156.75 156.75C172.25 141.25 180 122.333 180 100C180 77.6667 172.25 58.75 156.75 43.25C141.25 27.75 122.333 20 100 20C77.6667 20 58.75 27.75 43.25 43.25C27.75 58.75 20 77.6667 20 100C20 122.333 27.75 141.25 43.25 156.75C58.75 172.25 77.6667 180 100 180C100 180 100 180 100 180Z" fill="#808080" />
</svg>