<?xml version="1.0" encoding="utf-8"?>
<svg width="32" height="32" viewBox="0 0 32 32" fill="none" xmlns="http://www.w3.org/2000/svg">
  <g>
    <path d="M14.6667 24C14.6667 24 5.33333 18.9333 5.33333 18.9333L5.33333 10.9333L0 8L14.6667 0L29.3333 8L29.3333 18.6667L26.6667 18.6667L26.6667 9.46667L24 10.9333L24 18.9333C24 18.9333 14.6667 24 14.6667 24ZM14.6667 12.9333L23.8 8L14.6667 3.06667L5.53333 8L14.6667 12.9333L14.6667 12.9333ZM14.6667 20.9667L21.3333 17.3667L21.3333 12.3333L14.6667 16L8 12.3333L8 17.3667L14.6667 20.9667L14.6667 20.9667Z" fill="#000000" transform="translate(1.333 4)" />
  </g>
</svg>