<?xml version="1.0" encoding="utf-8"?>
<svg width="32" height="32" viewBox="0 0 32 32" fill="none" xmlns="http://www.w3.org/2000/svg">
  <g transform="translate(0 0)">
    <path d="M2.66667 28.6667L0.533334 27.0667L4 22.4333C4 22.4333 4 15.3333 4 15.3333C4 14.6444 4.05556 13.8944 4.16667 13.0833C4.27778 12.2722 4.44444 11.5222 4.66667 10.8333C4.66667 10.8333 2.66667 11.9333 2.66667 11.9333L2.66667 16.6667L0 16.6667L0 10.4C0 10.4 5.86667 7.06667 5.86667 7.06667C6.42222 6.75556 6.90556 6.51667 7.31667 6.35C7.72778 6.18333 8.11111 6.1 8.46667 6.1C9.02222 6.1 9.52778 6.33889 9.98333 6.81667C10.4389 7.29444 10.9667 8.04444 11.5667 9.06667C12.2778 10.2667 12.9222 11.1667 13.5 11.7667C14.0778 12.3667 14.7 12.8222 15.3667 13.1333C15.6111 12.9556 15.8222 12.8333 16 12.7667C16.1778 12.7 16.3889 12.6667 16.6333 12.6667C17.1889 12.6667 17.6667 12.8667 18.0667 13.2667C18.4667 13.6667 18.6667 14.1333 18.6667 14.6667C18.6667 14.6667 18.6667 28.6667 18.6667 28.6667L17.3333 28.6667C17.3333 28.6667 17.3333 14.6667 17.3333 14.6667C17.3333 14.4889 17.2667 14.3333 17.1333 14.2C17 14.0667 16.8444 14 16.6667 14C16.4889 14 16.3333 14.0667 16.2 14.2C16.0667 14.3333 16 14.4889 16 14.6667C16 14.6667 16 16.3333 16 16.3333L14.6667 16.3333C14.6667 16.3333 14.6667 15.7 14.6667 15.7C13.4667 15.1889 12.5333 14.6167 11.8667 13.9833C11.2 13.35 10.6111 12.5 10.1 11.4333C9.85556 12.0556 9.66111 12.8167 9.51667 13.7167C9.37222 14.6167 9.32222 15.4667 9.36667 16.2667C9.36667 16.2667 12 20 12 20L12 28.6667L9.33333 28.6667L9.33333 22L6.96667 18.6L6.66667 23.3333L2.66667 28.6667L2.66667 28.6667ZM10 5.33333C9.26667 5.33333 8.63889 5.07222 8.11667 4.55C7.59444 4.02778 7.33333 3.4 7.33333 2.66667C7.33333 1.93333 7.59444 1.30556 8.11667 0.783333C8.63889 0.261111 9.26667 0 10 0C10.7333 0 11.3611 0.261111 11.8833 0.783333C12.4056 1.30556 12.6667 1.93333 12.6667 2.66667C12.6667 3.4 12.4056 4.02778 11.8833 4.55C11.3611 5.07222 10.7333 5.33333 10 5.33333C10 5.33333 10 5.33333 10 5.33333Z" fill="#FDEFEF" transform="translate(8 2)" />
  </g>
</svg>