<?xml version="1.0" encoding="utf-8"?>
<svg width="240" height="240" viewBox="0 0 240 240" fill="none" xmlns="http://www.w3.org/2000/svg">
  <g>
    <path d="M30 140C30 140 30 150 30 150C30 152.833 29.0417 155.208 27.125 157.125C25.2083 159.042 22.8333 160 20 160C20 160 10 160 10 160C7.16667 160 4.79167 159.042 2.875 157.125C0.958334 155.208 0 152.833 0 150C0 150 0 70 0 70C0 70 21 10 21 10C22 7 23.7917 4.58333 26.375 2.75C28.9583 0.916672 31.8333 0 35 0C35 0 145 0 145 0C148.167 0 151.042 0.916672 153.625 2.75C156.208 4.58333 158 7 159 10C159 10 180 70 180 70C180 70 180 150 180 150C180 152.833 179.042 155.208 177.125 157.125C175.208 159.042 172.833 160 170 160C170 160 160 160 160 160C157.167 160 154.792 159.042 152.875 157.125C150.958 155.208 150 152.833 150 150C150 150 150 140 150 140C150 140 30 140 30 140ZM28 50L152 50L141.5 20L38.5 20L28 50L28 50ZM20 70L20 120L20 70L20 70ZM45 110C49.1667 110 52.7083 108.542 55.625 105.625C58.5417 102.708 60 99.1667 60 95C60 90.8333 58.5417 87.2917 55.625 84.375C52.7083 81.4583 49.1667 80 45 80C40.8333 80 37.2917 81.4583 34.375 84.375C31.4583 87.2917 30 90.8333 30 95C30 99.1667 31.4583 102.708 34.375 105.625C37.2917 108.542 40.8333 110 45 110C45 110 45 110 45 110ZM135 110C139.167 110 142.708 108.542 145.625 105.625C148.542 102.708 150 99.1667 150 95C150 90.8333 148.542 87.2917 145.625 84.375C142.708 81.4583 139.167 80 135 80C130.833 80 127.292 81.4583 124.375 84.375C121.458 87.2917 120 90.8333 120 95C120 99.1667 121.458 102.708 124.375 105.625C127.292 108.542 130.833 110 135 110C135 110 135 110 135 110ZM100 220L40 190L80 190L80 170L140 200L100 200L100 220L100 220ZM20 120L160 120L160 70L20 70L20 120L20 120Z" fill="#232F33" transform="translate(30 10)" />
  </g>
</svg>