<?xml version="1.0" encoding="utf-8"?>
<svg width="240" height="240" viewBox="0 0 240 240" fill="none" xmlns="http://www.w3.org/2000/svg">
  <g>
    <path d="M100 180C97 180 94.125 179.458 91.375 178.375C88.625 177.292 86.1667 175.667 84 173.5C84 173.5 17 106.25 17 106.25C11.1667 100.417 6.875 93.75 4.125 86.25C1.375 78.75 0 70.9167 0 62.75C0 45.5833 5.58333 30.8333 16.75 18.5C27.9167 6.16667 41.8333 0 58.5 0C66.5 0 74.0417 1.58333 81.125 4.75C88.2083 7.91667 94.5 12.3333 100 18C105.333 12.3333 111.542 7.91667 118.625 4.75C125.708 1.58333 133.25 0 141.25 0C157.917 0 171.875 6.16667 183.125 18.5C194.375 30.8333 200 45.5 200 62.5C200 70.6667 198.583 78.5 195.75 86C192.917 93.5 188.667 100.167 183 106C183 106 115.75 173.5 115.75 173.5C113.583 175.667 111.167 177.292 108.5 178.375C105.833 179.458 103 180 100 180C100 180 100 180 100 180ZM110 50C111.667 50 113.25 50.4167 114.75 51.25C116.25 52.0833 117.417 53.1667 118.25 54.5C118.25 54.5 135.25 80 135.25 80C135.25 80 176.75 80 176.75 80C177.917 77.1667 178.792 74.2917 179.375 71.375C179.958 68.4583 180.25 65.5 180.25 62.5C179.917 51 176.083 41.125 168.75 32.875C161.417 24.625 152.25 20.5 141.25 20.5C136.083 20.5 131.125 21.5 126.375 23.5C121.625 25.5 117.5 28.4167 114 32.25C114 32.25 107.25 39.5 107.25 39.5C106.417 40.5 105.333 41.2917 104 41.875C102.667 42.4583 101.333 42.75 100 42.75C98.6667 42.75 97.3333 42.4583 96 41.875C94.6667 41.2917 93.5 40.5 92.5 39.5C92.5 39.5 85.75 32.25 85.75 32.25C82.25 28.4167 78.1667 25.4167 73.5 23.25C68.8333 21.0833 63.8333 20 58.5 20C47.5 20 38.3333 24.2083 31 32.625C23.6667 41.0417 20 51 20 62.5C20 65.5 20.25 68.4583 20.75 71.375C21.25 74.2917 22.0833 77.1667 23.25 80C23.25 80 70 80 70 80C71.6667 80 73.25 80.4167 74.75 81.25C76.25 82.0833 77.4167 83.1667 78.25 84.5C78.25 84.5 87 97.5 87 97.5C87 97.5 100.5 57 100.5 57C101.167 55 102.375 53.3333 104.125 52C105.875 50.6667 107.833 50 110 50C110 50 110 50 110 50ZM113 82.5C113 82.5 99.5002 123 99.5002 123C98.8336 125 97.5836 126.667 95.7502 128C93.9169 129.333 91.9169 130 89.7502 130C88.0836 130 86.5002 129.583 85.0002 128.75C83.5002 127.917 82.3336 126.833 81.5002 125.5C81.5002 125.5 64.5002 100 64.5002 100L39.0002 100C39.0002 100 98.2502 159.25 98.2502 159.25C98.5836 159.583 98.8752 159.792 99.1252 159.875C99.3752 159.958 99.6669 160 100 160C100.334 160 100.625 159.958 100.875 159.875C101.125 159.792 101.417 159.583 101.75 159.25C101.75 159.25 160.75 100 160.75 100C160.75 100 130 100 130 100C128.334 100 126.75 99.5833 125.25 98.75C123.75 97.9167 122.5 96.8333 121.5 95.5C121.5 95.5 113 82.5 113 82.5L113 82.5Z" fill="#232F33" transform="translate(20 30)" />
  </g>
</svg>