<?xml version="1.0" encoding="utf-8"?>
<svg width="255" height="170.005" viewBox="0 0 255 170.005" fill="none" xmlns="http://www.w3.org/2000/svg">
  <g opacity="0.5">
    <rect width="255" height="170.005" mix-blend-mode="color-dodge" />
    <path d="M128.297 68.8874C141.224 62.5122 151.318 55.5172 158.578 47.9024C165.839 40.2876 169.469 32.7023 169.469 25.1466C169.469 21.3687 168.539 18.5943 166.68 16.8234C164.82 15.0525 162.297 14.1671 159.109 14.1671C150.786 14.1671 143.438 18.8599 137.063 28.2456C130.688 37.6313 127.5 48.2271 127.5 60.0329C127.5 61.6858 127.544 63.25 127.633 64.7258C127.721 66.2015 127.943 67.5887 128.297 68.8874ZM10.6249 134.587L10.6249 120.42L31.8749 120.42L31.8749 134.587L10.6249 134.587L10.6249 134.587ZM53.1251 134.587L53.1251 120.42L74.3751 120.42L74.3751 134.587L53.1251 134.587L53.1251 134.587ZM95.625 134.587L95.625 120.42L116.875 120.42L116.875 134.587L95.625 134.587L95.625 134.587ZM138.125 134.587L138.125 120.42L159.375 120.42L159.375 134.587L138.125 134.587L138.125 134.587ZM180.625 134.587L180.625 120.42L201.875 120.42L201.875 134.587L180.625 134.587L180.625 134.587ZM14.875 106.253L0 96.336L17 85.0023L0 73.6687L14.875 63.7518L31.875 75.0854L48.875 63.7518L63.75 73.6687L46.75 85.0023L63.75 96.336L48.875 106.253L31.875 94.9193L14.875 106.253L14.875 106.253ZM142.906 99.1694C137.594 99.1694 132.724 98.4906 128.297 97.1329C123.87 95.7752 120.063 93.5616 116.875 90.4921C112.448 92.1449 107.888 93.6206 103.195 94.9193C98.5027 96.2179 93.6771 97.5166 88.7188 98.8152C88.7188 98.8152 81.2813 85.5336 81.2813 85.5336C86.2396 84.353 90.9766 83.0839 95.4922 81.7262C100.008 80.3685 104.391 78.9223 108.641 77.3876C107.755 74.7903 107.091 71.9568 106.648 68.8873C106.206 65.8178 105.984 62.5121 105.984 58.9704C105.984 41.9699 111.031 27.8914 121.125 16.7348C131.219 5.57828 143.88 0 159.109 0C168.318 0 175.844 2.27263 181.688 6.8179C187.531 11.3632 190.453 17.7088 190.453 25.8549C190.453 36.0079 185.628 46.0429 175.977 55.9599C166.326 65.8768 152.912 74.7903 135.734 82.7002C136.974 83.5266 138.258 84.1464 139.586 84.5596C140.914 84.9728 142.287 85.1794 143.703 85.1794C148.307 85.1794 153.664 83.2315 159.773 79.3355C165.883 75.4396 171.417 70.304 176.375 63.9289C176.375 63.9289 195.766 69.9498 195.766 69.9498C194.526 71.9568 193.552 74.3771 192.844 77.2105C192.135 80.0439 192.224 82.5231 193.109 84.6482C194.88 84.0579 196.961 83.0544 199.352 81.6377C201.742 80.221 204.177 78.4501 206.656 76.325C206.656 76.325 223.391 85.0023 223.391 85.0023C218.786 89.2525 213.474 92.6762 207.453 95.2735C201.432 97.8708 195.854 99.1694 190.719 99.1694C187 99.1694 183.68 98.4315 180.758 96.9558C177.836 95.4801 175.401 93.2074 173.453 90.1379C168.495 93.0894 163.448 95.3325 158.313 96.8673C153.177 98.402 148.042 99.1694 142.906 99.1694C142.906 99.1694 142.906 99.1694 142.906 99.1694Z" fill="#191682" transform="translate(21.25 14.167)" />
  </g>
</svg>