<?xml version="1.0" encoding="utf-8"?>
<svg width="320" height="568" viewBox="0 0 320 568" fill="none" xmlns="http://www.w3.org/2000/svg">
  <defs>
    <clipPath id="clip_path_1">
      <rect width="221.542" height="121.214" />
    </clipPath>
  </defs>
  <g>
    <path d="M239.668 248.595L227.37 248.595C227.37 248.595 227.37 13.4608 227.37 13.4608C227.37 6.0144 221.364 0 213.928 0C213.928 0 30.03 0 30.03 0C22.594 0 16.588 6.0144 16.588 13.4608C16.588 13.4608 16.588 248.595 16.588 248.595C16.588 248.595 4.576 248.595 4.576 248.595C2.002 248.595 0 250.6 0 253.178C0 253.178 0 267.784 0 267.784C0 270.362 2.002 272.366 4.576 272.366C4.576 272.366 239.668 272.366 239.668 272.366C242.242 272.366 244.244 270.362 244.244 267.784C244.244 267.784 244.244 253.178 244.244 253.178C244.244 250.6 242.242 248.595 239.668 248.595C239.668 248.595 239.668 248.595 239.668 248.595ZM126.412 248.595L126.412 205.635C126.412 205.635 150.722 205.635 150.722 205.635C153.296 205.635 155.298 207.64 155.298 210.218C155.298 210.218 155.298 248.882 155.298 248.882L126.412 248.882L126.412 248.595ZM177.606 32.0768C177.606 29.4992 179.608 27.4944 182.182 27.4944C182.182 27.4944 195.624 27.4944 195.624 27.4944C198.198 27.4944 200.2 29.4992 200.2 32.0768C200.2 32.0768 200.2 45.5376 200.2 45.5376C200.2 48.1152 198.198 50.12 195.624 50.12C195.624 50.12 182.182 50.12 182.182 50.12C179.608 50.12 177.606 48.1152 177.606 45.5376C177.606 45.5376 177.606 32.0768 177.606 32.0768C177.606 32.0768 177.606 32.0768 177.606 32.0768ZM177.606 76.7552C177.606 74.1776 179.608 72.1729 182.182 72.1729C182.182 72.1729 195.624 72.1729 195.624 72.1729C198.198 72.1729 200.2 74.1776 200.2 76.7552C200.2 76.7552 200.2 90.2161 200.2 90.2161C200.2 92.7937 198.198 94.7985 195.624 94.7985C195.624 94.7985 182.182 94.7985 182.182 94.7985C179.608 94.7985 177.606 92.7937 177.606 90.2161C177.606 90.2161 177.606 76.7552 177.606 76.7552C177.606 76.7552 177.606 76.7552 177.606 76.7552ZM177.606 121.147C177.606 118.57 179.608 116.565 182.182 116.565C182.182 116.565 195.624 116.565 195.624 116.565C198.198 116.565 200.2 118.57 200.2 121.147C200.2 121.147 200.2 134.608 200.2 134.608C200.2 137.186 198.198 139.19 195.624 139.19C195.624 139.19 182.182 139.19 182.182 139.19C179.608 139.19 177.606 137.186 177.606 134.608C177.606 134.608 177.606 121.147 177.606 121.147C177.606 121.147 177.606 121.147 177.606 121.147ZM177.606 165.539C177.606 162.962 179.608 160.957 182.182 160.957C182.182 160.957 195.624 160.957 195.624 160.957C198.198 160.957 200.2 162.962 200.2 165.539C200.2 165.539 200.2 179 200.2 179C200.2 181.578 198.198 183.582 195.624 183.582C195.624 183.582 182.182 183.582 182.182 183.582C179.608 183.582 177.606 181.578 177.606 179C177.606 179 177.606 165.539 177.606 165.539C177.606 165.539 177.606 165.539 177.606 165.539ZM177.606 209.931C177.606 207.354 179.608 205.349 182.182 205.349C182.182 205.349 195.624 205.349 195.624 205.349C198.198 205.349 200.2 207.354 200.2 209.931C200.2 209.931 200.2 223.392 200.2 223.392C200.2 225.97 198.198 227.974 195.624 227.974C195.624 227.974 182.182 227.974 182.182 227.974C179.608 227.974 177.606 225.97 177.606 223.392C177.606 223.392 177.606 209.931 177.606 209.931C177.606 209.931 177.606 209.931 177.606 209.931ZM133.276 32.0768C133.276 29.4992 135.278 27.4944 137.852 27.4944C137.852 27.4944 151.294 27.4944 151.294 27.4944C153.868 27.4944 155.87 29.4992 155.87 32.0768C155.87 32.0768 155.87 45.5376 155.87 45.5376C155.87 48.1152 153.868 50.12 151.294 50.12C151.294 50.12 137.852 50.12 137.852 50.12C135.278 50.12 133.276 48.1152 133.276 45.5376C133.276 45.5376 133.276 32.0768 133.276 32.0768C133.276 32.0768 133.276 32.0768 133.276 32.0768ZM133.276 76.7552C133.276 74.1776 135.278 72.1729 137.852 72.1729C137.852 72.1729 151.294 72.1729 151.294 72.1729C153.868 72.1729 155.87 74.1776 155.87 76.7552C155.87 76.7552 155.87 90.2161 155.87 90.2161C155.87 92.7937 153.868 94.7985 151.294 94.7985C151.294 94.7985 137.852 94.7985 137.852 94.7985C135.278 94.7985 133.276 92.7937 133.276 90.2161C133.276 90.2161 133.276 76.7552 133.276 76.7552C133.276 76.7552 133.276 76.7552 133.276 76.7552ZM133.276 121.147C133.276 118.57 135.278 116.565 137.852 116.565C137.852 116.565 151.294 116.565 151.294 116.565C153.868 116.565 155.87 118.57 155.87 121.147C155.87 121.147 155.87 134.608 155.87 134.608C155.87 137.186 153.868 139.19 151.294 139.19C151.294 139.19 137.852 139.19 137.852 139.19C135.278 139.19 133.276 137.186 133.276 134.608C133.276 134.608 133.276 121.147 133.276 121.147C133.276 121.147 133.276 121.147 133.276 121.147ZM133.276 165.539C133.276 162.962 135.278 160.957 137.852 160.957C137.852 160.957 151.294 160.957 151.294 160.957C153.868 160.957 155.87 162.962 155.87 165.539C155.87 165.539 155.87 179 155.87 179C155.87 181.578 153.868 183.582 151.294 183.582C151.294 183.582 137.852 183.582 137.852 183.582C135.278 183.582 133.276 181.578 133.276 179C133.276 179 133.276 165.539 133.276 165.539C133.276 165.539 133.276 165.539 133.276 165.539ZM88.9458 32.0768C88.9458 29.4992 90.9478 27.4944 93.5218 27.4944C93.5218 27.4944 106.964 27.4944 106.964 27.4944C109.538 27.4944 111.54 29.4992 111.54 32.0768C111.54 32.0768 111.54 45.5376 111.54 45.5376C111.54 48.1152 109.538 50.12 106.964 50.12C106.964 50.12 93.5218 50.12 93.5218 50.12C90.9478 50.12 88.9458 48.1152 88.9458 45.5376C88.9458 45.5376 88.9458 32.0768 88.9458 32.0768C88.9458 32.0768 88.9458 32.0768 88.9458 32.0768ZM88.9458 76.7552C88.9458 74.1776 90.9478 72.1729 93.5218 72.1729C93.5218 72.1729 106.964 72.1729 106.964 72.1729C109.538 72.1729 111.54 74.1776 111.54 76.7552C111.54 76.7552 111.54 90.2161 111.54 90.2161C111.54 92.7937 109.538 94.7985 106.964 94.7985C106.964 94.7985 93.5218 94.7985 93.5218 94.7985C90.9478 94.7985 88.9458 92.7937 88.9458 90.2161C88.9458 90.2161 88.9458 76.7552 88.9458 76.7552C88.9458 76.7552 88.9458 76.7552 88.9458 76.7552ZM88.9458 121.147C88.9458 118.57 90.9478 116.565 93.5218 116.565C93.5218 116.565 106.964 116.565 106.964 116.565C109.538 116.565 111.54 118.57 111.54 121.147C111.54 121.147 111.54 134.608 111.54 134.608C111.54 137.186 109.538 139.19 106.964 139.19C106.964 139.19 93.5218 139.19 93.5218 139.19C90.9478 139.19 88.9458 137.186 88.9458 134.608C88.9458 134.608 88.9458 121.147 88.9458 121.147C88.9458 121.147 88.9458 121.147 88.9458 121.147ZM88.9458 165.539C88.9458 162.962 90.9478 160.957 93.5218 160.957C93.5218 160.957 106.964 160.957 106.964 160.957C109.538 160.957 111.54 162.962 111.54 165.539C111.54 165.539 111.54 179 111.54 179C111.54 181.578 109.538 183.582 106.964 183.582C106.964 183.582 93.5218 183.582 93.5218 183.582C90.9478 183.582 88.9458 181.578 88.9458 179C88.9458 179 88.9458 165.539 88.9458 165.539C88.9458 165.539 88.9458 165.539 88.9458 165.539ZM44.616 32.0768C44.616 29.4992 46.618 27.4944 49.192 27.4944C49.192 27.4944 62.634 27.4944 62.634 27.4944C65.208 27.4944 67.21 29.4992 67.21 32.0768C67.21 32.0768 67.21 45.5376 67.21 45.5376C67.21 48.1152 65.208 50.12 62.634 50.12C62.634 50.12 49.192 50.12 49.192 50.12C46.618 50.12 44.616 48.1152 44.616 45.5376C44.616 45.5376 44.616 32.0768 44.616 32.0768C44.616 32.0768 44.616 32.0768 44.616 32.0768ZM44.616 76.7552C44.616 74.1776 46.618 72.1729 49.192 72.1729C49.192 72.1729 62.634 72.1729 62.634 72.1729C65.208 72.1729 67.21 74.1776 67.21 76.7552C67.21 76.7552 67.21 90.2161 67.21 90.2161C67.21 92.7937 65.208 94.7985 62.634 94.7985C62.634 94.7985 49.192 94.7985 49.192 94.7985C46.618 94.7985 44.616 92.7937 44.616 90.2161C44.616 90.2161 44.616 76.7552 44.616 76.7552C44.616 76.7552 44.616 76.7552 44.616 76.7552ZM44.616 121.147C44.616 118.57 46.618 116.565 49.192 116.565C49.192 116.565 62.634 116.565 62.634 116.565C65.208 116.565 67.21 118.57 67.21 121.147C67.21 121.147 67.21 134.608 67.21 134.608C67.21 137.186 65.208 139.19 62.634 139.19C62.634 139.19 49.192 139.19 49.192 139.19C46.618 139.19 44.616 137.186 44.616 134.608C44.616 134.608 44.616 121.147 44.616 121.147C44.616 121.147 44.616 121.147 44.616 121.147ZM44.616 165.539C44.616 162.962 46.618 160.957 49.192 160.957C49.192 160.957 62.634 160.957 62.634 160.957C65.208 160.957 67.21 162.962 67.21 165.539C67.21 165.539 67.21 179 67.21 179C67.21 181.578 65.208 183.582 62.634 183.582C62.634 183.582 49.192 183.582 49.192 183.582C46.618 183.582 44.616 181.578 44.616 179C44.616 179 44.616 165.539 44.616 165.539C44.616 165.539 44.616 165.539 44.616 165.539ZM44.616 209.931C44.616 207.354 46.618 205.349 49.192 205.349C49.192 205.349 62.634 205.349 62.634 205.349C65.208 205.349 67.21 207.354 67.21 209.931C67.21 209.931 67.21 223.392 67.21 223.392C67.21 225.97 65.208 227.974 62.634 227.974C62.634 227.974 49.192 227.974 49.192 227.974C46.618 227.974 44.616 225.97 44.616 223.392C44.616 223.392 44.616 209.931 44.616 209.931C44.616 209.931 44.616 209.931 44.616 209.931ZM88.9458 209.931C88.9458 207.354 90.9478 205.349 93.5218 205.349C93.5218 205.349 117.832 205.349 117.832 205.349L117.832 248.309L88.9458 248.309L88.9458 209.931C88.9458 209.931 88.9458 209.931 88.9458 209.931Z" fill="#2217BF" transform="translate(37 158)" />
    <g clip-path="url(#clip_path_1)" transform="translate(49 0)">
      <path d="M18.0175 47.1814C18.0175 47.1814 13.6186 70.2013 13.6186 70.2013C13.3958 71.3982 13.8413 72.5395 14.8296 73.2493C15.8041 73.9591 17.029 74.0427 18.1009 73.4581C18.1009 73.4581 38.6335 62.1567 38.6335 62.1567C38.6335 62.1567 59.1661 73.4581 59.1661 73.4581C60.2241 74.0426 61.4491 73.9591 62.4374 73.2493C63.4119 72.5395 63.8712 71.3982 63.6485 70.2013C63.6485 70.2013 59.2495 47.1814 59.2495 47.1814C59.2495 47.1814 76.3439 31.148 76.3439 31.148C77.2209 30.3129 77.5412 29.1299 77.1653 27.9747C76.7894 26.8196 75.8429 26.0402 74.6456 25.8871C74.6456 25.8871 51.3986 22.9643 51.3986 22.9643C51.3986 22.9643 41.4315 1.75366 41.4315 1.75366C40.9164 0.654162 39.8724 1.14679e-07 38.6614 1.14679e-07C37.4503 1.14679e-07 36.4063 0.654124 35.8912 1.75366C35.8912 1.75366 25.924 22.9643 25.924 22.9643C25.924 22.9643 2.67702 25.8871 2.67702 25.8871C1.47987 26.0402 0.533295 26.8196 0.157433 27.9747C-0.21843 29.1299 0.087822 30.3129 0.978729 31.148C0.978729 31.148 18.0731 47.1814 18.0731 47.1814L18.0175 47.1814Z" fill="#2217BF" fill-rule="evenodd" transform="translate(72.125 0)" />
      <path d="M0.0177612 35.4495C-0.107529 36.6603 0.435379 37.7599 1.47943 38.3861C1.47943 38.3861 21.5387 50.5084 21.5387 50.5084C21.5387 50.5084 22.012 73.932 22.012 73.932C22.0399 75.1429 22.722 76.1728 23.8217 76.6599C24.9354 77.147 26.1464 76.98 27.0652 76.1728C27.0652 76.1728 44.8 60.8492 44.8 60.8492C44.8 60.8492 67.2398 67.6409 67.2398 67.6409C68.3952 67.9889 69.5785 67.6687 70.3998 66.7641C71.2072 65.8594 71.416 64.6486 70.9426 63.5351C70.9426 63.5351 61.8525 41.9347 61.8525 41.9347C61.8525 41.9347 75.244 22.7004 75.244 22.7004C75.9399 21.7123 75.9957 20.4736 75.3832 19.4297C74.7706 18.3719 73.6849 17.8153 72.4877 17.9127C72.4877 17.9127 49.1291 19.889 49.1291 19.889C49.1291 19.889 34.9719 1.21124 34.9719 1.21124C34.248 0.250942 33.0927 -0.180504 31.9094 0.0699844C30.7262 0.320522 29.8492 1.18342 29.5707 2.36643C29.5707 2.36643 24.2391 25.1776 24.2391 25.1776C24.2391 25.1776 2.10574 32.8743 2.10574 32.8743C0.964279 33.2779 0.1987 34.2382 0.073349 35.4352C0.073349 35.4352 0.0177612 35.4495 0.0177612 35.4495Z" fill="#2217BF" fill-rule="evenodd" transform="translate(145.735 44.272)" />
      <path d="M51.9296 76.6456C53.0433 76.1585 53.7115 75.1286 53.7393 73.9178C53.7393 73.9178 54.2126 50.4941 54.2126 50.4941C54.2126 50.4941 74.2719 38.3719 74.2719 38.3719C75.302 37.7455 75.8588 36.646 75.7336 35.4352C75.6084 34.2244 74.8427 33.264 73.7012 32.8743C73.7012 32.8743 51.5678 25.1776 51.5678 25.1776C51.5678 25.1776 46.2363 2.36644 46.2363 2.36644C45.9579 1.18343 45.0809 0.334435 43.8976 0.0699921C42.7144 -0.180508 41.559 0.25095 40.8351 1.21125C40.8351 1.21125 26.6778 19.889 26.6778 19.889C26.6778 19.889 3.31927 17.9127 3.31927 17.9127C2.10821 17.8153 1.0224 18.3859 0.423821 19.4297C-0.188696 20.4875 -0.132998 21.7122 0.563022 22.7004C0.563022 22.7004 13.9545 41.9347 13.9545 41.9347C13.9545 41.9347 4.86433 63.5352 4.86433 63.5352C4.39104 64.6486 4.59984 65.8595 5.40721 66.7641C6.21459 67.6688 7.39783 67.9889 8.56717 67.641C8.56717 67.641 31.007 60.8492 31.007 60.8492C31.007 60.8492 48.7418 76.1728 48.7418 76.1728C49.6606 76.9661 50.8717 77.1471 51.9853 76.6599C51.9853 76.6599 51.9296 76.6456 51.9296 76.6456Z" fill="#2217BF" fill-rule="evenodd" transform="translate(0 44.285)" />
    </g>
    <g transform="translate(120 467)">
      <path d="M78.678 39.3316C78.678 60.9876 60.9991 78.6631 39.339 78.6631C17.6788 78.6631 0 60.9876 0 39.3316C0 17.6754 17.6788 0 39.339 0C60.9991 0 78.678 17.6754 78.678 39.3316Z" fill="#2217BF" fill-rule="evenodd" />
      <path d="M43.5688 1.36215C41.7452 -0.447021 38.8082 -0.46106 36.9842 1.36215C36.9842 1.36215 15.2404 23.102 15.2404 23.102C15.2404 23.102 8.6697 11.7311 8.6697 11.7311C7.38902 9.5043 4.53522 8.73871 2.32221 10.0332C0.0949364 11.3136 -0.65678 14.1669 0.623899 16.3795C0.623899 16.3795 10.2151 32.9975 10.2151 32.9975C11.7463 35.6419 15.3656 36.129 17.5373 33.9579C17.5373 33.9579 43.5825 7.9314 43.5825 7.9314C45.3921 6.10818 45.3921 3.17163 43.5825 1.34821C43.5825 1.34821 43.5688 1.36215 43.5688 1.36215Z" fill="#D3D3D3" fill-rule="evenodd" transform="translate(16.873 21.672)" />
    </g>
  </g>
</svg>