<?xml version="1.0" encoding="utf-8"?>
<svg width="96" height="96" viewBox="0 0 96 96" fill="none" xmlns="http://www.w3.org/2000/svg">
  <g>
    <path d="M24 8C24 8 24 0 24 0L48 0L48 8C48 8 24 8 24 8ZM32 52L40 52L40 28L32 28L32 52L32 52ZM22.05 81.15C17.6833 79.25 13.8667 76.6667 10.6 73.4C7.33333 70.1333 4.75 66.3167 2.85 61.95C0.95 57.5833 0 52.9333 0 48C0 43.0667 0.95 38.4167 2.85 34.05C4.75 29.6833 7.33333 25.8667 10.6 22.6C13.8667 19.3333 17.6833 16.75 22.05 14.85C26.4167 12.95 31.0667 12 36 12C40.1333 12 44.1 12.6667 47.9 14C51.7 15.3333 55.2667 17.2667 58.6 19.8C58.6 19.8 64.2 14.2 64.2 14.2L69.8 19.8C69.8 19.8 64.2 25.4 64.2 25.4C66.7333 28.7333 68.6667 32.3 70 36.1C71.3333 39.9 72 43.8667 72 48C72 52.9333 71.05 57.5833 69.15 61.95C67.25 66.3167 64.6667 70.1333 61.4 73.4C58.1333 76.6667 54.3167 79.25 49.95 81.15C45.5833 83.05 40.9333 84 36 84C31.0667 84 26.4167 83.05 22.05 81.15C22.05 81.15 22.05 81.15 22.05 81.15ZM55.8 67.8C61.2667 62.3333 64 55.7333 64 48C64 40.2667 61.2667 33.6667 55.8 28.2C50.3333 22.7333 43.7333 20 36 20C28.2667 20 21.6667 22.7333 16.2 28.2C10.7333 33.6667 8 40.2667 8 48C8 55.7333 10.7333 62.3333 16.2 67.8C21.6667 73.2667 28.2667 76 36 76C43.7333 76 50.3333 73.2667 55.8 67.8C55.8 67.8 55.8 67.8 55.8 67.8Z" fill="#000000" transform="translate(12 4)" />
  </g>
</svg>