<?xml version="1.0" encoding="utf-8"?>
<svg width="32" height="32" viewBox="0 0 32 32" fill="none" xmlns="http://www.w3.org/2000/svg">
  <g transform="translate(0 -0)">
    <path d="M9.43333 24.3333L6.13333 18.2L0 14.9L2.36667 12.5667L7.2 13.4L10.6 10L0.0333333 5.5L2.83333 2.63333L15.6667 4.9C15.6667 4.9 19.8 0.766667 19.8 0.766667C20.3111 0.255556 20.9444 0 21.7 0C22.4556 0 23.0889 0.255556 23.6 0.766667C24.1111 1.27778 24.3667 1.90556 24.3667 2.65C24.3667 3.39444 24.1111 4.02222 23.6 4.53333C23.6 4.53333 19.4333 8.7 19.4333 8.7L21.7 21.5L18.8667 24.3333L14.3333 13.7667L10.9333 17.1667L11.8 21.9667L9.43333 24.3333L9.43333 24.3333Z" fill="#FDEFEF" fill-rule="evenodd" transform="translate(3.8 3.833)" />
  </g>
</svg>